M48
;DRILL file {KiCad (5.0.0-rc2-dev-206-ge4d512a29)} date 03/29/18 17:58:57
;FORMAT={-:-/ absolute / metric / decimal}
FMAT,2
METRIC,TZ
T1C0.400
T2C1.000
T3C1.520
%
G90
G05
M71
T1
X101.46Y-60.58
X102.01Y-70.353
X104.978Y-106.153
X106.36Y-59.33
X107.198Y-108.126
X107.88Y-57.853
X107.926Y-56.903
X107.998Y-108.126
X108.63Y-56.503
X109.51Y-65.58
X109.83Y-56.503
X109.978Y-115.753
X110.348Y-98.126
X110.778Y-118.053
X110.81Y-76.53
X110.948Y-98.976
X110.98Y-57.453
X111.41Y-77.38
X111.78Y-59.753
X111.928Y-119.003
X112.248Y-109.926
X113.128Y-119.003
X113.76Y-67.38
X113.832Y-118.603
X113.878Y-117.653
X114.56Y-67.38
X115.398Y-116.176
X115.905Y-77.38
X116.405Y-76.53
X116.78Y-69.353
X119.748Y-105.153
X120.298Y-114.926
X121.148Y-98.126
X122.048Y-99.026
X126.46Y-60.58
X127.01Y-70.353
X129.978Y-106.153
X131.36Y-59.33
X132.198Y-108.126
X132.88Y-57.853
X132.926Y-56.903
X132.998Y-108.126
X133.63Y-56.503
X134.51Y-65.58
X134.83Y-56.503
X134.978Y-115.753
X135.348Y-98.126
X135.778Y-118.053
X135.81Y-76.53
X135.948Y-98.976
X135.98Y-57.453
X136.41Y-77.38
X136.78Y-59.753
X136.928Y-119.003
X137.248Y-109.926
X138.128Y-119.003
X138.76Y-67.38
X138.832Y-118.603
X138.878Y-117.653
X139.56Y-67.38
X140.398Y-116.176
X140.905Y-77.38
X141.405Y-76.53
X141.78Y-69.353
X143.228Y-91.078
X143.553Y-84.053
X144.403Y-92.928
X144.748Y-105.153
X145.298Y-114.926
X146.148Y-98.126
X146.298Y-99.026
X150.46Y-76.48
X150.61Y-77.38
X151.46Y-60.58
X152.01Y-70.353
X153.648Y-87.226
X154.978Y-106.153
X155.278Y-98.976
X155.828Y-98.126
X156.36Y-59.33
X157.198Y-108.126
X157.88Y-57.853
X157.926Y-56.903
X157.998Y-108.126
X158.63Y-56.503
X159.51Y-65.58
X159.83Y-56.503
X159.978Y-115.753
X160.348Y-98.126
X160.778Y-118.053
X160.81Y-76.53
X160.948Y-98.976
X160.98Y-57.453
X161.41Y-77.38
X161.78Y-59.753
X161.928Y-119.003
X162.248Y-109.926
X163.128Y-119.003
X163.76Y-67.38
X163.832Y-118.603
X163.878Y-117.653
X164.56Y-67.38
X165.398Y-116.176
X166.78Y-69.353
X169.748Y-105.153
X170.298Y-114.926
X175.46Y-76.48
X175.61Y-77.38
X176.46Y-60.58
X177.01Y-70.353
X179.978Y-106.153
X180.301Y-98.976
X180.801Y-98.126
X181.36Y-59.33
X182.198Y-108.126
X182.88Y-57.853
X182.926Y-56.903
X182.998Y-108.126
X183.63Y-56.503
X184.51Y-65.58
X184.83Y-56.503
X184.978Y-115.753
X185.348Y-98.126
X185.778Y-118.053
X185.81Y-76.53
X185.948Y-98.976
X185.98Y-57.453
X186.41Y-77.38
X186.78Y-59.753
X186.928Y-119.003
X187.248Y-109.926
X188.128Y-119.003
X188.76Y-67.38
X188.832Y-118.603
X188.878Y-117.653
X189.56Y-67.38
X190.398Y-116.176
X191.78Y-69.353
X194.748Y-105.153
X195.298Y-114.926
T2
X138.598Y-125.053
X163.598Y-125.053
X166.138Y-125.053
X168.678Y-125.053
X188.598Y-125.053
X191.138Y-125.053
X193.678Y-125.053
X178.08Y-50.453
X180.62Y-50.453
X183.16Y-50.453
X153.08Y-50.453
X155.62Y-50.453
X158.16Y-50.453
X141.138Y-125.053
X143.678Y-125.053
X128.08Y-50.453
X130.62Y-50.453
X133.16Y-50.453
X103.08Y-50.453
X105.62Y-50.453
X108.16Y-50.453
X113.598Y-125.053
X116.138Y-125.053
X118.678Y-125.053
X192.448Y-83.906
X104.448Y-83.926
X104.448Y-86.466
X104.448Y-89.006
X104.448Y-91.546
X192.448Y-86.446
X192.448Y-88.986
X192.448Y-91.526
T3
X102.478Y-109.713
X102.478Y-114.793
X102.478Y-119.873
X102.478Y-124.953
X169.28Y-50.553
X169.28Y-55.633
X169.28Y-60.713
X169.28Y-65.793
X152.478Y-109.713
X152.478Y-114.793
X152.478Y-119.873
X152.478Y-124.953
X177.478Y-109.713
X177.478Y-114.793
X177.478Y-119.873
X177.478Y-124.953
X194.28Y-65.793
X144.28Y-65.793
X194.28Y-50.553
X194.28Y-55.633
X144.28Y-50.553
X144.28Y-55.633
X144.28Y-60.713
X119.28Y-50.553
X119.28Y-55.633
X119.28Y-60.713
X119.28Y-65.793
X194.28Y-60.713
X127.478Y-109.713
X127.478Y-114.793
X127.478Y-119.873
X127.478Y-124.953
T0
M30
