G04 #@! TF.GenerationSoftware,KiCad,Pcbnew,(5.0.0-rc2-dev-206-ge4d512a29)*
G04 #@! TF.CreationDate,2018-03-29T18:07:49+02:00*
G04 #@! TF.ProjectId,Koczon,4B6F637A6F6E2E6B696361645F706362,1*
G04 #@! TF.SameCoordinates,Original*
G04 #@! TF.FileFunction,Soldermask,Bot*
G04 #@! TF.FilePolarity,Negative*
%FSLAX46Y46*%
G04 Gerber Fmt 4.6, Leading zero omitted, Abs format (unit mm)*
G04 Created by KiCad (PCBNEW (5.0.0-rc2-dev-206-ge4d512a29)) date 03/29/18 18:07:49*
%MOMM*%
%LPD*%
G01*
G04 APERTURE LIST*
%ADD10C,0.150000*%
%ADD11R,0.970000X1.270000*%
%ADD12C,3.000000*%
%ADD13R,3.000000X3.000000*%
%ADD14R,2.000000X1.700000*%
%ADD15R,1.700000X1.700000*%
%ADD16O,1.700000X1.700000*%
%ADD17R,0.450000X1.750000*%
%ADD18R,0.750000X1.200000*%
%ADD19R,1.200000X0.900000*%
%ADD20O,1.800000X1.800000*%
%ADD21R,1.800000X1.800000*%
%ADD22R,0.900000X1.200000*%
%ADD23R,1.500000X0.450000*%
G04 APERTURE END LIST*
D10*
G36*
X183878000Y-92752906D02*
X185878000Y-92752906D01*
X185878000Y-90752906D01*
X183878000Y-90752906D01*
X183878000Y-92752906D01*
G37*
X183878000Y-92752906D02*
X185878000Y-92752906D01*
X185878000Y-90752906D01*
X183878000Y-90752906D01*
X183878000Y-92752906D01*
G36*
X157238000Y-50306718D02*
X157258000Y-51479812D01*
X155608000Y-53179812D01*
X155658000Y-53229812D01*
X157308000Y-53229812D01*
X157308000Y-53779812D01*
X159058000Y-52029812D01*
X159058000Y-50279812D01*
X157238000Y-50306718D01*
G37*
X157238000Y-50306718D02*
X157258000Y-51479812D01*
X155608000Y-53179812D01*
X155658000Y-53229812D01*
X157308000Y-53229812D01*
X157308000Y-53779812D01*
X159058000Y-52029812D01*
X159058000Y-50279812D01*
X157238000Y-50306718D01*
G36*
X162958000Y-65102906D02*
X162958000Y-63602906D01*
X165108000Y-61452906D01*
X169508000Y-61452906D01*
X169508000Y-60002906D01*
X166058000Y-60002906D01*
X164458000Y-60002906D01*
X161508000Y-62952906D01*
X161508000Y-65102906D01*
X162958000Y-65102906D01*
G37*
X162958000Y-65102906D02*
X162958000Y-63602906D01*
X165108000Y-61452906D01*
X169508000Y-61452906D01*
X169508000Y-60002906D01*
X166058000Y-60002906D01*
X164458000Y-60002906D01*
X161508000Y-62952906D01*
X161508000Y-65102906D01*
X162958000Y-65102906D01*
G36*
X168528000Y-66529812D02*
X166478000Y-66529812D01*
X166478000Y-65029812D01*
X168528000Y-65029812D01*
X168528000Y-66529812D01*
G37*
X168528000Y-66529812D02*
X166478000Y-66529812D01*
X166478000Y-65029812D01*
X168528000Y-65029812D01*
X168528000Y-66529812D01*
G36*
X143528000Y-66529812D02*
X141478000Y-66529812D01*
X141478000Y-65029812D01*
X143528000Y-65029812D01*
X143528000Y-66529812D01*
G37*
X143528000Y-66529812D02*
X141478000Y-66529812D01*
X141478000Y-65029812D01*
X143528000Y-65029812D01*
X143528000Y-66529812D01*
G36*
X137978000Y-65102906D02*
X137978000Y-63602906D01*
X140128000Y-61452906D01*
X144528000Y-61452906D01*
X144528000Y-60002906D01*
X141078000Y-60002906D01*
X139478000Y-60002906D01*
X136528000Y-62952906D01*
X136528000Y-65102906D01*
X137978000Y-65102906D01*
G37*
X137978000Y-65102906D02*
X137978000Y-63602906D01*
X140128000Y-61452906D01*
X144528000Y-61452906D01*
X144528000Y-60002906D01*
X141078000Y-60002906D01*
X139478000Y-60002906D01*
X136528000Y-62952906D01*
X136528000Y-65102906D01*
X137978000Y-65102906D01*
G36*
X112978000Y-65102906D02*
X112978000Y-63602906D01*
X115128000Y-61452906D01*
X119528000Y-61452906D01*
X119528000Y-60002906D01*
X116078000Y-60002906D01*
X114478000Y-60002906D01*
X111528000Y-62952906D01*
X111528000Y-65102906D01*
X112978000Y-65102906D01*
G37*
X112978000Y-65102906D02*
X112978000Y-63602906D01*
X115128000Y-61452906D01*
X119528000Y-61452906D01*
X119528000Y-60002906D01*
X116078000Y-60002906D01*
X114478000Y-60002906D01*
X111528000Y-62952906D01*
X111528000Y-65102906D01*
X112978000Y-65102906D01*
G36*
X182238000Y-50306718D02*
X182258000Y-51479812D01*
X180608000Y-53179812D01*
X180658000Y-53229812D01*
X182308000Y-53229812D01*
X182308000Y-53779812D01*
X184058000Y-52029812D01*
X184058000Y-50279812D01*
X182238000Y-50306718D01*
G37*
X182238000Y-50306718D02*
X182258000Y-51479812D01*
X180608000Y-53179812D01*
X180658000Y-53229812D01*
X182308000Y-53229812D01*
X182308000Y-53779812D01*
X184058000Y-52029812D01*
X184058000Y-50279812D01*
X182238000Y-50306718D01*
G36*
X187958000Y-65079812D02*
X187958000Y-63579812D01*
X190108000Y-61429812D01*
X194508000Y-61429812D01*
X194508000Y-59979812D01*
X191058000Y-59979812D01*
X189458000Y-59979812D01*
X186508000Y-62929812D01*
X186508000Y-65079812D01*
X187958000Y-65079812D01*
G37*
X187958000Y-65079812D02*
X187958000Y-63579812D01*
X190108000Y-61429812D01*
X194508000Y-61429812D01*
X194508000Y-59979812D01*
X191058000Y-59979812D01*
X189458000Y-59979812D01*
X186508000Y-62929812D01*
X186508000Y-65079812D01*
X187958000Y-65079812D01*
G36*
X193508000Y-66529812D02*
X191458000Y-66529812D01*
X191458000Y-65029812D01*
X193508000Y-65029812D01*
X193508000Y-66529812D01*
G37*
X193508000Y-66529812D02*
X191458000Y-66529812D01*
X191458000Y-65029812D01*
X193508000Y-65029812D01*
X193508000Y-66529812D01*
G36*
X193958000Y-51379812D02*
X189008000Y-51429812D01*
X188158000Y-52279812D01*
X188158000Y-53179812D01*
X186408000Y-53179812D01*
X186408000Y-51529812D01*
X188308000Y-49729812D01*
X193958000Y-49729812D01*
X193958000Y-51379812D01*
G37*
X193958000Y-51379812D02*
X189008000Y-51429812D01*
X188158000Y-52279812D01*
X188158000Y-53179812D01*
X186408000Y-53179812D01*
X186408000Y-51529812D01*
X188308000Y-49729812D01*
X193958000Y-49729812D01*
X193958000Y-51379812D01*
G36*
X119028000Y-51402906D02*
X114078000Y-51452906D01*
X113228000Y-52302906D01*
X113228000Y-53202906D01*
X111478000Y-53202906D01*
X111478000Y-51552906D01*
X113378000Y-49752906D01*
X119028000Y-49752906D01*
X119028000Y-51402906D01*
G37*
X119028000Y-51402906D02*
X114078000Y-51452906D01*
X113228000Y-52302906D01*
X113228000Y-53202906D01*
X111478000Y-53202906D01*
X111478000Y-51552906D01*
X113378000Y-49752906D01*
X119028000Y-49752906D01*
X119028000Y-51402906D01*
G36*
X143978000Y-51402906D02*
X139028000Y-51452906D01*
X138178000Y-52302906D01*
X138178000Y-53202906D01*
X136428000Y-53202906D01*
X136428000Y-51552906D01*
X138328000Y-49752906D01*
X143978000Y-49752906D01*
X143978000Y-51402906D01*
G37*
X143978000Y-51402906D02*
X139028000Y-51452906D01*
X138178000Y-52302906D01*
X138178000Y-53202906D01*
X136428000Y-53202906D01*
X136428000Y-51552906D01*
X138328000Y-49752906D01*
X143978000Y-49752906D01*
X143978000Y-51402906D01*
G36*
X168958000Y-51402906D02*
X164008000Y-51452906D01*
X163158000Y-52302906D01*
X163158000Y-53202906D01*
X161408000Y-53202906D01*
X161408000Y-51552906D01*
X163308000Y-49752906D01*
X168958000Y-49752906D01*
X168958000Y-51402906D01*
G37*
X168958000Y-51402906D02*
X164008000Y-51452906D01*
X163158000Y-52302906D01*
X163158000Y-53202906D01*
X161408000Y-53202906D01*
X161408000Y-51552906D01*
X163308000Y-49752906D01*
X168958000Y-49752906D01*
X168958000Y-51402906D01*
G36*
X107238000Y-50306718D02*
X107258000Y-51479812D01*
X105608000Y-53179812D01*
X105658000Y-53229812D01*
X107308000Y-53229812D01*
X107308000Y-53779812D01*
X109058000Y-52029812D01*
X109058000Y-50279812D01*
X107238000Y-50306718D01*
G37*
X107238000Y-50306718D02*
X107258000Y-51479812D01*
X105608000Y-53179812D01*
X105658000Y-53229812D01*
X107308000Y-53229812D01*
X107308000Y-53779812D01*
X109058000Y-52029812D01*
X109058000Y-50279812D01*
X107238000Y-50306718D01*
G36*
X132238000Y-50306718D02*
X132258000Y-51479812D01*
X130608000Y-53179812D01*
X130658000Y-53229812D01*
X132308000Y-53229812D01*
X132308000Y-53779812D01*
X134058000Y-52029812D01*
X134058000Y-50279812D01*
X132238000Y-50306718D01*
G37*
X132238000Y-50306718D02*
X132258000Y-51479812D01*
X130608000Y-53179812D01*
X130658000Y-53229812D01*
X132308000Y-53229812D01*
X132308000Y-53779812D01*
X134058000Y-52029812D01*
X134058000Y-50279812D01*
X132238000Y-50306718D01*
G36*
X118528000Y-66552906D02*
X116478000Y-66552906D01*
X116478000Y-65052906D01*
X118528000Y-65052906D01*
X118528000Y-66552906D01*
G37*
X118528000Y-66552906D02*
X116478000Y-66552906D01*
X116478000Y-65052906D01*
X118528000Y-65052906D01*
X118528000Y-66552906D01*
G36*
X178228000Y-108952906D02*
X180278000Y-108952906D01*
X180278000Y-110452906D01*
X178228000Y-110452906D01*
X178228000Y-108952906D01*
G37*
X178228000Y-108952906D02*
X180278000Y-108952906D01*
X180278000Y-110452906D01*
X178228000Y-110452906D01*
X178228000Y-108952906D01*
G36*
X153228000Y-108976000D02*
X155278000Y-108976000D01*
X155278000Y-110476000D01*
X153228000Y-110476000D01*
X153228000Y-108976000D01*
G37*
X153228000Y-108976000D02*
X155278000Y-108976000D01*
X155278000Y-110476000D01*
X153228000Y-110476000D01*
X153228000Y-108976000D01*
G36*
X128228000Y-108976000D02*
X130278000Y-108976000D01*
X130278000Y-110476000D01*
X128228000Y-110476000D01*
X128228000Y-108976000D01*
G37*
X128228000Y-108976000D02*
X130278000Y-108976000D01*
X130278000Y-110476000D01*
X128228000Y-110476000D01*
X128228000Y-108976000D01*
G36*
X183778000Y-110402906D02*
X183778000Y-111902906D01*
X181628000Y-114052906D01*
X177228000Y-114052906D01*
X177228000Y-115502906D01*
X180678000Y-115502906D01*
X182278000Y-115502906D01*
X185228000Y-112552906D01*
X185228000Y-110402906D01*
X183778000Y-110402906D01*
G37*
X183778000Y-110402906D02*
X183778000Y-111902906D01*
X181628000Y-114052906D01*
X177228000Y-114052906D01*
X177228000Y-115502906D01*
X180678000Y-115502906D01*
X182278000Y-115502906D01*
X185228000Y-112552906D01*
X185228000Y-110402906D01*
X183778000Y-110402906D01*
G36*
X158778000Y-110402906D02*
X158778000Y-111902906D01*
X156628000Y-114052906D01*
X152228000Y-114052906D01*
X152228000Y-115502906D01*
X155678000Y-115502906D01*
X157278000Y-115502906D01*
X160228000Y-112552906D01*
X160228000Y-110402906D01*
X158778000Y-110402906D01*
G37*
X158778000Y-110402906D02*
X158778000Y-111902906D01*
X156628000Y-114052906D01*
X152228000Y-114052906D01*
X152228000Y-115502906D01*
X155678000Y-115502906D01*
X157278000Y-115502906D01*
X160228000Y-112552906D01*
X160228000Y-110402906D01*
X158778000Y-110402906D01*
G36*
X133798000Y-110402906D02*
X133798000Y-111902906D01*
X131648000Y-114052906D01*
X127248000Y-114052906D01*
X127248000Y-115502906D01*
X130698000Y-115502906D01*
X132298000Y-115502906D01*
X135248000Y-112552906D01*
X135248000Y-110402906D01*
X133798000Y-110402906D01*
G37*
X133798000Y-110402906D02*
X133798000Y-111902906D01*
X131648000Y-114052906D01*
X127248000Y-114052906D01*
X127248000Y-115502906D01*
X130698000Y-115502906D01*
X132298000Y-115502906D01*
X135248000Y-112552906D01*
X135248000Y-110402906D01*
X133798000Y-110402906D01*
G36*
X177728000Y-124102906D02*
X182678000Y-124052906D01*
X183528000Y-123202906D01*
X183528000Y-122302906D01*
X185278000Y-122302906D01*
X185278000Y-123952906D01*
X183378000Y-125752906D01*
X177728000Y-125752906D01*
X177728000Y-124102906D01*
G37*
X177728000Y-124102906D02*
X182678000Y-124052906D01*
X183528000Y-123202906D01*
X183528000Y-122302906D01*
X185278000Y-122302906D01*
X185278000Y-123952906D01*
X183378000Y-125752906D01*
X177728000Y-125752906D01*
X177728000Y-124102906D01*
G36*
X152778000Y-124102906D02*
X157728000Y-124052906D01*
X158578000Y-123202906D01*
X158578000Y-122302906D01*
X160328000Y-122302906D01*
X160328000Y-123952906D01*
X158428000Y-125752906D01*
X152778000Y-125752906D01*
X152778000Y-124102906D01*
G37*
X152778000Y-124102906D02*
X157728000Y-124052906D01*
X158578000Y-123202906D01*
X158578000Y-122302906D01*
X160328000Y-122302906D01*
X160328000Y-123952906D01*
X158428000Y-125752906D01*
X152778000Y-125752906D01*
X152778000Y-124102906D01*
G36*
X127798000Y-124102906D02*
X132748000Y-124052906D01*
X133598000Y-123202906D01*
X133598000Y-122302906D01*
X135348000Y-122302906D01*
X135348000Y-123952906D01*
X133448000Y-125752906D01*
X127798000Y-125752906D01*
X127798000Y-124102906D01*
G37*
X127798000Y-124102906D02*
X132748000Y-124052906D01*
X133598000Y-123202906D01*
X133598000Y-122302906D01*
X135348000Y-122302906D01*
X135348000Y-123952906D01*
X133448000Y-125752906D01*
X127798000Y-125752906D01*
X127798000Y-124102906D01*
G36*
X189518000Y-125199094D02*
X189498000Y-124026000D01*
X191148000Y-122326000D01*
X191098000Y-122276000D01*
X189448000Y-122276000D01*
X189448000Y-121726000D01*
X187698000Y-123476000D01*
X187698000Y-125226000D01*
X189518000Y-125199094D01*
G37*
X189518000Y-125199094D02*
X189498000Y-124026000D01*
X191148000Y-122326000D01*
X191098000Y-122276000D01*
X189448000Y-122276000D01*
X189448000Y-121726000D01*
X187698000Y-123476000D01*
X187698000Y-125226000D01*
X189518000Y-125199094D01*
G36*
X164518000Y-125199094D02*
X164498000Y-124026000D01*
X166148000Y-122326000D01*
X166098000Y-122276000D01*
X164448000Y-122276000D01*
X164448000Y-121726000D01*
X162698000Y-123476000D01*
X162698000Y-125226000D01*
X164518000Y-125199094D01*
G37*
X164518000Y-125199094D02*
X164498000Y-124026000D01*
X166148000Y-122326000D01*
X166098000Y-122276000D01*
X164448000Y-122276000D01*
X164448000Y-121726000D01*
X162698000Y-123476000D01*
X162698000Y-125226000D01*
X164518000Y-125199094D01*
G36*
X139518000Y-125199094D02*
X139498000Y-124026000D01*
X141148000Y-122326000D01*
X141098000Y-122276000D01*
X139448000Y-122276000D01*
X139448000Y-121726000D01*
X137698000Y-123476000D01*
X137698000Y-125226000D01*
X139518000Y-125199094D01*
G37*
X139518000Y-125199094D02*
X139498000Y-124026000D01*
X141148000Y-122326000D01*
X141098000Y-122276000D01*
X139448000Y-122276000D01*
X139448000Y-121726000D01*
X137698000Y-123476000D01*
X137698000Y-125226000D01*
X139518000Y-125199094D01*
G36*
X102798000Y-124126000D02*
X107748000Y-124076000D01*
X108598000Y-123226000D01*
X108598000Y-122326000D01*
X110348000Y-122326000D01*
X110348000Y-123976000D01*
X108448000Y-125776000D01*
X102798000Y-125776000D01*
X102798000Y-124126000D01*
G37*
X102798000Y-124126000D02*
X107748000Y-124076000D01*
X108598000Y-123226000D01*
X108598000Y-122326000D01*
X110348000Y-122326000D01*
X110348000Y-123976000D01*
X108448000Y-125776000D01*
X102798000Y-125776000D01*
X102798000Y-124126000D01*
G36*
X103248000Y-108976000D02*
X105298000Y-108976000D01*
X105298000Y-110476000D01*
X103248000Y-110476000D01*
X103248000Y-108976000D01*
G37*
X103248000Y-108976000D02*
X105298000Y-108976000D01*
X105298000Y-110476000D01*
X103248000Y-110476000D01*
X103248000Y-108976000D01*
G36*
X108798000Y-110426000D02*
X108798000Y-111926000D01*
X106648000Y-114076000D01*
X102248000Y-114076000D01*
X102248000Y-115526000D01*
X105698000Y-115526000D01*
X107298000Y-115526000D01*
X110248000Y-112576000D01*
X110248000Y-110426000D01*
X108798000Y-110426000D01*
G37*
X108798000Y-110426000D02*
X108798000Y-111926000D01*
X106648000Y-114076000D01*
X102248000Y-114076000D01*
X102248000Y-115526000D01*
X105698000Y-115526000D01*
X107298000Y-115526000D01*
X110248000Y-112576000D01*
X110248000Y-110426000D01*
X108798000Y-110426000D01*
G36*
X114518000Y-125199094D02*
X114498000Y-124026000D01*
X116148000Y-122326000D01*
X116098000Y-122276000D01*
X114448000Y-122276000D01*
X114448000Y-121726000D01*
X112698000Y-123476000D01*
X112698000Y-125226000D01*
X114518000Y-125199094D01*
G37*
X114518000Y-125199094D02*
X114498000Y-124026000D01*
X116148000Y-122326000D01*
X116098000Y-122276000D01*
X114448000Y-122276000D01*
X114448000Y-121726000D01*
X112698000Y-123476000D01*
X112698000Y-125226000D01*
X114518000Y-125199094D01*
D11*
X139608000Y-91102906D03*
X140878000Y-91102906D03*
X142148000Y-91102906D03*
X142148000Y-84052906D03*
X140878000Y-84052906D03*
X139608000Y-84052906D03*
X139608000Y-93552906D03*
X140878000Y-93552906D03*
X142148000Y-93552906D03*
D12*
X102478000Y-109712906D03*
D13*
X102478000Y-124952906D03*
D12*
X102478000Y-114792906D03*
X102478000Y-119872906D03*
D14*
X141210142Y-65779812D03*
X137210142Y-65779812D03*
X162210142Y-65779812D03*
X166210142Y-65779812D03*
X116210142Y-65779812D03*
X112210142Y-65779812D03*
X187210142Y-65779812D03*
X191210142Y-65779812D03*
X180548000Y-109726000D03*
X184548000Y-109726000D03*
X109548000Y-109726000D03*
X105548000Y-109726000D03*
X155548000Y-109726000D03*
X159548000Y-109726000D03*
X134548000Y-109726000D03*
X130548000Y-109726000D03*
D15*
X104448000Y-83926000D03*
D16*
X104448000Y-86466000D03*
X104448000Y-89006000D03*
X104448000Y-91546000D03*
D15*
X192448000Y-91526000D03*
D16*
X192448000Y-88986000D03*
X192448000Y-86446000D03*
X192448000Y-83906000D03*
D17*
X151953000Y-84052906D03*
X151303000Y-84052906D03*
X150653000Y-84052906D03*
X150003000Y-84052906D03*
X149353000Y-84052906D03*
X148703000Y-84052906D03*
X148053000Y-84052906D03*
X147403000Y-84052906D03*
X146753000Y-84052906D03*
X146103000Y-84052906D03*
X145453000Y-84052906D03*
X144803000Y-84052906D03*
X144803000Y-91252906D03*
X145453000Y-91252906D03*
X146103000Y-91252906D03*
X146753000Y-91252906D03*
X147403000Y-91252906D03*
X148053000Y-91252906D03*
X148703000Y-91252906D03*
X149353000Y-91252906D03*
X150003000Y-91252906D03*
X150653000Y-91252906D03*
X151303000Y-91252906D03*
X151953000Y-91252906D03*
D18*
X153648000Y-86076000D03*
X153648000Y-84176000D03*
D19*
X165748000Y-85726000D03*
X167948000Y-85726000D03*
X165848000Y-89226000D03*
X168048000Y-89226000D03*
X153848000Y-92926000D03*
X156048000Y-92926000D03*
X142348000Y-100226000D03*
X140148000Y-100226000D03*
D12*
X127478000Y-109712906D03*
D13*
X127478000Y-124952906D03*
D12*
X127478000Y-114792906D03*
X127478000Y-119872906D03*
D20*
X113598000Y-125052906D03*
X116138000Y-125052906D03*
D21*
X118678000Y-125052906D03*
D18*
X117678000Y-116802906D03*
X117678000Y-118702906D03*
X107278000Y-118702906D03*
X107278000Y-116802906D03*
D22*
X119078000Y-120352906D03*
X119078000Y-118152906D03*
D18*
X142678000Y-116802906D03*
X142678000Y-118702906D03*
X132278000Y-118702906D03*
X132278000Y-116802906D03*
X167678000Y-116802906D03*
X167678000Y-118702906D03*
X157278000Y-118702906D03*
X157278000Y-116802906D03*
X192678000Y-116802906D03*
X192678000Y-118702906D03*
X182278000Y-118702906D03*
X182278000Y-116802906D03*
X179080142Y-58702906D03*
X179080142Y-56802906D03*
X189480142Y-56802906D03*
X189480142Y-58702906D03*
X154080142Y-58702906D03*
X154080142Y-56802906D03*
X164480142Y-56802906D03*
X164480142Y-58702906D03*
X129080142Y-58702906D03*
X129080142Y-56802906D03*
X139480142Y-56802906D03*
X139480142Y-58702906D03*
X104080142Y-58702906D03*
X104080142Y-56802906D03*
X114480142Y-56802906D03*
X114480142Y-58702906D03*
D12*
X152478000Y-109712906D03*
D13*
X152478000Y-124952906D03*
D12*
X152478000Y-114792906D03*
X152478000Y-119872906D03*
X177478000Y-109712906D03*
D13*
X177478000Y-124952906D03*
D12*
X177478000Y-114792906D03*
X177478000Y-119872906D03*
X194280142Y-65792906D03*
D13*
X194280142Y-50552906D03*
D12*
X194280142Y-60712906D03*
X194280142Y-55632906D03*
X169280142Y-65792906D03*
D13*
X169280142Y-50552906D03*
D12*
X169280142Y-60712906D03*
X169280142Y-55632906D03*
X144280142Y-65792906D03*
D13*
X144280142Y-50552906D03*
D12*
X144280142Y-60712906D03*
X144280142Y-55632906D03*
X119280142Y-65792906D03*
D13*
X119280142Y-50552906D03*
D12*
X119280142Y-60712906D03*
X119280142Y-55632906D03*
D20*
X138598000Y-125052906D03*
X141138000Y-125052906D03*
D21*
X143678000Y-125052906D03*
D20*
X163598000Y-125052906D03*
X166138000Y-125052906D03*
D21*
X168678000Y-125052906D03*
D20*
X188598000Y-125052906D03*
X191138000Y-125052906D03*
D21*
X193678000Y-125052906D03*
D20*
X183160142Y-50452906D03*
X180620142Y-50452906D03*
D21*
X178080142Y-50452906D03*
D20*
X158160142Y-50452906D03*
X155620142Y-50452906D03*
D21*
X153080142Y-50452906D03*
D20*
X133160142Y-50452906D03*
X130620142Y-50452906D03*
D21*
X128080142Y-50452906D03*
D20*
X108160142Y-50452906D03*
X105620142Y-50452906D03*
D21*
X103080142Y-50452906D03*
D22*
X144078000Y-120352906D03*
X144078000Y-118152906D03*
X130778000Y-118152906D03*
X130778000Y-120352906D03*
X169078000Y-120352906D03*
X169078000Y-118152906D03*
X155778000Y-118152906D03*
X155778000Y-120352906D03*
X194078000Y-120352906D03*
X194078000Y-118152906D03*
X180778000Y-118152906D03*
X180778000Y-120352906D03*
X177680142Y-55152906D03*
X177680142Y-57352906D03*
X190980142Y-57352906D03*
X190980142Y-55152906D03*
X152680142Y-55152906D03*
X152680142Y-57352906D03*
X165980142Y-57352906D03*
X165980142Y-55152906D03*
X127680142Y-55152906D03*
X127680142Y-57352906D03*
X140980142Y-57352906D03*
X140980142Y-55152906D03*
X102680142Y-55152906D03*
X102680142Y-57352906D03*
X115980142Y-57352906D03*
X115980142Y-55152906D03*
D23*
X115378000Y-121827906D03*
X115378000Y-121177906D03*
X115378000Y-120527906D03*
X115378000Y-119877906D03*
X115378000Y-119227906D03*
X115378000Y-118577906D03*
X115378000Y-117927906D03*
X115378000Y-117277906D03*
X109478000Y-117277906D03*
X109478000Y-117927906D03*
X109478000Y-118577906D03*
X109478000Y-119227906D03*
X109478000Y-119877906D03*
X109478000Y-120527906D03*
X109478000Y-121177906D03*
X109478000Y-121827906D03*
X140378000Y-121827906D03*
X140378000Y-121177906D03*
X140378000Y-120527906D03*
X140378000Y-119877906D03*
X140378000Y-119227906D03*
X140378000Y-118577906D03*
X140378000Y-117927906D03*
X140378000Y-117277906D03*
X134478000Y-117277906D03*
X134478000Y-117927906D03*
X134478000Y-118577906D03*
X134478000Y-119227906D03*
X134478000Y-119877906D03*
X134478000Y-120527906D03*
X134478000Y-121177906D03*
X134478000Y-121827906D03*
X165378000Y-121827906D03*
X165378000Y-121177906D03*
X165378000Y-120527906D03*
X165378000Y-119877906D03*
X165378000Y-119227906D03*
X165378000Y-118577906D03*
X165378000Y-117927906D03*
X165378000Y-117277906D03*
X159478000Y-117277906D03*
X159478000Y-117927906D03*
X159478000Y-118577906D03*
X159478000Y-119227906D03*
X159478000Y-119877906D03*
X159478000Y-120527906D03*
X159478000Y-121177906D03*
X159478000Y-121827906D03*
X190378000Y-121827906D03*
X190378000Y-121177906D03*
X190378000Y-120527906D03*
X190378000Y-119877906D03*
X190378000Y-119227906D03*
X190378000Y-118577906D03*
X190378000Y-117927906D03*
X190378000Y-117277906D03*
X184478000Y-117277906D03*
X184478000Y-117927906D03*
X184478000Y-118577906D03*
X184478000Y-119227906D03*
X184478000Y-119877906D03*
X184478000Y-120527906D03*
X184478000Y-121177906D03*
X184478000Y-121827906D03*
X181380142Y-53677906D03*
X181380142Y-54327906D03*
X181380142Y-54977906D03*
X181380142Y-55627906D03*
X181380142Y-56277906D03*
X181380142Y-56927906D03*
X181380142Y-57577906D03*
X181380142Y-58227906D03*
X187280142Y-58227906D03*
X187280142Y-57577906D03*
X187280142Y-56927906D03*
X187280142Y-56277906D03*
X187280142Y-55627906D03*
X187280142Y-54977906D03*
X187280142Y-54327906D03*
X187280142Y-53677906D03*
X156380142Y-53677906D03*
X156380142Y-54327906D03*
X156380142Y-54977906D03*
X156380142Y-55627906D03*
X156380142Y-56277906D03*
X156380142Y-56927906D03*
X156380142Y-57577906D03*
X156380142Y-58227906D03*
X162280142Y-58227906D03*
X162280142Y-57577906D03*
X162280142Y-56927906D03*
X162280142Y-56277906D03*
X162280142Y-55627906D03*
X162280142Y-54977906D03*
X162280142Y-54327906D03*
X162280142Y-53677906D03*
X131380142Y-53677906D03*
X131380142Y-54327906D03*
X131380142Y-54977906D03*
X131380142Y-55627906D03*
X131380142Y-56277906D03*
X131380142Y-56927906D03*
X131380142Y-57577906D03*
X131380142Y-58227906D03*
X137280142Y-58227906D03*
X137280142Y-57577906D03*
X137280142Y-56927906D03*
X137280142Y-56277906D03*
X137280142Y-55627906D03*
X137280142Y-54977906D03*
X137280142Y-54327906D03*
X137280142Y-53677906D03*
X106380142Y-53677906D03*
X106380142Y-54327906D03*
X106380142Y-54977906D03*
X106380142Y-55627906D03*
X106380142Y-56277906D03*
X106380142Y-56927906D03*
X106380142Y-57577906D03*
X106380142Y-58227906D03*
X112280142Y-58227906D03*
X112280142Y-57577906D03*
X112280142Y-56927906D03*
X112280142Y-56277906D03*
X112280142Y-55627906D03*
X112280142Y-54977906D03*
X112280142Y-54327906D03*
X112280142Y-53677906D03*
D22*
X105778000Y-118152906D03*
X105778000Y-120352906D03*
D19*
X117348000Y-100226000D03*
X115148000Y-100226000D03*
X117348000Y-97026000D03*
X115148000Y-97026000D03*
X142348000Y-97026000D03*
X140148000Y-97026000D03*
X157828000Y-96952906D03*
X160028000Y-96952906D03*
X157828000Y-100052906D03*
X160028000Y-100052906D03*
X182878000Y-97002906D03*
X185078000Y-97002906D03*
X182828000Y-100002906D03*
X185028000Y-100002906D03*
X179410142Y-75279812D03*
X181610142Y-75279812D03*
X179410142Y-78479812D03*
X181610142Y-78479812D03*
X154410142Y-75279812D03*
X156610142Y-75279812D03*
X154410142Y-78479812D03*
X156610142Y-78479812D03*
X138878000Y-78452906D03*
X136678000Y-78452906D03*
X138878000Y-75452906D03*
X136678000Y-75452906D03*
X113878000Y-78502906D03*
X111678000Y-78502906D03*
X113878000Y-75452906D03*
X111678000Y-75452906D03*
M02*
