G04 #@! TF.GenerationSoftware,KiCad,Pcbnew,(5.0.0-rc2-dev-206-ge4d512a29)*
G04 #@! TF.CreationDate,2018-03-29T18:07:49+02:00*
G04 #@! TF.ProjectId,Koczon,4B6F637A6F6E2E6B696361645F706362,1*
G04 #@! TF.SameCoordinates,Original*
G04 #@! TF.FileFunction,Soldermask,Top*
G04 #@! TF.FilePolarity,Negative*
%FSLAX46Y46*%
G04 Gerber Fmt 4.6, Leading zero omitted, Abs format (unit mm)*
G04 Created by KiCad (PCBNEW (5.0.0-rc2-dev-206-ge4d512a29)) date 03/29/18 18:07:49*
%MOMM*%
%LPD*%
G01*
G04 APERTURE LIST*
%ADD10C,0.150000*%
%ADD11C,3.000000*%
%ADD12R,3.000000X3.000000*%
%ADD13R,0.750000X1.200000*%
%ADD14R,1.700000X1.700000*%
%ADD15O,1.700000X1.700000*%
%ADD16R,0.300000X1.450000*%
%ADD17O,1.800000X1.800000*%
%ADD18R,1.800000X1.800000*%
%ADD19R,0.600000X1.100000*%
%ADD20R,0.900000X1.200000*%
%ADD21R,1.200000X0.750000*%
%ADD22R,1.200000X0.900000*%
%ADD23R,0.400000X1.500000*%
G04 APERTURE END LIST*
D10*
G36*
X183878000Y-84752906D02*
X185878000Y-84752906D01*
X185878000Y-82752906D01*
X183878000Y-82752906D01*
X183878000Y-84752906D01*
G37*
X183878000Y-84752906D02*
X185878000Y-84752906D01*
X185878000Y-82752906D01*
X183878000Y-82752906D01*
X183878000Y-84752906D01*
G36*
X195808000Y-57379812D02*
X192258000Y-57329812D01*
X190658000Y-55929812D01*
X182708000Y-55879812D01*
X179708000Y-52829812D01*
X179708000Y-50379812D01*
X181508000Y-50429812D01*
X181508000Y-51279812D01*
X183708000Y-53479812D01*
X195808000Y-53479812D01*
X195808000Y-57379812D01*
G37*
X195808000Y-57379812D02*
X192258000Y-57329812D01*
X190658000Y-55929812D01*
X182708000Y-55879812D01*
X179708000Y-52829812D01*
X179708000Y-50379812D01*
X181508000Y-50429812D01*
X181508000Y-51279812D01*
X183708000Y-53479812D01*
X195808000Y-53479812D01*
X195808000Y-57379812D01*
G36*
X170878000Y-57402906D02*
X167328000Y-57352906D01*
X165728000Y-55952906D01*
X157778000Y-55902906D01*
X154778000Y-52852906D01*
X154778000Y-50402906D01*
X156578000Y-50452906D01*
X156578000Y-51302906D01*
X158778000Y-53502906D01*
X170878000Y-53502906D01*
X170878000Y-57402906D01*
G37*
X170878000Y-57402906D02*
X167328000Y-57352906D01*
X165728000Y-55952906D01*
X157778000Y-55902906D01*
X154778000Y-52852906D01*
X154778000Y-50402906D01*
X156578000Y-50452906D01*
X156578000Y-51302906D01*
X158778000Y-53502906D01*
X170878000Y-53502906D01*
X170878000Y-57402906D01*
G36*
X145878000Y-57402906D02*
X142328000Y-57352906D01*
X140728000Y-55952906D01*
X132778000Y-55902906D01*
X129778000Y-52852906D01*
X129778000Y-50402906D01*
X131578000Y-50452906D01*
X131578000Y-51302906D01*
X133778000Y-53502906D01*
X145878000Y-53502906D01*
X145878000Y-57402906D01*
G37*
X145878000Y-57402906D02*
X142328000Y-57352906D01*
X140728000Y-55952906D01*
X132778000Y-55902906D01*
X129778000Y-52852906D01*
X129778000Y-50402906D01*
X131578000Y-50452906D01*
X131578000Y-51302906D01*
X133778000Y-53502906D01*
X145878000Y-53502906D01*
X145878000Y-57402906D01*
G36*
X120928000Y-57402906D02*
X117378000Y-57352906D01*
X115778000Y-55952906D01*
X107828000Y-55902906D01*
X104828000Y-52852906D01*
X104828000Y-50402906D01*
X106628000Y-50452906D01*
X106628000Y-51302906D01*
X108828000Y-53502906D01*
X120928000Y-53502906D01*
X120928000Y-57402906D01*
G37*
X120928000Y-57402906D02*
X117378000Y-57352906D01*
X115778000Y-55952906D01*
X107828000Y-55902906D01*
X104828000Y-52852906D01*
X104828000Y-50402906D01*
X106628000Y-50452906D01*
X106628000Y-51302906D01*
X108828000Y-53502906D01*
X120928000Y-53502906D01*
X120928000Y-57402906D01*
G36*
X175828000Y-118102906D02*
X179378000Y-118152906D01*
X180978000Y-119552906D01*
X188928000Y-119602906D01*
X191928000Y-122652906D01*
X191928000Y-125102906D01*
X190128000Y-125052906D01*
X190128000Y-124202906D01*
X187928000Y-122002906D01*
X175828000Y-122002906D01*
X175828000Y-118102906D01*
G37*
X175828000Y-118102906D02*
X179378000Y-118152906D01*
X180978000Y-119552906D01*
X188928000Y-119602906D01*
X191928000Y-122652906D01*
X191928000Y-125102906D01*
X190128000Y-125052906D01*
X190128000Y-124202906D01*
X187928000Y-122002906D01*
X175828000Y-122002906D01*
X175828000Y-118102906D01*
G36*
X150878000Y-118102906D02*
X154428000Y-118152906D01*
X156028000Y-119552906D01*
X163978000Y-119602906D01*
X166978000Y-122652906D01*
X166978000Y-125102906D01*
X165178000Y-125052906D01*
X165178000Y-124202906D01*
X162978000Y-122002906D01*
X150878000Y-122002906D01*
X150878000Y-118102906D01*
G37*
X150878000Y-118102906D02*
X154428000Y-118152906D01*
X156028000Y-119552906D01*
X163978000Y-119602906D01*
X166978000Y-122652906D01*
X166978000Y-125102906D01*
X165178000Y-125052906D01*
X165178000Y-124202906D01*
X162978000Y-122002906D01*
X150878000Y-122002906D01*
X150878000Y-118102906D01*
G36*
X125878000Y-118102906D02*
X129428000Y-118152906D01*
X131028000Y-119552906D01*
X138978000Y-119602906D01*
X141978000Y-122652906D01*
X141978000Y-125102906D01*
X140178000Y-125052906D01*
X140178000Y-124202906D01*
X137978000Y-122002906D01*
X125878000Y-122002906D01*
X125878000Y-118102906D01*
G37*
X125878000Y-118102906D02*
X129428000Y-118152906D01*
X131028000Y-119552906D01*
X138978000Y-119602906D01*
X141978000Y-122652906D01*
X141978000Y-125102906D01*
X140178000Y-125052906D01*
X140178000Y-124202906D01*
X137978000Y-122002906D01*
X125878000Y-122002906D01*
X125878000Y-118102906D01*
G36*
X100948000Y-118126000D02*
X104498000Y-118176000D01*
X106098000Y-119576000D01*
X114048000Y-119626000D01*
X117048000Y-122676000D01*
X117048000Y-125126000D01*
X115248000Y-125076000D01*
X115248000Y-124226000D01*
X113048000Y-122026000D01*
X100948000Y-122026000D01*
X100948000Y-118126000D01*
G37*
X100948000Y-118126000D02*
X104498000Y-118176000D01*
X106098000Y-119576000D01*
X114048000Y-119626000D01*
X117048000Y-122676000D01*
X117048000Y-125126000D01*
X115248000Y-125076000D01*
X115248000Y-124226000D01*
X113048000Y-122026000D01*
X100948000Y-122026000D01*
X100948000Y-118126000D01*
D11*
X102478000Y-109712906D03*
D12*
X102478000Y-124952906D03*
D11*
X102478000Y-114792906D03*
X102478000Y-119872906D03*
D13*
X116948000Y-115076000D03*
X116948000Y-113176000D03*
D14*
X104448000Y-83926000D03*
D15*
X104448000Y-86466000D03*
X104448000Y-89006000D03*
X104448000Y-91546000D03*
D14*
X192448000Y-91526000D03*
D15*
X192448000Y-88986000D03*
X192448000Y-86446000D03*
X192448000Y-83906000D03*
D13*
X103978000Y-105952906D03*
X103978000Y-104052906D03*
D11*
X127478000Y-109712906D03*
D12*
X127478000Y-124952906D03*
D11*
X127478000Y-114792906D03*
X127478000Y-119872906D03*
D16*
X112778000Y-115752906D03*
X112278000Y-115752906D03*
X111778000Y-115752906D03*
X111278000Y-115752906D03*
X110778000Y-115752906D03*
X110778000Y-111352906D03*
X111278000Y-111352906D03*
X111778000Y-111352906D03*
X112278000Y-111352906D03*
X112778000Y-111352906D03*
D17*
X113598000Y-125052906D03*
X116138000Y-125052906D03*
D18*
X118678000Y-125052906D03*
D19*
X143448000Y-101052906D03*
X144398000Y-101052906D03*
X145348000Y-101052906D03*
X145348000Y-103752906D03*
X144398000Y-103752906D03*
X143448000Y-103752906D03*
D16*
X107848000Y-106176000D03*
X107348000Y-106176000D03*
X106848000Y-106176000D03*
X106348000Y-106176000D03*
X105848000Y-106176000D03*
X105848000Y-101776000D03*
X106348000Y-101776000D03*
X106848000Y-101776000D03*
X107348000Y-101776000D03*
X107848000Y-101776000D03*
D13*
X121648000Y-103776000D03*
X121648000Y-105676000D03*
X121448000Y-112926000D03*
X121448000Y-114826000D03*
X108978000Y-113702906D03*
X108978000Y-115602906D03*
X116948000Y-101826000D03*
X116948000Y-103726000D03*
D20*
X119848000Y-117126000D03*
X119848000Y-119326000D03*
D21*
X116778000Y-117102906D03*
X114878000Y-117102906D03*
D13*
X146648000Y-103776000D03*
X146648000Y-105676000D03*
X146448000Y-112926000D03*
X146448000Y-114826000D03*
X133978000Y-113702906D03*
X133978000Y-115602906D03*
X141948000Y-101826000D03*
X141948000Y-103726000D03*
X141948000Y-115076000D03*
X141948000Y-113176000D03*
X128978000Y-105952906D03*
X128978000Y-104052906D03*
D21*
X141778000Y-117102906D03*
X139878000Y-117102906D03*
D13*
X171648000Y-103776000D03*
X171648000Y-105676000D03*
X171448000Y-112926000D03*
X171448000Y-114826000D03*
X158978000Y-113702906D03*
X158978000Y-115602906D03*
X166948000Y-101826000D03*
X166948000Y-103726000D03*
X166948000Y-115076000D03*
X166948000Y-113176000D03*
X153978000Y-105952906D03*
X153978000Y-104052906D03*
D21*
X166778000Y-117102906D03*
X164878000Y-117102906D03*
D13*
X196648000Y-103776000D03*
X196648000Y-105676000D03*
X196448000Y-112926000D03*
X196448000Y-114826000D03*
X183978000Y-113702906D03*
X183978000Y-115602906D03*
X191948000Y-101826000D03*
X191948000Y-103726000D03*
X191948000Y-115076000D03*
X191948000Y-113176000D03*
X178978000Y-105952906D03*
X178978000Y-104052906D03*
D21*
X191778000Y-117102906D03*
X189878000Y-117102906D03*
D13*
X175110142Y-71729812D03*
X175110142Y-69829812D03*
X175310142Y-62579812D03*
X175310142Y-60679812D03*
X187780142Y-61802906D03*
X187780142Y-59902906D03*
X179810142Y-73679812D03*
X179810142Y-71779812D03*
X179810142Y-60429812D03*
X179810142Y-62329812D03*
X192780142Y-69552906D03*
X192780142Y-71452906D03*
D21*
X179980142Y-58402906D03*
X181880142Y-58402906D03*
D13*
X150110142Y-71729812D03*
X150110142Y-69829812D03*
X150310142Y-62579812D03*
X150310142Y-60679812D03*
X162780142Y-61802906D03*
X162780142Y-59902906D03*
X154810142Y-73679812D03*
X154810142Y-71779812D03*
X154810142Y-60429812D03*
X154810142Y-62329812D03*
X167780142Y-69552906D03*
X167780142Y-71452906D03*
D21*
X154980142Y-58402906D03*
X156880142Y-58402906D03*
D13*
X125110142Y-71729812D03*
X125110142Y-69829812D03*
X125310142Y-62579812D03*
X125310142Y-60679812D03*
X137780142Y-61802906D03*
X137780142Y-59902906D03*
X129810142Y-73679812D03*
X129810142Y-71779812D03*
X129810142Y-60429812D03*
X129810142Y-62329812D03*
X142780142Y-69552906D03*
X142780142Y-71452906D03*
D21*
X129980142Y-58402906D03*
X131880142Y-58402906D03*
D13*
X100110142Y-71729812D03*
X100110142Y-69829812D03*
X100310142Y-62579812D03*
X100310142Y-60679812D03*
X112780142Y-61802906D03*
X112780142Y-59902906D03*
X104810142Y-73679812D03*
X104810142Y-71779812D03*
X104810142Y-60429812D03*
X104810142Y-62329812D03*
X117780142Y-69552906D03*
X117780142Y-71452906D03*
D21*
X104980142Y-58402906D03*
X106880142Y-58402906D03*
D19*
X118448000Y-101052906D03*
X119398000Y-101052906D03*
X120348000Y-101052906D03*
X120348000Y-103752906D03*
X119398000Y-103752906D03*
X118448000Y-103752906D03*
X168448000Y-101052906D03*
X169398000Y-101052906D03*
X170348000Y-101052906D03*
X170348000Y-103752906D03*
X169398000Y-103752906D03*
X168448000Y-103752906D03*
X193448000Y-101052906D03*
X194398000Y-101052906D03*
X195348000Y-101052906D03*
X195348000Y-103752906D03*
X194398000Y-103752906D03*
X193448000Y-103752906D03*
X178310142Y-74452906D03*
X177360142Y-74452906D03*
X176410142Y-74452906D03*
X176410142Y-71752906D03*
X177360142Y-71752906D03*
X178310142Y-71752906D03*
X153310142Y-74452906D03*
X152360142Y-74452906D03*
X151410142Y-74452906D03*
X151410142Y-71752906D03*
X152360142Y-71752906D03*
X153310142Y-71752906D03*
X128310142Y-74452906D03*
X127360142Y-74452906D03*
X126410142Y-74452906D03*
X126410142Y-71752906D03*
X127360142Y-71752906D03*
X128310142Y-71752906D03*
X103310142Y-74452906D03*
X102360142Y-74452906D03*
X101410142Y-74452906D03*
X101410142Y-71752906D03*
X102360142Y-71752906D03*
X103310142Y-71752906D03*
D16*
X132848000Y-106176000D03*
X132348000Y-106176000D03*
X131848000Y-106176000D03*
X131348000Y-106176000D03*
X130848000Y-106176000D03*
X130848000Y-101776000D03*
X131348000Y-101776000D03*
X131848000Y-101776000D03*
X132348000Y-101776000D03*
X132848000Y-101776000D03*
X137778000Y-115752906D03*
X137278000Y-115752906D03*
X136778000Y-115752906D03*
X136278000Y-115752906D03*
X135778000Y-115752906D03*
X135778000Y-111352906D03*
X136278000Y-111352906D03*
X136778000Y-111352906D03*
X137278000Y-111352906D03*
X137778000Y-111352906D03*
X157848000Y-106176000D03*
X157348000Y-106176000D03*
X156848000Y-106176000D03*
X156348000Y-106176000D03*
X155848000Y-106176000D03*
X155848000Y-101776000D03*
X156348000Y-101776000D03*
X156848000Y-101776000D03*
X157348000Y-101776000D03*
X157848000Y-101776000D03*
X162778000Y-115752906D03*
X162278000Y-115752906D03*
X161778000Y-115752906D03*
X161278000Y-115752906D03*
X160778000Y-115752906D03*
X160778000Y-111352906D03*
X161278000Y-111352906D03*
X161778000Y-111352906D03*
X162278000Y-111352906D03*
X162778000Y-111352906D03*
X182848000Y-106176000D03*
X182348000Y-106176000D03*
X181848000Y-106176000D03*
X181348000Y-106176000D03*
X180848000Y-106176000D03*
X180848000Y-101776000D03*
X181348000Y-101776000D03*
X181848000Y-101776000D03*
X182348000Y-101776000D03*
X182848000Y-101776000D03*
X187778000Y-115752906D03*
X187278000Y-115752906D03*
X186778000Y-115752906D03*
X186278000Y-115752906D03*
X185778000Y-115752906D03*
X185778000Y-111352906D03*
X186278000Y-111352906D03*
X186778000Y-111352906D03*
X187278000Y-111352906D03*
X187778000Y-111352906D03*
X188910142Y-69329812D03*
X189410142Y-69329812D03*
X189910142Y-69329812D03*
X190410142Y-69329812D03*
X190910142Y-69329812D03*
X190910142Y-73729812D03*
X190410142Y-73729812D03*
X189910142Y-73729812D03*
X189410142Y-73729812D03*
X188910142Y-73729812D03*
X183980142Y-59752906D03*
X184480142Y-59752906D03*
X184980142Y-59752906D03*
X185480142Y-59752906D03*
X185980142Y-59752906D03*
X185980142Y-64152906D03*
X185480142Y-64152906D03*
X184980142Y-64152906D03*
X184480142Y-64152906D03*
X183980142Y-64152906D03*
X163910142Y-69329812D03*
X164410142Y-69329812D03*
X164910142Y-69329812D03*
X165410142Y-69329812D03*
X165910142Y-69329812D03*
X165910142Y-73729812D03*
X165410142Y-73729812D03*
X164910142Y-73729812D03*
X164410142Y-73729812D03*
X163910142Y-73729812D03*
X158980142Y-59752906D03*
X159480142Y-59752906D03*
X159980142Y-59752906D03*
X160480142Y-59752906D03*
X160980142Y-59752906D03*
X160980142Y-64152906D03*
X160480142Y-64152906D03*
X159980142Y-64152906D03*
X159480142Y-64152906D03*
X158980142Y-64152906D03*
X138910142Y-69329812D03*
X139410142Y-69329812D03*
X139910142Y-69329812D03*
X140410142Y-69329812D03*
X140910142Y-69329812D03*
X140910142Y-73729812D03*
X140410142Y-73729812D03*
X139910142Y-73729812D03*
X139410142Y-73729812D03*
X138910142Y-73729812D03*
X133980142Y-59752906D03*
X134480142Y-59752906D03*
X134980142Y-59752906D03*
X135480142Y-59752906D03*
X135980142Y-59752906D03*
X135980142Y-64152906D03*
X135480142Y-64152906D03*
X134980142Y-64152906D03*
X134480142Y-64152906D03*
X133980142Y-64152906D03*
X113910142Y-69329812D03*
X114410142Y-69329812D03*
X114910142Y-69329812D03*
X115410142Y-69329812D03*
X115910142Y-69329812D03*
X115910142Y-73729812D03*
X115410142Y-73729812D03*
X114910142Y-73729812D03*
X114410142Y-73729812D03*
X113910142Y-73729812D03*
X108980142Y-59752906D03*
X109480142Y-59752906D03*
X109980142Y-59752906D03*
X110480142Y-59752906D03*
X110980142Y-59752906D03*
X110980142Y-64152906D03*
X110480142Y-64152906D03*
X109980142Y-64152906D03*
X109480142Y-64152906D03*
X108980142Y-64152906D03*
D11*
X152478000Y-109712906D03*
D12*
X152478000Y-124952906D03*
D11*
X152478000Y-114792906D03*
X152478000Y-119872906D03*
X177478000Y-109712906D03*
D12*
X177478000Y-124952906D03*
D11*
X177478000Y-114792906D03*
X177478000Y-119872906D03*
X194280142Y-65792906D03*
D12*
X194280142Y-50552906D03*
D11*
X194280142Y-60712906D03*
X194280142Y-55632906D03*
X169280142Y-65792906D03*
D12*
X169280142Y-50552906D03*
D11*
X169280142Y-60712906D03*
X169280142Y-55632906D03*
X144280142Y-65792906D03*
D12*
X144280142Y-50552906D03*
D11*
X144280142Y-60712906D03*
X144280142Y-55632906D03*
X119280142Y-65792906D03*
D12*
X119280142Y-50552906D03*
D11*
X119280142Y-60712906D03*
X119280142Y-55632906D03*
D17*
X138598000Y-125052906D03*
X141138000Y-125052906D03*
D18*
X143678000Y-125052906D03*
D17*
X163598000Y-125052906D03*
X166138000Y-125052906D03*
D18*
X168678000Y-125052906D03*
D17*
X188598000Y-125052906D03*
X191138000Y-125052906D03*
D18*
X193678000Y-125052906D03*
D17*
X183160142Y-50452906D03*
X180620142Y-50452906D03*
D18*
X178080142Y-50452906D03*
D17*
X158160142Y-50452906D03*
X155620142Y-50452906D03*
D18*
X153080142Y-50452906D03*
D17*
X133160142Y-50452906D03*
X130620142Y-50452906D03*
D18*
X128080142Y-50452906D03*
D17*
X108160142Y-50452906D03*
X105620142Y-50452906D03*
D18*
X103080142Y-50452906D03*
D20*
X141948000Y-111352906D03*
X141948000Y-109152906D03*
X144848000Y-117126000D03*
X144848000Y-119326000D03*
D22*
X134578000Y-125052906D03*
X132378000Y-125052906D03*
D20*
X166948000Y-111352906D03*
X166948000Y-109152906D03*
X169848000Y-117126000D03*
X169848000Y-119326000D03*
D22*
X159578000Y-125052906D03*
X157378000Y-125052906D03*
D20*
X191948000Y-111352906D03*
X191948000Y-109152906D03*
X194848000Y-117126000D03*
X194848000Y-119326000D03*
D22*
X184578000Y-125052906D03*
X182378000Y-125052906D03*
D20*
X179810142Y-64152906D03*
X179810142Y-66352906D03*
X176910142Y-58379812D03*
X176910142Y-56179812D03*
D22*
X187180142Y-50452906D03*
X189380142Y-50452906D03*
D20*
X154810142Y-64152906D03*
X154810142Y-66352906D03*
X151910142Y-58379812D03*
X151910142Y-56179812D03*
D22*
X162180142Y-50452906D03*
X164380142Y-50452906D03*
D20*
X129810142Y-64152906D03*
X129810142Y-66352906D03*
X126910142Y-58379812D03*
X126910142Y-56179812D03*
D22*
X137180142Y-50452906D03*
X139380142Y-50452906D03*
D20*
X104810142Y-64152906D03*
X104810142Y-66352906D03*
X101910142Y-58379812D03*
X101910142Y-56179812D03*
D22*
X112180142Y-50452906D03*
X114380142Y-50452906D03*
D23*
X144698000Y-114856000D03*
X143398000Y-114856000D03*
X143398000Y-112196000D03*
X144048000Y-112196000D03*
X144698000Y-112196000D03*
X169698000Y-114856000D03*
X168398000Y-114856000D03*
X168398000Y-112196000D03*
X169048000Y-112196000D03*
X169698000Y-112196000D03*
X194698000Y-114856000D03*
X193398000Y-114856000D03*
X193398000Y-112196000D03*
X194048000Y-112196000D03*
X194698000Y-112196000D03*
X177060142Y-60649812D03*
X178360142Y-60649812D03*
X178360142Y-63309812D03*
X177710142Y-63309812D03*
X177060142Y-63309812D03*
X152060142Y-60649812D03*
X153360142Y-60649812D03*
X153360142Y-63309812D03*
X152710142Y-63309812D03*
X152060142Y-63309812D03*
X127060142Y-60649812D03*
X128360142Y-60649812D03*
X128360142Y-63309812D03*
X127710142Y-63309812D03*
X127060142Y-63309812D03*
X102060142Y-60649812D03*
X103360142Y-60649812D03*
X103360142Y-63309812D03*
X102710142Y-63309812D03*
X102060142Y-63309812D03*
D20*
X116948000Y-111352906D03*
X116948000Y-109152906D03*
D22*
X109578000Y-125052906D03*
X107378000Y-125052906D03*
D23*
X119698000Y-114856000D03*
X118398000Y-114856000D03*
X118398000Y-112196000D03*
X119048000Y-112196000D03*
X119698000Y-112196000D03*
D20*
X115448000Y-111326000D03*
X115448000Y-109126000D03*
X140448000Y-111326000D03*
X140448000Y-109126000D03*
X165448000Y-111326000D03*
X165448000Y-109126000D03*
X190448000Y-111326000D03*
X190448000Y-109126000D03*
X181310142Y-64179812D03*
X181310142Y-66379812D03*
X156310142Y-64179812D03*
X156310142Y-66379812D03*
X131310142Y-64179812D03*
X131310142Y-66379812D03*
X106310142Y-64179812D03*
X106310142Y-66379812D03*
M02*
