G04 #@! TF.GenerationSoftware,KiCad,Pcbnew,(5.0.0-rc2-dev-206-ge4d512a29)*
G04 #@! TF.CreationDate,2018-03-29T18:07:49+02:00*
G04 #@! TF.ProjectId,Koczon,4B6F637A6F6E2E6B696361645F706362,1*
G04 #@! TF.SameCoordinates,Original*
G04 #@! TF.FileFunction,Paste,Bot*
G04 #@! TF.FilePolarity,Positive*
%FSLAX46Y46*%
G04 Gerber Fmt 4.6, Leading zero omitted, Abs format (unit mm)*
G04 Created by KiCad (PCBNEW (5.0.0-rc2-dev-206-ge4d512a29)) date 03/29/18 18:07:49*
%MOMM*%
%LPD*%
G01*
G04 APERTURE LIST*
%ADD10R,0.970000X1.270000*%
%ADD11R,2.000000X1.700000*%
%ADD12R,0.450000X1.750000*%
%ADD13R,0.750000X1.200000*%
%ADD14R,1.200000X0.900000*%
%ADD15R,0.900000X1.200000*%
%ADD16R,1.500000X0.450000*%
G04 APERTURE END LIST*
D10*
X139608000Y-91102906D03*
X140878000Y-91102906D03*
X142148000Y-91102906D03*
X142148000Y-84052906D03*
X140878000Y-84052906D03*
X139608000Y-84052906D03*
X139608000Y-93552906D03*
X140878000Y-93552906D03*
X142148000Y-93552906D03*
D11*
X141210142Y-65779812D03*
X137210142Y-65779812D03*
X162210142Y-65779812D03*
X166210142Y-65779812D03*
X116210142Y-65779812D03*
X112210142Y-65779812D03*
X187210142Y-65779812D03*
X191210142Y-65779812D03*
X180548000Y-109726000D03*
X184548000Y-109726000D03*
X109548000Y-109726000D03*
X105548000Y-109726000D03*
X155548000Y-109726000D03*
X159548000Y-109726000D03*
X134548000Y-109726000D03*
X130548000Y-109726000D03*
D12*
X151953000Y-84052906D03*
X151303000Y-84052906D03*
X150653000Y-84052906D03*
X150003000Y-84052906D03*
X149353000Y-84052906D03*
X148703000Y-84052906D03*
X148053000Y-84052906D03*
X147403000Y-84052906D03*
X146753000Y-84052906D03*
X146103000Y-84052906D03*
X145453000Y-84052906D03*
X144803000Y-84052906D03*
X144803000Y-91252906D03*
X145453000Y-91252906D03*
X146103000Y-91252906D03*
X146753000Y-91252906D03*
X147403000Y-91252906D03*
X148053000Y-91252906D03*
X148703000Y-91252906D03*
X149353000Y-91252906D03*
X150003000Y-91252906D03*
X150653000Y-91252906D03*
X151303000Y-91252906D03*
X151953000Y-91252906D03*
D13*
X153648000Y-86076000D03*
X153648000Y-84176000D03*
D14*
X165748000Y-85726000D03*
X167948000Y-85726000D03*
X165848000Y-89226000D03*
X168048000Y-89226000D03*
X153848000Y-92926000D03*
X156048000Y-92926000D03*
X142348000Y-100226000D03*
X140148000Y-100226000D03*
D13*
X117678000Y-116802906D03*
X117678000Y-118702906D03*
X107278000Y-118702906D03*
X107278000Y-116802906D03*
D15*
X119078000Y-120352906D03*
X119078000Y-118152906D03*
D13*
X142678000Y-116802906D03*
X142678000Y-118702906D03*
X132278000Y-118702906D03*
X132278000Y-116802906D03*
X167678000Y-116802906D03*
X167678000Y-118702906D03*
X157278000Y-118702906D03*
X157278000Y-116802906D03*
X192678000Y-116802906D03*
X192678000Y-118702906D03*
X182278000Y-118702906D03*
X182278000Y-116802906D03*
X179080142Y-58702906D03*
X179080142Y-56802906D03*
X189480142Y-56802906D03*
X189480142Y-58702906D03*
X154080142Y-58702906D03*
X154080142Y-56802906D03*
X164480142Y-56802906D03*
X164480142Y-58702906D03*
X129080142Y-58702906D03*
X129080142Y-56802906D03*
X139480142Y-56802906D03*
X139480142Y-58702906D03*
X104080142Y-58702906D03*
X104080142Y-56802906D03*
X114480142Y-56802906D03*
X114480142Y-58702906D03*
D15*
X144078000Y-120352906D03*
X144078000Y-118152906D03*
X130778000Y-118152906D03*
X130778000Y-120352906D03*
X169078000Y-120352906D03*
X169078000Y-118152906D03*
X155778000Y-118152906D03*
X155778000Y-120352906D03*
X194078000Y-120352906D03*
X194078000Y-118152906D03*
X180778000Y-118152906D03*
X180778000Y-120352906D03*
X177680142Y-55152906D03*
X177680142Y-57352906D03*
X190980142Y-57352906D03*
X190980142Y-55152906D03*
X152680142Y-55152906D03*
X152680142Y-57352906D03*
X165980142Y-57352906D03*
X165980142Y-55152906D03*
X127680142Y-55152906D03*
X127680142Y-57352906D03*
X140980142Y-57352906D03*
X140980142Y-55152906D03*
X102680142Y-55152906D03*
X102680142Y-57352906D03*
X115980142Y-57352906D03*
X115980142Y-55152906D03*
D16*
X115378000Y-121827906D03*
X115378000Y-121177906D03*
X115378000Y-120527906D03*
X115378000Y-119877906D03*
X115378000Y-119227906D03*
X115378000Y-118577906D03*
X115378000Y-117927906D03*
X115378000Y-117277906D03*
X109478000Y-117277906D03*
X109478000Y-117927906D03*
X109478000Y-118577906D03*
X109478000Y-119227906D03*
X109478000Y-119877906D03*
X109478000Y-120527906D03*
X109478000Y-121177906D03*
X109478000Y-121827906D03*
X140378000Y-121827906D03*
X140378000Y-121177906D03*
X140378000Y-120527906D03*
X140378000Y-119877906D03*
X140378000Y-119227906D03*
X140378000Y-118577906D03*
X140378000Y-117927906D03*
X140378000Y-117277906D03*
X134478000Y-117277906D03*
X134478000Y-117927906D03*
X134478000Y-118577906D03*
X134478000Y-119227906D03*
X134478000Y-119877906D03*
X134478000Y-120527906D03*
X134478000Y-121177906D03*
X134478000Y-121827906D03*
X165378000Y-121827906D03*
X165378000Y-121177906D03*
X165378000Y-120527906D03*
X165378000Y-119877906D03*
X165378000Y-119227906D03*
X165378000Y-118577906D03*
X165378000Y-117927906D03*
X165378000Y-117277906D03*
X159478000Y-117277906D03*
X159478000Y-117927906D03*
X159478000Y-118577906D03*
X159478000Y-119227906D03*
X159478000Y-119877906D03*
X159478000Y-120527906D03*
X159478000Y-121177906D03*
X159478000Y-121827906D03*
X190378000Y-121827906D03*
X190378000Y-121177906D03*
X190378000Y-120527906D03*
X190378000Y-119877906D03*
X190378000Y-119227906D03*
X190378000Y-118577906D03*
X190378000Y-117927906D03*
X190378000Y-117277906D03*
X184478000Y-117277906D03*
X184478000Y-117927906D03*
X184478000Y-118577906D03*
X184478000Y-119227906D03*
X184478000Y-119877906D03*
X184478000Y-120527906D03*
X184478000Y-121177906D03*
X184478000Y-121827906D03*
X181380142Y-53677906D03*
X181380142Y-54327906D03*
X181380142Y-54977906D03*
X181380142Y-55627906D03*
X181380142Y-56277906D03*
X181380142Y-56927906D03*
X181380142Y-57577906D03*
X181380142Y-58227906D03*
X187280142Y-58227906D03*
X187280142Y-57577906D03*
X187280142Y-56927906D03*
X187280142Y-56277906D03*
X187280142Y-55627906D03*
X187280142Y-54977906D03*
X187280142Y-54327906D03*
X187280142Y-53677906D03*
X156380142Y-53677906D03*
X156380142Y-54327906D03*
X156380142Y-54977906D03*
X156380142Y-55627906D03*
X156380142Y-56277906D03*
X156380142Y-56927906D03*
X156380142Y-57577906D03*
X156380142Y-58227906D03*
X162280142Y-58227906D03*
X162280142Y-57577906D03*
X162280142Y-56927906D03*
X162280142Y-56277906D03*
X162280142Y-55627906D03*
X162280142Y-54977906D03*
X162280142Y-54327906D03*
X162280142Y-53677906D03*
X131380142Y-53677906D03*
X131380142Y-54327906D03*
X131380142Y-54977906D03*
X131380142Y-55627906D03*
X131380142Y-56277906D03*
X131380142Y-56927906D03*
X131380142Y-57577906D03*
X131380142Y-58227906D03*
X137280142Y-58227906D03*
X137280142Y-57577906D03*
X137280142Y-56927906D03*
X137280142Y-56277906D03*
X137280142Y-55627906D03*
X137280142Y-54977906D03*
X137280142Y-54327906D03*
X137280142Y-53677906D03*
X106380142Y-53677906D03*
X106380142Y-54327906D03*
X106380142Y-54977906D03*
X106380142Y-55627906D03*
X106380142Y-56277906D03*
X106380142Y-56927906D03*
X106380142Y-57577906D03*
X106380142Y-58227906D03*
X112280142Y-58227906D03*
X112280142Y-57577906D03*
X112280142Y-56927906D03*
X112280142Y-56277906D03*
X112280142Y-55627906D03*
X112280142Y-54977906D03*
X112280142Y-54327906D03*
X112280142Y-53677906D03*
D15*
X105778000Y-118152906D03*
X105778000Y-120352906D03*
D14*
X117348000Y-100226000D03*
X115148000Y-100226000D03*
X117348000Y-97026000D03*
X115148000Y-97026000D03*
X142348000Y-97026000D03*
X140148000Y-97026000D03*
X157828000Y-96952906D03*
X160028000Y-96952906D03*
X157828000Y-100052906D03*
X160028000Y-100052906D03*
X182878000Y-97002906D03*
X185078000Y-97002906D03*
X182828000Y-100002906D03*
X185028000Y-100002906D03*
X179410142Y-75279812D03*
X181610142Y-75279812D03*
X179410142Y-78479812D03*
X181610142Y-78479812D03*
X154410142Y-75279812D03*
X156610142Y-75279812D03*
X154410142Y-78479812D03*
X156610142Y-78479812D03*
X138878000Y-78452906D03*
X136678000Y-78452906D03*
X138878000Y-75452906D03*
X136678000Y-75452906D03*
X113878000Y-78502906D03*
X111678000Y-78502906D03*
X113878000Y-75452906D03*
X111678000Y-75452906D03*
M02*
