G04 #@! TF.GenerationSoftware,KiCad,Pcbnew,(5.0.0-rc2-dev-206-ge4d512a29)*
G04 #@! TF.CreationDate,2018-03-29T18:07:49+02:00*
G04 #@! TF.ProjectId,Koczon,4B6F637A6F6E2E6B696361645F706362,1*
G04 #@! TF.SameCoordinates,Original*
G04 #@! TF.FileFunction,Legend,Top*
G04 #@! TF.FilePolarity,Positive*
%FSLAX46Y46*%
G04 Gerber Fmt 4.6, Leading zero omitted, Abs format (unit mm)*
G04 Created by KiCad (PCBNEW (5.0.0-rc2-dev-206-ge4d512a29)) date 03/29/18 18:07:49*
%MOMM*%
%LPD*%
G01*
G04 APERTURE LIST*
%ADD10C,0.300000*%
%ADD11C,0.120000*%
%ADD12C,0.150000*%
G04 APERTURE END LIST*
D10*
X130050857Y-84206477D02*
X130550857Y-85706477D01*
X131050857Y-84206477D01*
X132193714Y-85706477D02*
X132193714Y-84920763D01*
X132122285Y-84777906D01*
X131979428Y-84706477D01*
X131693714Y-84706477D01*
X131550857Y-84777906D01*
X132193714Y-85635048D02*
X132050857Y-85706477D01*
X131693714Y-85706477D01*
X131550857Y-85635048D01*
X131479428Y-85492191D01*
X131479428Y-85349334D01*
X131550857Y-85206477D01*
X131693714Y-85135048D01*
X132050857Y-85135048D01*
X132193714Y-85063620D01*
X132908000Y-85706477D02*
X132908000Y-84706477D01*
X132908000Y-84992191D02*
X132979428Y-84849334D01*
X133050857Y-84777906D01*
X133193714Y-84706477D01*
X133336571Y-84706477D01*
X133836571Y-85706477D02*
X133836571Y-84706477D01*
X133836571Y-84206477D02*
X133765142Y-84277906D01*
X133836571Y-84349334D01*
X133908000Y-84277906D01*
X133836571Y-84206477D01*
X133836571Y-84349334D01*
X135193714Y-85706477D02*
X135193714Y-84920763D01*
X135122285Y-84777906D01*
X134979428Y-84706477D01*
X134693714Y-84706477D01*
X134550857Y-84777906D01*
X135193714Y-85635048D02*
X135050857Y-85706477D01*
X134693714Y-85706477D01*
X134550857Y-85635048D01*
X134479428Y-85492191D01*
X134479428Y-85349334D01*
X134550857Y-85206477D01*
X134693714Y-85135048D01*
X135050857Y-85135048D01*
X135193714Y-85063620D01*
X135908000Y-85706477D02*
X135908000Y-84206477D01*
X135908000Y-84777906D02*
X136050857Y-84706477D01*
X136336571Y-84706477D01*
X136479428Y-84777906D01*
X136550857Y-84849334D01*
X136622285Y-84992191D01*
X136622285Y-85420763D01*
X136550857Y-85563620D01*
X136479428Y-85635048D01*
X136336571Y-85706477D01*
X136050857Y-85706477D01*
X135908000Y-85635048D01*
X137479428Y-85706477D02*
X137336571Y-85635048D01*
X137265142Y-85492191D01*
X137265142Y-84206477D01*
X138622285Y-85635048D02*
X138479428Y-85706477D01*
X138193714Y-85706477D01*
X138050857Y-85635048D01*
X137979428Y-85492191D01*
X137979428Y-84920763D01*
X138050857Y-84777906D01*
X138193714Y-84706477D01*
X138479428Y-84706477D01*
X138622285Y-84777906D01*
X138693714Y-84920763D01*
X138693714Y-85063620D01*
X137979428Y-85206477D01*
X141193714Y-85706477D02*
X140479428Y-85706477D01*
X140479428Y-84206477D01*
X141908000Y-85706477D02*
X141765142Y-85635048D01*
X141693714Y-85563620D01*
X141622285Y-85420763D01*
X141622285Y-84992191D01*
X141693714Y-84849334D01*
X141765142Y-84777906D01*
X141908000Y-84706477D01*
X142122285Y-84706477D01*
X142265142Y-84777906D01*
X142336571Y-84849334D01*
X142408000Y-84992191D01*
X142408000Y-85420763D01*
X142336571Y-85563620D01*
X142265142Y-85635048D01*
X142122285Y-85706477D01*
X141908000Y-85706477D01*
X143693714Y-85706477D02*
X143693714Y-84920763D01*
X143622285Y-84777906D01*
X143479428Y-84706477D01*
X143193714Y-84706477D01*
X143050857Y-84777906D01*
X143693714Y-85635048D02*
X143550857Y-85706477D01*
X143193714Y-85706477D01*
X143050857Y-85635048D01*
X142979428Y-85492191D01*
X142979428Y-85349334D01*
X143050857Y-85206477D01*
X143193714Y-85135048D01*
X143550857Y-85135048D01*
X143693714Y-85063620D01*
X145050857Y-85706477D02*
X145050857Y-84206477D01*
X145050857Y-85635048D02*
X144908000Y-85706477D01*
X144622285Y-85706477D01*
X144479428Y-85635048D01*
X144408000Y-85563620D01*
X144336571Y-85420763D01*
X144336571Y-84992191D01*
X144408000Y-84849334D01*
X144479428Y-84777906D01*
X144622285Y-84706477D01*
X144908000Y-84706477D01*
X145050857Y-84777906D01*
X120550857Y-87256477D02*
X120550857Y-88756477D01*
X120550857Y-88185048D02*
X120407999Y-88256477D01*
X120122285Y-88256477D01*
X119979428Y-88185048D01*
X119907999Y-88113620D01*
X119836571Y-87970763D01*
X119836571Y-87542191D01*
X119907999Y-87399334D01*
X119979428Y-87327906D01*
X120122285Y-87256477D01*
X120407999Y-87256477D01*
X120550857Y-87327906D01*
X121836571Y-88185048D02*
X121693714Y-88256477D01*
X121407999Y-88256477D01*
X121265142Y-88185048D01*
X121193714Y-88042191D01*
X121193714Y-87470763D01*
X121265142Y-87327906D01*
X121407999Y-87256477D01*
X121693714Y-87256477D01*
X121836571Y-87327906D01*
X121907999Y-87470763D01*
X121907999Y-87613620D01*
X121193714Y-87756477D01*
X122550857Y-88256477D02*
X122550857Y-87256477D01*
X122550857Y-87542191D02*
X122622285Y-87399334D01*
X122693714Y-87327906D01*
X122836571Y-87256477D01*
X122979428Y-87256477D01*
X123479428Y-88256477D02*
X123479428Y-87256477D01*
X123479428Y-87399334D02*
X123550857Y-87327906D01*
X123693714Y-87256477D01*
X123907999Y-87256477D01*
X124050857Y-87327906D01*
X124122285Y-87470763D01*
X124122285Y-88256477D01*
X124122285Y-87470763D02*
X124193714Y-87327906D01*
X124336571Y-87256477D01*
X124550857Y-87256477D01*
X124693714Y-87327906D01*
X124765142Y-87470763D01*
X124765142Y-88256477D01*
X125479428Y-88256477D02*
X125479428Y-87256477D01*
X125479428Y-86756477D02*
X125407999Y-86827906D01*
X125479428Y-86899334D01*
X125550857Y-86827906D01*
X125479428Y-86756477D01*
X125479428Y-86899334D01*
X125979428Y-87256477D02*
X126550857Y-87256477D01*
X126193714Y-86756477D02*
X126193714Y-88042191D01*
X126265142Y-88185048D01*
X126407999Y-88256477D01*
X126550857Y-88256477D01*
X127979428Y-87542191D02*
X127907999Y-87470763D01*
X127765142Y-87399334D01*
X127622285Y-87399334D01*
X127479428Y-87470763D01*
X127407999Y-87542191D01*
X127336571Y-87685048D01*
X127336571Y-87827906D01*
X127407999Y-87970763D01*
X127479428Y-88042191D01*
X127622285Y-88113620D01*
X127765142Y-88113620D01*
X127907999Y-88042191D01*
X127979428Y-87970763D01*
X127979428Y-87399334D02*
X127979428Y-87970763D01*
X128050857Y-88042191D01*
X128122285Y-88042191D01*
X128265142Y-87970763D01*
X128336571Y-87827906D01*
X128336571Y-87470763D01*
X128193714Y-87256477D01*
X127979428Y-87113620D01*
X127693714Y-87042191D01*
X127407999Y-87113620D01*
X127193714Y-87256477D01*
X127050857Y-87470763D01*
X126979428Y-87756477D01*
X127050857Y-88042191D01*
X127193714Y-88256477D01*
X127407999Y-88399334D01*
X127693714Y-88470763D01*
X127979428Y-88399334D01*
X128193714Y-88256477D01*
X128907999Y-88185048D02*
X129050857Y-88256477D01*
X129336571Y-88256477D01*
X129479428Y-88185048D01*
X129550857Y-88042191D01*
X129550857Y-87970763D01*
X129479428Y-87827906D01*
X129336571Y-87756477D01*
X129122285Y-87756477D01*
X128979428Y-87685048D01*
X128907999Y-87542191D01*
X128907999Y-87470763D01*
X128979428Y-87327906D01*
X129122285Y-87256477D01*
X129336571Y-87256477D01*
X129479428Y-87327906D01*
X130765142Y-88185048D02*
X130622285Y-88256477D01*
X130336571Y-88256477D01*
X130193714Y-88185048D01*
X130122285Y-88042191D01*
X130122285Y-87470763D01*
X130193714Y-87327906D01*
X130336571Y-87256477D01*
X130622285Y-87256477D01*
X130765142Y-87327906D01*
X130836571Y-87470763D01*
X130836571Y-87613620D01*
X130122285Y-87756477D01*
X131336571Y-87256477D02*
X132122285Y-87256477D01*
X131336571Y-88256477D01*
X132122285Y-88256477D01*
X133336571Y-88256477D02*
X133336571Y-87470763D01*
X133265142Y-87327906D01*
X133122285Y-87256477D01*
X132836571Y-87256477D01*
X132693714Y-87327906D01*
X133336571Y-88185048D02*
X133193714Y-88256477D01*
X132836571Y-88256477D01*
X132693714Y-88185048D01*
X132622285Y-88042191D01*
X132622285Y-87899334D01*
X132693714Y-87756477D01*
X132836571Y-87685048D01*
X133193714Y-87685048D01*
X133336571Y-87613620D01*
X134050857Y-88256477D02*
X134050857Y-87256477D01*
X134050857Y-87399334D02*
X134122285Y-87327906D01*
X134265142Y-87256477D01*
X134479428Y-87256477D01*
X134622285Y-87327906D01*
X134693714Y-87470763D01*
X134693714Y-88256477D01*
X134693714Y-87470763D02*
X134765142Y-87327906D01*
X134908000Y-87256477D01*
X135122285Y-87256477D01*
X135265142Y-87327906D01*
X135336571Y-87470763D01*
X135336571Y-88256477D01*
X136050857Y-88256477D02*
X136050857Y-86756477D01*
X136193714Y-87685048D02*
X136622285Y-88256477D01*
X136622285Y-87256477D02*
X136050857Y-87827906D01*
X137479428Y-88256477D02*
X137336571Y-88185048D01*
X137265142Y-88113620D01*
X137193714Y-87970763D01*
X137193714Y-87542191D01*
X137265142Y-87399334D01*
X137336571Y-87327906D01*
X137479428Y-87256477D01*
X137693714Y-87256477D01*
X137836571Y-87327906D01*
X137908000Y-87399334D01*
X137979428Y-87542191D01*
X137979428Y-87970763D01*
X137908000Y-88113620D01*
X137836571Y-88185048D01*
X137693714Y-88256477D01*
X137479428Y-88256477D01*
X138479428Y-87256477D02*
X138765142Y-88256477D01*
X139050857Y-87542191D01*
X139336571Y-88256477D01*
X139622285Y-87256477D01*
X140836571Y-88256477D02*
X140836571Y-87470763D01*
X140765142Y-87327906D01*
X140622285Y-87256477D01*
X140336571Y-87256477D01*
X140193714Y-87327906D01*
X140836571Y-88185048D02*
X140693714Y-88256477D01*
X140336571Y-88256477D01*
X140193714Y-88185048D01*
X140122285Y-88042191D01*
X140122285Y-87899334D01*
X140193714Y-87756477D01*
X140336571Y-87685048D01*
X140693714Y-87685048D01*
X140836571Y-87613620D01*
X141550857Y-88113620D02*
X141622285Y-88185048D01*
X141550857Y-88256477D01*
X141479428Y-88185048D01*
X141550857Y-88113620D01*
X141550857Y-88256477D01*
X142265142Y-87256477D02*
X142265142Y-88256477D01*
X142265142Y-87399334D02*
X142336571Y-87327906D01*
X142479428Y-87256477D01*
X142693714Y-87256477D01*
X142836571Y-87327906D01*
X142908000Y-87470763D01*
X142908000Y-88256477D01*
X144193714Y-88185048D02*
X144050857Y-88256477D01*
X143765142Y-88256477D01*
X143622285Y-88185048D01*
X143550857Y-88042191D01*
X143550857Y-87470763D01*
X143622285Y-87327906D01*
X143765142Y-87256477D01*
X144050857Y-87256477D01*
X144193714Y-87327906D01*
X144265142Y-87470763D01*
X144265142Y-87613620D01*
X143550857Y-87756477D01*
X144693714Y-87256477D02*
X145265142Y-87256477D01*
X144908000Y-86756477D02*
X144908000Y-88042191D01*
X144979428Y-88185048D01*
X145122285Y-88256477D01*
X145265142Y-88256477D01*
X121836571Y-90806477D02*
X121336571Y-90092191D01*
X120979428Y-90806477D02*
X120979428Y-89306477D01*
X121550857Y-89306477D01*
X121693714Y-89377906D01*
X121765142Y-89449334D01*
X121836571Y-89592191D01*
X121836571Y-89806477D01*
X121765142Y-89949334D01*
X121693714Y-90020763D01*
X121550857Y-90092191D01*
X120979428Y-90092191D01*
X123050857Y-90735048D02*
X122908000Y-90806477D01*
X122622285Y-90806477D01*
X122479428Y-90735048D01*
X122408000Y-90592191D01*
X122408000Y-90020763D01*
X122479428Y-89877906D01*
X122622285Y-89806477D01*
X122908000Y-89806477D01*
X123050857Y-89877906D01*
X123122285Y-90020763D01*
X123122285Y-90163620D01*
X122408000Y-90306477D01*
X123622285Y-89806477D02*
X123979428Y-90806477D01*
X124336571Y-89806477D01*
X126836571Y-90806477D02*
X125979428Y-90806477D01*
X126408000Y-90806477D02*
X126408000Y-89306477D01*
X126265142Y-89520763D01*
X126122285Y-89663620D01*
X125979428Y-89735048D01*
X129050857Y-91377906D02*
X128979428Y-91306477D01*
X128836571Y-91092191D01*
X128765142Y-90949334D01*
X128693714Y-90735048D01*
X128622285Y-90377906D01*
X128622285Y-90092191D01*
X128693714Y-89735048D01*
X128765142Y-89520763D01*
X128836571Y-89377906D01*
X128979428Y-89163620D01*
X129050857Y-89092191D01*
X129550857Y-89449334D02*
X129622285Y-89377906D01*
X129765142Y-89306477D01*
X130122285Y-89306477D01*
X130265142Y-89377906D01*
X130336571Y-89449334D01*
X130408000Y-89592191D01*
X130408000Y-89735048D01*
X130336571Y-89949334D01*
X129479428Y-90806477D01*
X130408000Y-90806477D01*
X131336571Y-89306477D02*
X131479428Y-89306477D01*
X131622285Y-89377906D01*
X131693714Y-89449334D01*
X131765142Y-89592191D01*
X131836571Y-89877906D01*
X131836571Y-90235048D01*
X131765142Y-90520763D01*
X131693714Y-90663620D01*
X131622285Y-90735048D01*
X131479428Y-90806477D01*
X131336571Y-90806477D01*
X131193714Y-90735048D01*
X131122285Y-90663620D01*
X131050857Y-90520763D01*
X130979428Y-90235048D01*
X130979428Y-89877906D01*
X131050857Y-89592191D01*
X131122285Y-89449334D01*
X131193714Y-89377906D01*
X131336571Y-89306477D01*
X133265142Y-90806477D02*
X132408000Y-90806477D01*
X132836571Y-90806477D02*
X132836571Y-89306477D01*
X132693714Y-89520763D01*
X132550857Y-89663620D01*
X132408000Y-89735048D01*
X134122285Y-89949334D02*
X133979428Y-89877906D01*
X133908000Y-89806477D01*
X133836571Y-89663620D01*
X133836571Y-89592191D01*
X133908000Y-89449334D01*
X133979428Y-89377906D01*
X134122285Y-89306477D01*
X134408000Y-89306477D01*
X134550857Y-89377906D01*
X134622285Y-89449334D01*
X134693714Y-89592191D01*
X134693714Y-89663620D01*
X134622285Y-89806477D01*
X134550857Y-89877906D01*
X134408000Y-89949334D01*
X134122285Y-89949334D01*
X133979428Y-90020763D01*
X133908000Y-90092191D01*
X133836571Y-90235048D01*
X133836571Y-90520763D01*
X133908000Y-90663620D01*
X133979428Y-90735048D01*
X134122285Y-90806477D01*
X134408000Y-90806477D01*
X134550857Y-90735048D01*
X134622285Y-90663620D01*
X134693714Y-90520763D01*
X134693714Y-90235048D01*
X134622285Y-90092191D01*
X134550857Y-90020763D01*
X134408000Y-89949334D01*
X135336571Y-90235048D02*
X136479428Y-90235048D01*
X137479428Y-89306477D02*
X137622285Y-89306477D01*
X137765142Y-89377906D01*
X137836571Y-89449334D01*
X137908000Y-89592191D01*
X137979428Y-89877906D01*
X137979428Y-90235048D01*
X137908000Y-90520763D01*
X137836571Y-90663620D01*
X137765142Y-90735048D01*
X137622285Y-90806477D01*
X137479428Y-90806477D01*
X137336571Y-90735048D01*
X137265142Y-90663620D01*
X137193714Y-90520763D01*
X137122285Y-90235048D01*
X137122285Y-89877906D01*
X137193714Y-89592191D01*
X137265142Y-89449334D01*
X137336571Y-89377906D01*
X137479428Y-89306477D01*
X138479428Y-89306477D02*
X139408000Y-89306477D01*
X138908000Y-89877906D01*
X139122285Y-89877906D01*
X139265142Y-89949334D01*
X139336571Y-90020763D01*
X139408000Y-90163620D01*
X139408000Y-90520763D01*
X139336571Y-90663620D01*
X139265142Y-90735048D01*
X139122285Y-90806477D01*
X138693714Y-90806477D01*
X138550857Y-90735048D01*
X138479428Y-90663620D01*
X140050857Y-90235048D02*
X141193714Y-90235048D01*
X142693714Y-90806477D02*
X141836571Y-90806477D01*
X142265142Y-90806477D02*
X142265142Y-89306477D01*
X142122285Y-89520763D01*
X141979428Y-89663620D01*
X141836571Y-89735048D01*
X143408000Y-90806477D02*
X143693714Y-90806477D01*
X143836571Y-90735048D01*
X143908000Y-90663620D01*
X144050857Y-90449334D01*
X144122285Y-90163620D01*
X144122285Y-89592191D01*
X144050857Y-89449334D01*
X143979428Y-89377906D01*
X143836571Y-89306477D01*
X143550857Y-89306477D01*
X143408000Y-89377906D01*
X143336571Y-89449334D01*
X143265142Y-89592191D01*
X143265142Y-89949334D01*
X143336571Y-90092191D01*
X143408000Y-90163620D01*
X143550857Y-90235048D01*
X143836571Y-90235048D01*
X143979428Y-90163620D01*
X144050857Y-90092191D01*
X144122285Y-89949334D01*
X144622285Y-91377906D02*
X144693714Y-91306477D01*
X144836571Y-91092191D01*
X144908000Y-90949334D01*
X144979428Y-90735048D01*
X145050857Y-90377906D01*
X145050857Y-90092191D01*
X144979428Y-89735048D01*
X144908000Y-89520763D01*
X144836571Y-89377906D01*
X144693714Y-89163620D01*
X144622285Y-89092191D01*
X109385142Y-82827906D02*
X109242285Y-82756477D01*
X109028000Y-82756477D01*
X108813714Y-82827906D01*
X108670857Y-82970763D01*
X108599428Y-83113620D01*
X108528000Y-83399334D01*
X108528000Y-83613620D01*
X108599428Y-83899334D01*
X108670857Y-84042191D01*
X108813714Y-84185048D01*
X109028000Y-84256477D01*
X109170857Y-84256477D01*
X109385142Y-84185048D01*
X109456571Y-84113620D01*
X109456571Y-83613620D01*
X109170857Y-83613620D01*
X110099428Y-84256477D02*
X110099428Y-82756477D01*
X110956571Y-84256477D01*
X110956571Y-82756477D01*
X111670857Y-84256477D02*
X111670857Y-82756477D01*
X112028000Y-82756477D01*
X112242285Y-82827906D01*
X112385142Y-82970763D01*
X112456571Y-83113620D01*
X112528000Y-83399334D01*
X112528000Y-83613620D01*
X112456571Y-83899334D01*
X112385142Y-84042191D01*
X112242285Y-84185048D01*
X112028000Y-84256477D01*
X111670857Y-84256477D01*
X106203000Y-91560048D02*
X107345857Y-91560048D01*
X106774428Y-92131477D02*
X106774428Y-90988620D01*
X107917285Y-90631477D02*
X108845857Y-90631477D01*
X108345857Y-91202906D01*
X108560142Y-91202906D01*
X108703000Y-91274334D01*
X108774428Y-91345763D01*
X108845857Y-91488620D01*
X108845857Y-91845763D01*
X108774428Y-91988620D01*
X108703000Y-92060048D01*
X108560142Y-92131477D01*
X108131571Y-92131477D01*
X107988714Y-92060048D01*
X107917285Y-91988620D01*
X109488714Y-91988620D02*
X109560142Y-92060048D01*
X109488714Y-92131477D01*
X109417285Y-92060048D01*
X109488714Y-91988620D01*
X109488714Y-92131477D01*
X110060142Y-90631477D02*
X110988714Y-90631477D01*
X110488714Y-91202906D01*
X110703000Y-91202906D01*
X110845857Y-91274334D01*
X110917285Y-91345763D01*
X110988714Y-91488620D01*
X110988714Y-91845763D01*
X110917285Y-91988620D01*
X110845857Y-92060048D01*
X110703000Y-92131477D01*
X110274428Y-92131477D01*
X110131571Y-92060048D01*
X110060142Y-91988620D01*
X111417285Y-90631477D02*
X111917285Y-92131477D01*
X112417285Y-90631477D01*
X108667285Y-86935048D02*
X108881571Y-87006477D01*
X109238714Y-87006477D01*
X109381571Y-86935048D01*
X109453000Y-86863620D01*
X109524428Y-86720763D01*
X109524428Y-86577906D01*
X109453000Y-86435048D01*
X109381571Y-86363620D01*
X109238714Y-86292191D01*
X108953000Y-86220763D01*
X108810142Y-86149334D01*
X108738714Y-86077906D01*
X108667285Y-85935048D01*
X108667285Y-85792191D01*
X108738714Y-85649334D01*
X108810142Y-85577906D01*
X108953000Y-85506477D01*
X109310142Y-85506477D01*
X109524428Y-85577906D01*
X111024428Y-86863620D02*
X110953000Y-86935048D01*
X110738714Y-87006477D01*
X110595857Y-87006477D01*
X110381571Y-86935048D01*
X110238714Y-86792191D01*
X110167285Y-86649334D01*
X110095857Y-86363620D01*
X110095857Y-86149334D01*
X110167285Y-85863620D01*
X110238714Y-85720763D01*
X110381571Y-85577906D01*
X110595857Y-85506477D01*
X110738714Y-85506477D01*
X110953000Y-85577906D01*
X111024428Y-85649334D01*
X112381571Y-87006477D02*
X111667285Y-87006477D01*
X111667285Y-85506477D01*
X108631571Y-89310048D02*
X108845857Y-89381477D01*
X109203000Y-89381477D01*
X109345857Y-89310048D01*
X109417285Y-89238620D01*
X109488714Y-89095763D01*
X109488714Y-88952906D01*
X109417285Y-88810048D01*
X109345857Y-88738620D01*
X109203000Y-88667191D01*
X108917285Y-88595763D01*
X108774428Y-88524334D01*
X108703000Y-88452906D01*
X108631571Y-88310048D01*
X108631571Y-88167191D01*
X108703000Y-88024334D01*
X108774428Y-87952906D01*
X108917285Y-87881477D01*
X109274428Y-87881477D01*
X109488714Y-87952906D01*
X110131571Y-89381477D02*
X110131571Y-87881477D01*
X110488714Y-87881477D01*
X110703000Y-87952906D01*
X110845857Y-88095763D01*
X110917285Y-88238620D01*
X110988714Y-88524334D01*
X110988714Y-88738620D01*
X110917285Y-89024334D01*
X110845857Y-89167191D01*
X110703000Y-89310048D01*
X110488714Y-89381477D01*
X110131571Y-89381477D01*
X111560142Y-88952906D02*
X112274428Y-88952906D01*
X111417285Y-89381477D02*
X111917285Y-87881477D01*
X112417285Y-89381477D01*
X187385142Y-83102906D02*
X187242285Y-83031477D01*
X187028000Y-83031477D01*
X186813714Y-83102906D01*
X186670857Y-83245763D01*
X186599428Y-83388620D01*
X186528000Y-83674334D01*
X186528000Y-83888620D01*
X186599428Y-84174334D01*
X186670857Y-84317191D01*
X186813714Y-84460048D01*
X187028000Y-84531477D01*
X187170857Y-84531477D01*
X187385142Y-84460048D01*
X187456571Y-84388620D01*
X187456571Y-83888620D01*
X187170857Y-83888620D01*
X188099428Y-84531477D02*
X188099428Y-83031477D01*
X188956571Y-84531477D01*
X188956571Y-83031477D01*
X189670857Y-84531477D02*
X189670857Y-83031477D01*
X190028000Y-83031477D01*
X190242285Y-83102906D01*
X190385142Y-83245763D01*
X190456571Y-83388620D01*
X190528000Y-83674334D01*
X190528000Y-83888620D01*
X190456571Y-84174334D01*
X190385142Y-84317191D01*
X190242285Y-84460048D01*
X190028000Y-84531477D01*
X189670857Y-84531477D01*
X186667285Y-87210048D02*
X186881571Y-87281477D01*
X187238714Y-87281477D01*
X187381571Y-87210048D01*
X187453000Y-87138620D01*
X187524428Y-86995763D01*
X187524428Y-86852906D01*
X187453000Y-86710048D01*
X187381571Y-86638620D01*
X187238714Y-86567191D01*
X186953000Y-86495763D01*
X186810142Y-86424334D01*
X186738714Y-86352906D01*
X186667285Y-86210048D01*
X186667285Y-86067191D01*
X186738714Y-85924334D01*
X186810142Y-85852906D01*
X186953000Y-85781477D01*
X187310142Y-85781477D01*
X187524428Y-85852906D01*
X189024428Y-87138620D02*
X188953000Y-87210048D01*
X188738714Y-87281477D01*
X188595857Y-87281477D01*
X188381571Y-87210048D01*
X188238714Y-87067191D01*
X188167285Y-86924334D01*
X188095857Y-86638620D01*
X188095857Y-86424334D01*
X188167285Y-86138620D01*
X188238714Y-85995763D01*
X188381571Y-85852906D01*
X188595857Y-85781477D01*
X188738714Y-85781477D01*
X188953000Y-85852906D01*
X189024428Y-85924334D01*
X190381571Y-87281477D02*
X189667285Y-87281477D01*
X189667285Y-85781477D01*
X186631571Y-89585048D02*
X186845857Y-89656477D01*
X187203000Y-89656477D01*
X187345857Y-89585048D01*
X187417285Y-89513620D01*
X187488714Y-89370763D01*
X187488714Y-89227906D01*
X187417285Y-89085048D01*
X187345857Y-89013620D01*
X187203000Y-88942191D01*
X186917285Y-88870763D01*
X186774428Y-88799334D01*
X186703000Y-88727906D01*
X186631571Y-88585048D01*
X186631571Y-88442191D01*
X186703000Y-88299334D01*
X186774428Y-88227906D01*
X186917285Y-88156477D01*
X187274428Y-88156477D01*
X187488714Y-88227906D01*
X188131571Y-89656477D02*
X188131571Y-88156477D01*
X188488714Y-88156477D01*
X188703000Y-88227906D01*
X188845857Y-88370763D01*
X188917285Y-88513620D01*
X188988714Y-88799334D01*
X188988714Y-89013620D01*
X188917285Y-89299334D01*
X188845857Y-89442191D01*
X188703000Y-89585048D01*
X188488714Y-89656477D01*
X188131571Y-89656477D01*
X189560142Y-89227906D02*
X190274428Y-89227906D01*
X189417285Y-89656477D02*
X189917285Y-88156477D01*
X190417285Y-89656477D01*
X184203000Y-91835048D02*
X185345857Y-91835048D01*
X184774428Y-92406477D02*
X184774428Y-91263620D01*
X185917285Y-90906477D02*
X186845857Y-90906477D01*
X186345857Y-91477906D01*
X186560142Y-91477906D01*
X186703000Y-91549334D01*
X186774428Y-91620763D01*
X186845857Y-91763620D01*
X186845857Y-92120763D01*
X186774428Y-92263620D01*
X186703000Y-92335048D01*
X186560142Y-92406477D01*
X186131571Y-92406477D01*
X185988714Y-92335048D01*
X185917285Y-92263620D01*
X187488714Y-92263620D02*
X187560142Y-92335048D01*
X187488714Y-92406477D01*
X187417285Y-92335048D01*
X187488714Y-92263620D01*
X187488714Y-92406477D01*
X188060142Y-90906477D02*
X188988714Y-90906477D01*
X188488714Y-91477906D01*
X188703000Y-91477906D01*
X188845857Y-91549334D01*
X188917285Y-91620763D01*
X188988714Y-91763620D01*
X188988714Y-92120763D01*
X188917285Y-92263620D01*
X188845857Y-92335048D01*
X188703000Y-92406477D01*
X188274428Y-92406477D01*
X188131571Y-92335048D01*
X188060142Y-92263620D01*
X189417285Y-90906477D02*
X189917285Y-92406477D01*
X190417285Y-90906477D01*
D11*
X194078000Y-77752906D02*
G75*
G03X194078000Y-77752906I-700000J0D01*
G01*
X104078000Y-97752906D02*
G75*
G03X104078000Y-97752906I-700000J0D01*
G01*
X106288000Y-127492906D02*
X106288000Y-107172906D01*
X98668000Y-127492906D02*
X98668000Y-107172906D01*
X105018000Y-107172906D02*
X105018000Y-127492906D01*
X106288000Y-107172906D02*
X98668000Y-107172906D01*
X98668000Y-127492906D02*
X106288000Y-127492906D01*
X116348000Y-114476000D02*
X116348000Y-113776000D01*
X117548000Y-113776000D02*
X117548000Y-114476000D01*
X102988000Y-82596000D02*
X102988000Y-85196000D01*
X102988000Y-85196000D02*
X94358000Y-85196000D01*
X94358000Y-85196000D02*
X94358000Y-82596000D01*
X94358000Y-82596000D02*
X102988000Y-82596000D01*
X103418000Y-83546000D02*
X102988000Y-83546000D01*
X103418000Y-84306000D02*
X102988000Y-84306000D01*
X102988000Y-82776000D02*
X94358000Y-82776000D01*
X102988000Y-82896000D02*
X94358000Y-82896000D01*
X102988000Y-83016000D02*
X94358000Y-83016000D01*
X102988000Y-83136000D02*
X94358000Y-83136000D01*
X102988000Y-83256000D02*
X94358000Y-83256000D01*
X102988000Y-83376000D02*
X94358000Y-83376000D01*
X102988000Y-83496000D02*
X94358000Y-83496000D01*
X102988000Y-83616000D02*
X94358000Y-83616000D01*
X102988000Y-83736000D02*
X94358000Y-83736000D01*
X102988000Y-83856000D02*
X94358000Y-83856000D01*
X102988000Y-83976000D02*
X94358000Y-83976000D01*
X102988000Y-84096000D02*
X94358000Y-84096000D01*
X102988000Y-84216000D02*
X94358000Y-84216000D01*
X102988000Y-84336000D02*
X94358000Y-84336000D01*
X102988000Y-84456000D02*
X94358000Y-84456000D01*
X102988000Y-84576000D02*
X94358000Y-84576000D01*
X102988000Y-84696000D02*
X94358000Y-84696000D01*
X102988000Y-84816000D02*
X94358000Y-84816000D01*
X102988000Y-84936000D02*
X94358000Y-84936000D01*
X102988000Y-85056000D02*
X94358000Y-85056000D01*
X102988000Y-85176000D02*
X94358000Y-85176000D01*
X102988000Y-85296000D02*
X94358000Y-85296000D01*
X102988000Y-85196000D02*
X102988000Y-87736000D01*
X102988000Y-87736000D02*
X94358000Y-87736000D01*
X94358000Y-87736000D02*
X94358000Y-85196000D01*
X94358000Y-85196000D02*
X102988000Y-85196000D01*
X103418000Y-86086000D02*
X102988000Y-86086000D01*
X103418000Y-86846000D02*
X102988000Y-86846000D01*
X102988000Y-87736000D02*
X102988000Y-90276000D01*
X102988000Y-90276000D02*
X94358000Y-90276000D01*
X94358000Y-90276000D02*
X94358000Y-87736000D01*
X94358000Y-87736000D02*
X102988000Y-87736000D01*
X103418000Y-88626000D02*
X102988000Y-88626000D01*
X103418000Y-89386000D02*
X102988000Y-89386000D01*
X102988000Y-90276000D02*
X102988000Y-92876000D01*
X102988000Y-92876000D02*
X94358000Y-92876000D01*
X94358000Y-92876000D02*
X94358000Y-90276000D01*
X94358000Y-90276000D02*
X102988000Y-90276000D01*
X103418000Y-91166000D02*
X102988000Y-91166000D01*
X103418000Y-91926000D02*
X102988000Y-91926000D01*
X104448000Y-82656000D02*
X105718000Y-82656000D01*
X105718000Y-82656000D02*
X105718000Y-83926000D01*
X193908000Y-92856000D02*
X193908000Y-90256000D01*
X193908000Y-90256000D02*
X202538000Y-90256000D01*
X202538000Y-90256000D02*
X202538000Y-92856000D01*
X202538000Y-92856000D02*
X193908000Y-92856000D01*
X193478000Y-91906000D02*
X193908000Y-91906000D01*
X193478000Y-91146000D02*
X193908000Y-91146000D01*
X193908000Y-92676000D02*
X202538000Y-92676000D01*
X193908000Y-92556000D02*
X202538000Y-92556000D01*
X193908000Y-92436000D02*
X202538000Y-92436000D01*
X193908000Y-92316000D02*
X202538000Y-92316000D01*
X193908000Y-92196000D02*
X202538000Y-92196000D01*
X193908000Y-92076000D02*
X202538000Y-92076000D01*
X193908000Y-91956000D02*
X202538000Y-91956000D01*
X193908000Y-91836000D02*
X202538000Y-91836000D01*
X193908000Y-91716000D02*
X202538000Y-91716000D01*
X193908000Y-91596000D02*
X202538000Y-91596000D01*
X193908000Y-91476000D02*
X202538000Y-91476000D01*
X193908000Y-91356000D02*
X202538000Y-91356000D01*
X193908000Y-91236000D02*
X202538000Y-91236000D01*
X193908000Y-91116000D02*
X202538000Y-91116000D01*
X193908000Y-90996000D02*
X202538000Y-90996000D01*
X193908000Y-90876000D02*
X202538000Y-90876000D01*
X193908000Y-90756000D02*
X202538000Y-90756000D01*
X193908000Y-90636000D02*
X202538000Y-90636000D01*
X193908000Y-90516000D02*
X202538000Y-90516000D01*
X193908000Y-90396000D02*
X202538000Y-90396000D01*
X193908000Y-90276000D02*
X202538000Y-90276000D01*
X193908000Y-90156000D02*
X202538000Y-90156000D01*
X193908000Y-90256000D02*
X193908000Y-87716000D01*
X193908000Y-87716000D02*
X202538000Y-87716000D01*
X202538000Y-87716000D02*
X202538000Y-90256000D01*
X202538000Y-90256000D02*
X193908000Y-90256000D01*
X193478000Y-89366000D02*
X193908000Y-89366000D01*
X193478000Y-88606000D02*
X193908000Y-88606000D01*
X193908000Y-87716000D02*
X193908000Y-85176000D01*
X193908000Y-85176000D02*
X202538000Y-85176000D01*
X202538000Y-85176000D02*
X202538000Y-87716000D01*
X202538000Y-87716000D02*
X193908000Y-87716000D01*
X193478000Y-86826000D02*
X193908000Y-86826000D01*
X193478000Y-86066000D02*
X193908000Y-86066000D01*
X193908000Y-85176000D02*
X193908000Y-82576000D01*
X193908000Y-82576000D02*
X202538000Y-82576000D01*
X202538000Y-82576000D02*
X202538000Y-85176000D01*
X202538000Y-85176000D02*
X193908000Y-85176000D01*
X193478000Y-84286000D02*
X193908000Y-84286000D01*
X193478000Y-83526000D02*
X193908000Y-83526000D01*
X192448000Y-92796000D02*
X191178000Y-92796000D01*
X191178000Y-92796000D02*
X191178000Y-91526000D01*
X103378000Y-105352906D02*
X103378000Y-104652906D01*
X104578000Y-104652906D02*
X104578000Y-105352906D01*
X131288000Y-127492906D02*
X131288000Y-107172906D01*
X123668000Y-127492906D02*
X123668000Y-107172906D01*
X130018000Y-107172906D02*
X130018000Y-127492906D01*
X131288000Y-107172906D02*
X123668000Y-107172906D01*
X123668000Y-127492906D02*
X131288000Y-127492906D01*
D12*
X109778000Y-112352906D02*
X113778000Y-112352906D01*
X109778000Y-114352906D02*
X109778000Y-112352906D01*
X113778000Y-114352906D02*
X109778000Y-114352906D01*
X113778000Y-112352906D02*
X113778000Y-114352906D01*
X113601607Y-112752906D02*
G75*
G03X113601607Y-112752906I-223607J0D01*
G01*
D11*
X114287000Y-127672906D02*
X114287000Y-126162906D01*
X117988000Y-127672906D02*
X117988000Y-126162906D01*
X121258000Y-126162906D02*
X111018000Y-126162906D01*
X111018000Y-127672906D02*
X111018000Y-123031906D01*
X121258000Y-127672906D02*
X121258000Y-123031906D01*
X121258000Y-123031906D02*
X111018000Y-123031906D01*
X121258000Y-127672906D02*
X111018000Y-127672906D01*
D12*
X145861000Y-102863906D02*
X142940000Y-102863906D01*
X145861000Y-101847906D02*
X145861000Y-102863906D01*
X142940000Y-101847906D02*
X145861000Y-101847906D01*
X142940000Y-102863906D02*
X142940000Y-101847906D01*
X143500605Y-102482906D02*
G75*
G03X143500605Y-102482906I-179605J0D01*
G01*
X104848000Y-102776000D02*
X108848000Y-102776000D01*
X104848000Y-104776000D02*
X104848000Y-102776000D01*
X108848000Y-104776000D02*
X104848000Y-104776000D01*
X108848000Y-102776000D02*
X108848000Y-104776000D01*
X108671607Y-103176000D02*
G75*
G03X108671607Y-103176000I-223607J0D01*
G01*
D11*
X122248000Y-104376000D02*
X122248000Y-105076000D01*
X121048000Y-105076000D02*
X121048000Y-104376000D01*
X122048000Y-113526000D02*
X122048000Y-114226000D01*
X120848000Y-114226000D02*
X120848000Y-113526000D01*
X109578000Y-114302906D02*
X109578000Y-115002906D01*
X108378000Y-115002906D02*
X108378000Y-114302906D01*
X117548000Y-102426000D02*
X117548000Y-103126000D01*
X116348000Y-103126000D02*
X116348000Y-102426000D01*
X119168000Y-118726000D02*
X119168000Y-117726000D01*
X120528000Y-117726000D02*
X120528000Y-118726000D01*
X116178000Y-117702906D02*
X115478000Y-117702906D01*
X115478000Y-116502906D02*
X116178000Y-116502906D01*
X147248000Y-104376000D02*
X147248000Y-105076000D01*
X146048000Y-105076000D02*
X146048000Y-104376000D01*
X147048000Y-113526000D02*
X147048000Y-114226000D01*
X145848000Y-114226000D02*
X145848000Y-113526000D01*
X134578000Y-114302906D02*
X134578000Y-115002906D01*
X133378000Y-115002906D02*
X133378000Y-114302906D01*
X142548000Y-102426000D02*
X142548000Y-103126000D01*
X141348000Y-103126000D02*
X141348000Y-102426000D01*
X141348000Y-114476000D02*
X141348000Y-113776000D01*
X142548000Y-113776000D02*
X142548000Y-114476000D01*
X128378000Y-105352906D02*
X128378000Y-104652906D01*
X129578000Y-104652906D02*
X129578000Y-105352906D01*
X141178000Y-117702906D02*
X140478000Y-117702906D01*
X140478000Y-116502906D02*
X141178000Y-116502906D01*
X172248000Y-104376000D02*
X172248000Y-105076000D01*
X171048000Y-105076000D02*
X171048000Y-104376000D01*
X172048000Y-113526000D02*
X172048000Y-114226000D01*
X170848000Y-114226000D02*
X170848000Y-113526000D01*
X159578000Y-114302906D02*
X159578000Y-115002906D01*
X158378000Y-115002906D02*
X158378000Y-114302906D01*
X167548000Y-102426000D02*
X167548000Y-103126000D01*
X166348000Y-103126000D02*
X166348000Y-102426000D01*
X166348000Y-114476000D02*
X166348000Y-113776000D01*
X167548000Y-113776000D02*
X167548000Y-114476000D01*
X153378000Y-105352906D02*
X153378000Y-104652906D01*
X154578000Y-104652906D02*
X154578000Y-105352906D01*
X166178000Y-117702906D02*
X165478000Y-117702906D01*
X165478000Y-116502906D02*
X166178000Y-116502906D01*
X197248000Y-104376000D02*
X197248000Y-105076000D01*
X196048000Y-105076000D02*
X196048000Y-104376000D01*
X197048000Y-113526000D02*
X197048000Y-114226000D01*
X195848000Y-114226000D02*
X195848000Y-113526000D01*
X184578000Y-114302906D02*
X184578000Y-115002906D01*
X183378000Y-115002906D02*
X183378000Y-114302906D01*
X192548000Y-102426000D02*
X192548000Y-103126000D01*
X191348000Y-103126000D02*
X191348000Y-102426000D01*
X191348000Y-114476000D02*
X191348000Y-113776000D01*
X192548000Y-113776000D02*
X192548000Y-114476000D01*
X178378000Y-105352906D02*
X178378000Y-104652906D01*
X179578000Y-104652906D02*
X179578000Y-105352906D01*
X191178000Y-117702906D02*
X190478000Y-117702906D01*
X190478000Y-116502906D02*
X191178000Y-116502906D01*
X174510142Y-71129812D02*
X174510142Y-70429812D01*
X175710142Y-70429812D02*
X175710142Y-71129812D01*
X174710142Y-61979812D02*
X174710142Y-61279812D01*
X175910142Y-61279812D02*
X175910142Y-61979812D01*
X187180142Y-61202906D02*
X187180142Y-60502906D01*
X188380142Y-60502906D02*
X188380142Y-61202906D01*
X179210142Y-73079812D02*
X179210142Y-72379812D01*
X180410142Y-72379812D02*
X180410142Y-73079812D01*
X180410142Y-61029812D02*
X180410142Y-61729812D01*
X179210142Y-61729812D02*
X179210142Y-61029812D01*
X193380142Y-70152906D02*
X193380142Y-70852906D01*
X192180142Y-70852906D02*
X192180142Y-70152906D01*
X180580142Y-57802906D02*
X181280142Y-57802906D01*
X181280142Y-59002906D02*
X180580142Y-59002906D01*
X149510142Y-71129812D02*
X149510142Y-70429812D01*
X150710142Y-70429812D02*
X150710142Y-71129812D01*
X149710142Y-61979812D02*
X149710142Y-61279812D01*
X150910142Y-61279812D02*
X150910142Y-61979812D01*
X162180142Y-61202906D02*
X162180142Y-60502906D01*
X163380142Y-60502906D02*
X163380142Y-61202906D01*
X154210142Y-73079812D02*
X154210142Y-72379812D01*
X155410142Y-72379812D02*
X155410142Y-73079812D01*
X155410142Y-61029812D02*
X155410142Y-61729812D01*
X154210142Y-61729812D02*
X154210142Y-61029812D01*
X168380142Y-70152906D02*
X168380142Y-70852906D01*
X167180142Y-70852906D02*
X167180142Y-70152906D01*
X155580142Y-57802906D02*
X156280142Y-57802906D01*
X156280142Y-59002906D02*
X155580142Y-59002906D01*
X124510142Y-71129812D02*
X124510142Y-70429812D01*
X125710142Y-70429812D02*
X125710142Y-71129812D01*
X124710142Y-61979812D02*
X124710142Y-61279812D01*
X125910142Y-61279812D02*
X125910142Y-61979812D01*
X137180142Y-61202906D02*
X137180142Y-60502906D01*
X138380142Y-60502906D02*
X138380142Y-61202906D01*
X129210142Y-73079812D02*
X129210142Y-72379812D01*
X130410142Y-72379812D02*
X130410142Y-73079812D01*
X130410142Y-61029812D02*
X130410142Y-61729812D01*
X129210142Y-61729812D02*
X129210142Y-61029812D01*
X143380142Y-70152906D02*
X143380142Y-70852906D01*
X142180142Y-70852906D02*
X142180142Y-70152906D01*
X130580142Y-57802906D02*
X131280142Y-57802906D01*
X131280142Y-59002906D02*
X130580142Y-59002906D01*
X99510142Y-71129812D02*
X99510142Y-70429812D01*
X100710142Y-70429812D02*
X100710142Y-71129812D01*
X99710142Y-61979812D02*
X99710142Y-61279812D01*
X100910142Y-61279812D02*
X100910142Y-61979812D01*
X112180142Y-61202906D02*
X112180142Y-60502906D01*
X113380142Y-60502906D02*
X113380142Y-61202906D01*
X104210142Y-73079812D02*
X104210142Y-72379812D01*
X105410142Y-72379812D02*
X105410142Y-73079812D01*
X105410142Y-61029812D02*
X105410142Y-61729812D01*
X104210142Y-61729812D02*
X104210142Y-61029812D01*
X118380142Y-70152906D02*
X118380142Y-70852906D01*
X117180142Y-70852906D02*
X117180142Y-70152906D01*
X105580142Y-57802906D02*
X106280142Y-57802906D01*
X106280142Y-59002906D02*
X105580142Y-59002906D01*
D12*
X120861000Y-102863906D02*
X117940000Y-102863906D01*
X120861000Y-101847906D02*
X120861000Y-102863906D01*
X117940000Y-101847906D02*
X120861000Y-101847906D01*
X117940000Y-102863906D02*
X117940000Y-101847906D01*
X118500605Y-102482906D02*
G75*
G03X118500605Y-102482906I-179605J0D01*
G01*
X170861000Y-102863906D02*
X167940000Y-102863906D01*
X170861000Y-101847906D02*
X170861000Y-102863906D01*
X167940000Y-101847906D02*
X170861000Y-101847906D01*
X167940000Y-102863906D02*
X167940000Y-101847906D01*
X168500605Y-102482906D02*
G75*
G03X168500605Y-102482906I-179605J0D01*
G01*
X195861000Y-102863906D02*
X192940000Y-102863906D01*
X195861000Y-101847906D02*
X195861000Y-102863906D01*
X192940000Y-101847906D02*
X195861000Y-101847906D01*
X192940000Y-102863906D02*
X192940000Y-101847906D01*
X193500605Y-102482906D02*
G75*
G03X193500605Y-102482906I-179605J0D01*
G01*
X175897142Y-72641906D02*
X178818142Y-72641906D01*
X175897142Y-73657906D02*
X175897142Y-72641906D01*
X178818142Y-73657906D02*
X175897142Y-73657906D01*
X178818142Y-72641906D02*
X178818142Y-73657906D01*
X178616747Y-73022906D02*
G75*
G03X178616747Y-73022906I-179605J0D01*
G01*
X150897142Y-72641906D02*
X153818142Y-72641906D01*
X150897142Y-73657906D02*
X150897142Y-72641906D01*
X153818142Y-73657906D02*
X150897142Y-73657906D01*
X153818142Y-72641906D02*
X153818142Y-73657906D01*
X153616747Y-73022906D02*
G75*
G03X153616747Y-73022906I-179605J0D01*
G01*
X125897142Y-72641906D02*
X128818142Y-72641906D01*
X125897142Y-73657906D02*
X125897142Y-72641906D01*
X128818142Y-73657906D02*
X125897142Y-73657906D01*
X128818142Y-72641906D02*
X128818142Y-73657906D01*
X128616747Y-73022906D02*
G75*
G03X128616747Y-73022906I-179605J0D01*
G01*
X100897142Y-72641906D02*
X103818142Y-72641906D01*
X100897142Y-73657906D02*
X100897142Y-72641906D01*
X103818142Y-73657906D02*
X100897142Y-73657906D01*
X103818142Y-72641906D02*
X103818142Y-73657906D01*
X103616747Y-73022906D02*
G75*
G03X103616747Y-73022906I-179605J0D01*
G01*
X129848000Y-102776000D02*
X133848000Y-102776000D01*
X129848000Y-104776000D02*
X129848000Y-102776000D01*
X133848000Y-104776000D02*
X129848000Y-104776000D01*
X133848000Y-102776000D02*
X133848000Y-104776000D01*
X133671607Y-103176000D02*
G75*
G03X133671607Y-103176000I-223607J0D01*
G01*
X134778000Y-112352906D02*
X138778000Y-112352906D01*
X134778000Y-114352906D02*
X134778000Y-112352906D01*
X138778000Y-114352906D02*
X134778000Y-114352906D01*
X138778000Y-112352906D02*
X138778000Y-114352906D01*
X138601607Y-112752906D02*
G75*
G03X138601607Y-112752906I-223607J0D01*
G01*
X154848000Y-102776000D02*
X158848000Y-102776000D01*
X154848000Y-104776000D02*
X154848000Y-102776000D01*
X158848000Y-104776000D02*
X154848000Y-104776000D01*
X158848000Y-102776000D02*
X158848000Y-104776000D01*
X158671607Y-103176000D02*
G75*
G03X158671607Y-103176000I-223607J0D01*
G01*
X159778000Y-112352906D02*
X163778000Y-112352906D01*
X159778000Y-114352906D02*
X159778000Y-112352906D01*
X163778000Y-114352906D02*
X159778000Y-114352906D01*
X163778000Y-112352906D02*
X163778000Y-114352906D01*
X163601607Y-112752906D02*
G75*
G03X163601607Y-112752906I-223607J0D01*
G01*
X179848000Y-102776000D02*
X183848000Y-102776000D01*
X179848000Y-104776000D02*
X179848000Y-102776000D01*
X183848000Y-104776000D02*
X179848000Y-104776000D01*
X183848000Y-102776000D02*
X183848000Y-104776000D01*
X183671607Y-103176000D02*
G75*
G03X183671607Y-103176000I-223607J0D01*
G01*
X184778000Y-112352906D02*
X188778000Y-112352906D01*
X184778000Y-114352906D02*
X184778000Y-112352906D01*
X188778000Y-114352906D02*
X184778000Y-114352906D01*
X188778000Y-112352906D02*
X188778000Y-114352906D01*
X188601607Y-112752906D02*
G75*
G03X188601607Y-112752906I-223607J0D01*
G01*
X191910142Y-72729812D02*
X187910142Y-72729812D01*
X191910142Y-70729812D02*
X191910142Y-72729812D01*
X187910142Y-70729812D02*
X191910142Y-70729812D01*
X187910142Y-72729812D02*
X187910142Y-70729812D01*
X188533749Y-72329812D02*
G75*
G03X188533749Y-72329812I-223607J0D01*
G01*
X186980142Y-63152906D02*
X182980142Y-63152906D01*
X186980142Y-61152906D02*
X186980142Y-63152906D01*
X182980142Y-61152906D02*
X186980142Y-61152906D01*
X182980142Y-63152906D02*
X182980142Y-61152906D01*
X183603749Y-62752906D02*
G75*
G03X183603749Y-62752906I-223607J0D01*
G01*
X166910142Y-72729812D02*
X162910142Y-72729812D01*
X166910142Y-70729812D02*
X166910142Y-72729812D01*
X162910142Y-70729812D02*
X166910142Y-70729812D01*
X162910142Y-72729812D02*
X162910142Y-70729812D01*
X163533749Y-72329812D02*
G75*
G03X163533749Y-72329812I-223607J0D01*
G01*
X161980142Y-63152906D02*
X157980142Y-63152906D01*
X161980142Y-61152906D02*
X161980142Y-63152906D01*
X157980142Y-61152906D02*
X161980142Y-61152906D01*
X157980142Y-63152906D02*
X157980142Y-61152906D01*
X158603749Y-62752906D02*
G75*
G03X158603749Y-62752906I-223607J0D01*
G01*
X141910142Y-72729812D02*
X137910142Y-72729812D01*
X141910142Y-70729812D02*
X141910142Y-72729812D01*
X137910142Y-70729812D02*
X141910142Y-70729812D01*
X137910142Y-72729812D02*
X137910142Y-70729812D01*
X138533749Y-72329812D02*
G75*
G03X138533749Y-72329812I-223607J0D01*
G01*
X136980142Y-63152906D02*
X132980142Y-63152906D01*
X136980142Y-61152906D02*
X136980142Y-63152906D01*
X132980142Y-61152906D02*
X136980142Y-61152906D01*
X132980142Y-63152906D02*
X132980142Y-61152906D01*
X133603749Y-62752906D02*
G75*
G03X133603749Y-62752906I-223607J0D01*
G01*
X116910142Y-72729812D02*
X112910142Y-72729812D01*
X116910142Y-70729812D02*
X116910142Y-72729812D01*
X112910142Y-70729812D02*
X116910142Y-70729812D01*
X112910142Y-72729812D02*
X112910142Y-70729812D01*
X113533749Y-72329812D02*
G75*
G03X113533749Y-72329812I-223607J0D01*
G01*
X111980142Y-63152906D02*
X107980142Y-63152906D01*
X111980142Y-61152906D02*
X111980142Y-63152906D01*
X107980142Y-61152906D02*
X111980142Y-61152906D01*
X107980142Y-63152906D02*
X107980142Y-61152906D01*
X108603749Y-62752906D02*
G75*
G03X108603749Y-62752906I-223607J0D01*
G01*
D11*
X156288000Y-127492906D02*
X156288000Y-107172906D01*
X148668000Y-127492906D02*
X148668000Y-107172906D01*
X155018000Y-107172906D02*
X155018000Y-127492906D01*
X156288000Y-107172906D02*
X148668000Y-107172906D01*
X148668000Y-127492906D02*
X156288000Y-127492906D01*
X181288000Y-127492906D02*
X181288000Y-107172906D01*
X173668000Y-127492906D02*
X173668000Y-107172906D01*
X180018000Y-107172906D02*
X180018000Y-127492906D01*
X181288000Y-107172906D02*
X173668000Y-107172906D01*
X173668000Y-127492906D02*
X181288000Y-127492906D01*
X190470142Y-48012906D02*
X190470142Y-68332906D01*
X198090142Y-48012906D02*
X198090142Y-68332906D01*
X191740142Y-68332906D02*
X191740142Y-48012906D01*
X190470142Y-68332906D02*
X198090142Y-68332906D01*
X198090142Y-48012906D02*
X190470142Y-48012906D01*
X165470142Y-48012906D02*
X165470142Y-68332906D01*
X173090142Y-48012906D02*
X173090142Y-68332906D01*
X166740142Y-68332906D02*
X166740142Y-48012906D01*
X165470142Y-68332906D02*
X173090142Y-68332906D01*
X173090142Y-48012906D02*
X165470142Y-48012906D01*
X140470142Y-48012906D02*
X140470142Y-68332906D01*
X148090142Y-48012906D02*
X148090142Y-68332906D01*
X141740142Y-68332906D02*
X141740142Y-48012906D01*
X140470142Y-68332906D02*
X148090142Y-68332906D01*
X148090142Y-48012906D02*
X140470142Y-48012906D01*
X115470142Y-48012906D02*
X115470142Y-68332906D01*
X123090142Y-48012906D02*
X123090142Y-68332906D01*
X116740142Y-68332906D02*
X116740142Y-48012906D01*
X115470142Y-68332906D02*
X123090142Y-68332906D01*
X123090142Y-48012906D02*
X115470142Y-48012906D01*
X139287000Y-127672906D02*
X139287000Y-126162906D01*
X142988000Y-127672906D02*
X142988000Y-126162906D01*
X146258000Y-126162906D02*
X136018000Y-126162906D01*
X136018000Y-127672906D02*
X136018000Y-123031906D01*
X146258000Y-127672906D02*
X146258000Y-123031906D01*
X146258000Y-123031906D02*
X136018000Y-123031906D01*
X146258000Y-127672906D02*
X136018000Y-127672906D01*
X164287000Y-127672906D02*
X164287000Y-126162906D01*
X167988000Y-127672906D02*
X167988000Y-126162906D01*
X171258000Y-126162906D02*
X161018000Y-126162906D01*
X161018000Y-127672906D02*
X161018000Y-123031906D01*
X171258000Y-127672906D02*
X171258000Y-123031906D01*
X171258000Y-123031906D02*
X161018000Y-123031906D01*
X171258000Y-127672906D02*
X161018000Y-127672906D01*
X189287000Y-127672906D02*
X189287000Y-126162906D01*
X192988000Y-127672906D02*
X192988000Y-126162906D01*
X196258000Y-126162906D02*
X186018000Y-126162906D01*
X186018000Y-127672906D02*
X186018000Y-123031906D01*
X196258000Y-127672906D02*
X196258000Y-123031906D01*
X196258000Y-123031906D02*
X186018000Y-123031906D01*
X196258000Y-127672906D02*
X186018000Y-127672906D01*
X182471142Y-47832906D02*
X182471142Y-49342906D01*
X178770142Y-47832906D02*
X178770142Y-49342906D01*
X175500142Y-49342906D02*
X185740142Y-49342906D01*
X185740142Y-47832906D02*
X185740142Y-52473906D01*
X175500142Y-47832906D02*
X175500142Y-52473906D01*
X175500142Y-52473906D02*
X185740142Y-52473906D01*
X175500142Y-47832906D02*
X185740142Y-47832906D01*
X157471142Y-47832906D02*
X157471142Y-49342906D01*
X153770142Y-47832906D02*
X153770142Y-49342906D01*
X150500142Y-49342906D02*
X160740142Y-49342906D01*
X160740142Y-47832906D02*
X160740142Y-52473906D01*
X150500142Y-47832906D02*
X150500142Y-52473906D01*
X150500142Y-52473906D02*
X160740142Y-52473906D01*
X150500142Y-47832906D02*
X160740142Y-47832906D01*
X132471142Y-47832906D02*
X132471142Y-49342906D01*
X128770142Y-47832906D02*
X128770142Y-49342906D01*
X125500142Y-49342906D02*
X135740142Y-49342906D01*
X135740142Y-47832906D02*
X135740142Y-52473906D01*
X125500142Y-47832906D02*
X125500142Y-52473906D01*
X125500142Y-52473906D02*
X135740142Y-52473906D01*
X125500142Y-47832906D02*
X135740142Y-47832906D01*
X107471142Y-47832906D02*
X107471142Y-49342906D01*
X103770142Y-47832906D02*
X103770142Y-49342906D01*
X100500142Y-49342906D02*
X110740142Y-49342906D01*
X110740142Y-47832906D02*
X110740142Y-52473906D01*
X100500142Y-47832906D02*
X100500142Y-52473906D01*
X100500142Y-52473906D02*
X110740142Y-52473906D01*
X100500142Y-47832906D02*
X110740142Y-47832906D01*
X142628000Y-109752906D02*
X142628000Y-110752906D01*
X141268000Y-110752906D02*
X141268000Y-109752906D01*
X144168000Y-118726000D02*
X144168000Y-117726000D01*
X145528000Y-117726000D02*
X145528000Y-118726000D01*
X132978000Y-124372906D02*
X133978000Y-124372906D01*
X133978000Y-125732906D02*
X132978000Y-125732906D01*
X167628000Y-109752906D02*
X167628000Y-110752906D01*
X166268000Y-110752906D02*
X166268000Y-109752906D01*
X169168000Y-118726000D02*
X169168000Y-117726000D01*
X170528000Y-117726000D02*
X170528000Y-118726000D01*
X157978000Y-124372906D02*
X158978000Y-124372906D01*
X158978000Y-125732906D02*
X157978000Y-125732906D01*
X192628000Y-109752906D02*
X192628000Y-110752906D01*
X191268000Y-110752906D02*
X191268000Y-109752906D01*
X194168000Y-118726000D02*
X194168000Y-117726000D01*
X195528000Y-117726000D02*
X195528000Y-118726000D01*
X182978000Y-124372906D02*
X183978000Y-124372906D01*
X183978000Y-125732906D02*
X182978000Y-125732906D01*
X179130142Y-65752906D02*
X179130142Y-64752906D01*
X180490142Y-64752906D02*
X180490142Y-65752906D01*
X177590142Y-56779812D02*
X177590142Y-57779812D01*
X176230142Y-57779812D02*
X176230142Y-56779812D01*
X188780142Y-51132906D02*
X187780142Y-51132906D01*
X187780142Y-49772906D02*
X188780142Y-49772906D01*
X154130142Y-65752906D02*
X154130142Y-64752906D01*
X155490142Y-64752906D02*
X155490142Y-65752906D01*
X152590142Y-56779812D02*
X152590142Y-57779812D01*
X151230142Y-57779812D02*
X151230142Y-56779812D01*
X163780142Y-51132906D02*
X162780142Y-51132906D01*
X162780142Y-49772906D02*
X163780142Y-49772906D01*
X129130142Y-65752906D02*
X129130142Y-64752906D01*
X130490142Y-64752906D02*
X130490142Y-65752906D01*
X127590142Y-56779812D02*
X127590142Y-57779812D01*
X126230142Y-57779812D02*
X126230142Y-56779812D01*
X138780142Y-51132906D02*
X137780142Y-51132906D01*
X137780142Y-49772906D02*
X138780142Y-49772906D01*
X104130142Y-65752906D02*
X104130142Y-64752906D01*
X105490142Y-64752906D02*
X105490142Y-65752906D01*
X102590142Y-56779812D02*
X102590142Y-57779812D01*
X101230142Y-57779812D02*
X101230142Y-56779812D01*
X113780142Y-51132906D02*
X112780142Y-51132906D01*
X112780142Y-49772906D02*
X113780142Y-49772906D01*
X142888000Y-112826000D02*
X142888000Y-114226000D01*
X145208000Y-114226000D02*
X145208000Y-112326000D01*
X167888000Y-112826000D02*
X167888000Y-114226000D01*
X170208000Y-114226000D02*
X170208000Y-112326000D01*
X192888000Y-112826000D02*
X192888000Y-114226000D01*
X195208000Y-114226000D02*
X195208000Y-112326000D01*
X178870142Y-62679812D02*
X178870142Y-61279812D01*
X176550142Y-61279812D02*
X176550142Y-63179812D01*
X153870142Y-62679812D02*
X153870142Y-61279812D01*
X151550142Y-61279812D02*
X151550142Y-63179812D01*
X128870142Y-62679812D02*
X128870142Y-61279812D01*
X126550142Y-61279812D02*
X126550142Y-63179812D01*
X103870142Y-62679812D02*
X103870142Y-61279812D01*
X101550142Y-61279812D02*
X101550142Y-63179812D01*
X117628000Y-109752906D02*
X117628000Y-110752906D01*
X116268000Y-110752906D02*
X116268000Y-109752906D01*
X107978000Y-124372906D02*
X108978000Y-124372906D01*
X108978000Y-125732906D02*
X107978000Y-125732906D01*
X117888000Y-112826000D02*
X117888000Y-114226000D01*
X120208000Y-114226000D02*
X120208000Y-112326000D01*
X116128000Y-109726000D02*
X116128000Y-110726000D01*
X114768000Y-110726000D02*
X114768000Y-109726000D01*
X141128000Y-109726000D02*
X141128000Y-110726000D01*
X139768000Y-110726000D02*
X139768000Y-109726000D01*
X166128000Y-109726000D02*
X166128000Y-110726000D01*
X164768000Y-110726000D02*
X164768000Y-109726000D01*
X191128000Y-109726000D02*
X191128000Y-110726000D01*
X189768000Y-110726000D02*
X189768000Y-109726000D01*
X180630142Y-65779812D02*
X180630142Y-64779812D01*
X181990142Y-64779812D02*
X181990142Y-65779812D01*
X155630142Y-65779812D02*
X155630142Y-64779812D01*
X156990142Y-64779812D02*
X156990142Y-65779812D01*
X130630142Y-65779812D02*
X130630142Y-64779812D01*
X131990142Y-64779812D02*
X131990142Y-65779812D01*
X105630142Y-65779812D02*
X105630142Y-64779812D01*
X106990142Y-64779812D02*
X106990142Y-65779812D01*
D12*
X99430380Y-106136239D02*
X100144666Y-106136239D01*
X100287523Y-106183858D01*
X100382761Y-106279096D01*
X100430380Y-106421953D01*
X100430380Y-106517191D01*
X100430380Y-105136239D02*
X100430380Y-105707667D01*
X100430380Y-105421953D02*
X99430380Y-105421953D01*
X99573238Y-105517191D01*
X99668476Y-105612429D01*
X99716095Y-105707667D01*
X116105142Y-114292666D02*
X116152761Y-114340285D01*
X116200380Y-114483142D01*
X116200380Y-114578380D01*
X116152761Y-114721238D01*
X116057523Y-114816476D01*
X115962285Y-114864095D01*
X115771809Y-114911714D01*
X115628952Y-114911714D01*
X115438476Y-114864095D01*
X115343238Y-114816476D01*
X115248000Y-114721238D01*
X115200380Y-114578380D01*
X115200380Y-114483142D01*
X115248000Y-114340285D01*
X115295619Y-114292666D01*
X115200380Y-113387904D02*
X115200380Y-113864095D01*
X115676571Y-113911714D01*
X115628952Y-113864095D01*
X115581333Y-113768857D01*
X115581333Y-113530761D01*
X115628952Y-113435523D01*
X115676571Y-113387904D01*
X115771809Y-113340285D01*
X116009904Y-113340285D01*
X116105142Y-113387904D01*
X116152761Y-113435523D01*
X116200380Y-113530761D01*
X116200380Y-113768857D01*
X116152761Y-113864095D01*
X116105142Y-113911714D01*
X99258476Y-81108380D02*
X99258476Y-81822666D01*
X99210857Y-81965523D01*
X99115619Y-82060761D01*
X98972761Y-82108380D01*
X98877523Y-82108380D01*
X100258476Y-82108380D02*
X99687047Y-82108380D01*
X99972761Y-82108380D02*
X99972761Y-81108380D01*
X99877523Y-81251238D01*
X99782285Y-81346476D01*
X99687047Y-81394095D01*
X100877523Y-81108380D02*
X100972761Y-81108380D01*
X101068000Y-81156000D01*
X101115619Y-81203619D01*
X101163238Y-81298857D01*
X101210857Y-81489333D01*
X101210857Y-81727428D01*
X101163238Y-81917904D01*
X101115619Y-82013142D01*
X101068000Y-82060761D01*
X100972761Y-82108380D01*
X100877523Y-82108380D01*
X100782285Y-82060761D01*
X100734666Y-82013142D01*
X100687047Y-81917904D01*
X100639428Y-81727428D01*
X100639428Y-81489333D01*
X100687047Y-81298857D01*
X100734666Y-81203619D01*
X100782285Y-81156000D01*
X100877523Y-81108380D01*
X196494666Y-93248380D02*
X196494666Y-93962666D01*
X196447047Y-94105523D01*
X196351809Y-94200761D01*
X196208952Y-94248380D01*
X196113714Y-94248380D01*
X197018476Y-94248380D02*
X197208952Y-94248380D01*
X197304190Y-94200761D01*
X197351809Y-94153142D01*
X197447047Y-94010285D01*
X197494666Y-93819809D01*
X197494666Y-93438857D01*
X197447047Y-93343619D01*
X197399428Y-93296000D01*
X197304190Y-93248380D01*
X197113714Y-93248380D01*
X197018476Y-93296000D01*
X196970857Y-93343619D01*
X196923238Y-93438857D01*
X196923238Y-93676952D01*
X196970857Y-93772190D01*
X197018476Y-93819809D01*
X197113714Y-93867428D01*
X197304190Y-93867428D01*
X197399428Y-93819809D01*
X197447047Y-93772190D01*
X197494666Y-93676952D01*
X102935142Y-105169572D02*
X102982761Y-105217191D01*
X103030380Y-105360048D01*
X103030380Y-105455286D01*
X102982761Y-105598144D01*
X102887523Y-105693382D01*
X102792285Y-105741001D01*
X102601809Y-105788620D01*
X102458952Y-105788620D01*
X102268476Y-105741001D01*
X102173238Y-105693382D01*
X102078000Y-105598144D01*
X102030380Y-105455286D01*
X102030380Y-105360048D01*
X102078000Y-105217191D01*
X102125619Y-105169572D01*
X102030380Y-104312429D02*
X102030380Y-104502906D01*
X102078000Y-104598144D01*
X102125619Y-104645763D01*
X102268476Y-104741001D01*
X102458952Y-104788620D01*
X102839904Y-104788620D01*
X102935142Y-104741001D01*
X102982761Y-104693382D01*
X103030380Y-104598144D01*
X103030380Y-104407667D01*
X102982761Y-104312429D01*
X102935142Y-104264810D01*
X102839904Y-104217191D01*
X102601809Y-104217191D01*
X102506571Y-104264810D01*
X102458952Y-104312429D01*
X102411333Y-104407667D01*
X102411333Y-104598144D01*
X102458952Y-104693382D01*
X102506571Y-104741001D01*
X102601809Y-104788620D01*
X124480380Y-106236239D02*
X125194666Y-106236239D01*
X125337523Y-106283858D01*
X125432761Y-106379096D01*
X125480380Y-106521953D01*
X125480380Y-106617191D01*
X124575619Y-105807667D02*
X124528000Y-105760048D01*
X124480380Y-105664810D01*
X124480380Y-105426715D01*
X124528000Y-105331477D01*
X124575619Y-105283858D01*
X124670857Y-105236239D01*
X124766095Y-105236239D01*
X124908952Y-105283858D01*
X125480380Y-105855286D01*
X125480380Y-105236239D01*
X110449428Y-113905286D02*
X110449428Y-112905286D01*
X110925619Y-113905286D02*
X110925619Y-112905286D01*
X111497047Y-113905286D01*
X111497047Y-112905286D01*
X111925619Y-113619572D02*
X112401809Y-113619572D01*
X111830380Y-113905286D02*
X112163714Y-112905286D01*
X112497047Y-113905286D01*
X112782761Y-113000525D02*
X112830380Y-112952906D01*
X112925619Y-112905286D01*
X113163714Y-112905286D01*
X113258952Y-112952906D01*
X113306571Y-113000525D01*
X113354190Y-113095763D01*
X113354190Y-113191001D01*
X113306571Y-113333858D01*
X112735142Y-113905286D01*
X113354190Y-113905286D01*
X122600619Y-125173144D02*
X122553000Y-125268382D01*
X122457761Y-125363620D01*
X122314904Y-125506477D01*
X122267285Y-125601715D01*
X122267285Y-125696953D01*
X122505380Y-125649334D02*
X122457761Y-125744572D01*
X122362523Y-125839810D01*
X122172047Y-125887429D01*
X121838714Y-125887429D01*
X121648238Y-125839810D01*
X121553000Y-125744572D01*
X121505380Y-125649334D01*
X121505380Y-125458858D01*
X121553000Y-125363620D01*
X121648238Y-125268382D01*
X121838714Y-125220763D01*
X122172047Y-125220763D01*
X122362523Y-125268382D01*
X122457761Y-125363620D01*
X122505380Y-125458858D01*
X122505380Y-125649334D01*
X122505380Y-124268382D02*
X122505380Y-124839810D01*
X122505380Y-124554096D02*
X121505380Y-124554096D01*
X121648238Y-124649334D01*
X121743476Y-124744572D01*
X121791095Y-124839810D01*
X141761333Y-99455286D02*
X141761333Y-98455286D01*
X141999428Y-98455286D01*
X142142285Y-98502906D01*
X142237523Y-98598144D01*
X142285142Y-98693382D01*
X142332761Y-98883858D01*
X142332761Y-99026715D01*
X142285142Y-99217191D01*
X142237523Y-99312429D01*
X142142285Y-99407667D01*
X141999428Y-99455286D01*
X141761333Y-99455286D01*
X142713714Y-99169572D02*
X143189904Y-99169572D01*
X142618476Y-99455286D02*
X142951809Y-98455286D01*
X143285142Y-99455286D01*
X144189904Y-99360048D02*
X144142285Y-99407667D01*
X143999428Y-99455286D01*
X143904190Y-99455286D01*
X143761333Y-99407667D01*
X143666095Y-99312429D01*
X143618476Y-99217191D01*
X143570857Y-99026715D01*
X143570857Y-98883858D01*
X143618476Y-98693382D01*
X143666095Y-98598144D01*
X143761333Y-98502906D01*
X143904190Y-98455286D01*
X143999428Y-98455286D01*
X144142285Y-98502906D01*
X144189904Y-98550525D01*
X144570857Y-98550525D02*
X144618476Y-98502906D01*
X144713714Y-98455286D01*
X144951809Y-98455286D01*
X145047047Y-98502906D01*
X145094666Y-98550525D01*
X145142285Y-98645763D01*
X145142285Y-98741001D01*
X145094666Y-98883858D01*
X144523238Y-99455286D01*
X145142285Y-99455286D01*
X105219428Y-104328380D02*
X105219428Y-103328380D01*
X105695619Y-104328380D02*
X105695619Y-103328380D01*
X106267047Y-104328380D01*
X106267047Y-103328380D01*
X106695619Y-104042666D02*
X107171809Y-104042666D01*
X106600380Y-104328380D02*
X106933714Y-103328380D01*
X107267047Y-104328380D01*
X108124190Y-104328380D02*
X107552761Y-104328380D01*
X107838476Y-104328380D02*
X107838476Y-103328380D01*
X107743238Y-103471238D01*
X107648000Y-103566476D01*
X107552761Y-103614095D01*
X122135142Y-107769572D02*
X122182761Y-107817191D01*
X122230380Y-107960048D01*
X122230380Y-108055286D01*
X122182761Y-108198144D01*
X122087523Y-108293382D01*
X121992285Y-108341001D01*
X121801809Y-108388620D01*
X121658952Y-108388620D01*
X121468476Y-108341001D01*
X121373238Y-108293382D01*
X121278000Y-108198144D01*
X121230380Y-108055286D01*
X121230380Y-107960048D01*
X121278000Y-107817191D01*
X121325619Y-107769572D01*
X122230380Y-106817191D02*
X122230380Y-107388620D01*
X122230380Y-107102906D02*
X121230380Y-107102906D01*
X121373238Y-107198144D01*
X121468476Y-107293382D01*
X121516095Y-107388620D01*
X123185142Y-114019572D02*
X123232761Y-114067191D01*
X123280380Y-114210048D01*
X123280380Y-114305286D01*
X123232761Y-114448144D01*
X123137523Y-114543382D01*
X123042285Y-114591001D01*
X122851809Y-114638620D01*
X122708952Y-114638620D01*
X122518476Y-114591001D01*
X122423238Y-114543382D01*
X122328000Y-114448144D01*
X122280380Y-114305286D01*
X122280380Y-114210048D01*
X122328000Y-114067191D01*
X122375619Y-114019572D01*
X122375619Y-113638620D02*
X122328000Y-113591001D01*
X122280380Y-113495763D01*
X122280380Y-113257667D01*
X122328000Y-113162429D01*
X122375619Y-113114810D01*
X122470857Y-113067191D01*
X122566095Y-113067191D01*
X122708952Y-113114810D01*
X123280380Y-113686239D01*
X123280380Y-113067191D01*
X108085142Y-114819572D02*
X108132761Y-114867191D01*
X108180380Y-115010048D01*
X108180380Y-115105286D01*
X108132761Y-115248144D01*
X108037523Y-115343382D01*
X107942285Y-115391001D01*
X107751809Y-115438620D01*
X107608952Y-115438620D01*
X107418476Y-115391001D01*
X107323238Y-115343382D01*
X107228000Y-115248144D01*
X107180380Y-115105286D01*
X107180380Y-115010048D01*
X107228000Y-114867191D01*
X107275619Y-114819572D01*
X107180380Y-114486239D02*
X107180380Y-113867191D01*
X107561333Y-114200525D01*
X107561333Y-114057667D01*
X107608952Y-113962429D01*
X107656571Y-113914810D01*
X107751809Y-113867191D01*
X107989904Y-113867191D01*
X108085142Y-113914810D01*
X108132761Y-113962429D01*
X108180380Y-114057667D01*
X108180380Y-114343382D01*
X108132761Y-114438620D01*
X108085142Y-114486239D01*
X116055142Y-102942666D02*
X116102761Y-102990285D01*
X116150380Y-103133142D01*
X116150380Y-103228380D01*
X116102761Y-103371238D01*
X116007523Y-103466476D01*
X115912285Y-103514095D01*
X115721809Y-103561714D01*
X115578952Y-103561714D01*
X115388476Y-103514095D01*
X115293238Y-103466476D01*
X115198000Y-103371238D01*
X115150380Y-103228380D01*
X115150380Y-103133142D01*
X115198000Y-102990285D01*
X115245619Y-102942666D01*
X115483714Y-102085523D02*
X116150380Y-102085523D01*
X115102761Y-102323619D02*
X115817047Y-102561714D01*
X115817047Y-101942666D01*
X118850380Y-118392666D02*
X118374190Y-118726000D01*
X118850380Y-118964095D02*
X117850380Y-118964095D01*
X117850380Y-118583142D01*
X117898000Y-118487904D01*
X117945619Y-118440285D01*
X118040857Y-118392666D01*
X118183714Y-118392666D01*
X118278952Y-118440285D01*
X118326571Y-118487904D01*
X118374190Y-118583142D01*
X118374190Y-118964095D01*
X117850380Y-117487904D02*
X117850380Y-117964095D01*
X118326571Y-118011714D01*
X118278952Y-117964095D01*
X118231333Y-117868857D01*
X118231333Y-117630761D01*
X118278952Y-117535523D01*
X118326571Y-117487904D01*
X118421809Y-117440285D01*
X118659904Y-117440285D01*
X118755142Y-117487904D01*
X118802761Y-117535523D01*
X118850380Y-117630761D01*
X118850380Y-117868857D01*
X118802761Y-117964095D01*
X118755142Y-118011714D01*
X115611333Y-118910048D02*
X115563714Y-118957667D01*
X115420857Y-119005286D01*
X115325619Y-119005286D01*
X115182761Y-118957667D01*
X115087523Y-118862429D01*
X115039904Y-118767191D01*
X114992285Y-118576715D01*
X114992285Y-118433858D01*
X115039904Y-118243382D01*
X115087523Y-118148144D01*
X115182761Y-118052906D01*
X115325619Y-118005286D01*
X115420857Y-118005286D01*
X115563714Y-118052906D01*
X115611333Y-118100525D01*
X116087523Y-119005286D02*
X116278000Y-119005286D01*
X116373238Y-118957667D01*
X116420857Y-118910048D01*
X116516095Y-118767191D01*
X116563714Y-118576715D01*
X116563714Y-118195763D01*
X116516095Y-118100525D01*
X116468476Y-118052906D01*
X116373238Y-118005286D01*
X116182761Y-118005286D01*
X116087523Y-118052906D01*
X116039904Y-118100525D01*
X115992285Y-118195763D01*
X115992285Y-118433858D01*
X116039904Y-118529096D01*
X116087523Y-118576715D01*
X116182761Y-118624334D01*
X116373238Y-118624334D01*
X116468476Y-118576715D01*
X116516095Y-118529096D01*
X116563714Y-118433858D01*
X147035142Y-108745763D02*
X147082761Y-108793382D01*
X147130380Y-108936239D01*
X147130380Y-109031477D01*
X147082761Y-109174334D01*
X146987523Y-109269572D01*
X146892285Y-109317191D01*
X146701809Y-109364810D01*
X146558952Y-109364810D01*
X146368476Y-109317191D01*
X146273238Y-109269572D01*
X146178000Y-109174334D01*
X146130380Y-109031477D01*
X146130380Y-108936239D01*
X146178000Y-108793382D01*
X146225619Y-108745763D01*
X147130380Y-107793382D02*
X147130380Y-108364810D01*
X147130380Y-108079096D02*
X146130380Y-108079096D01*
X146273238Y-108174334D01*
X146368476Y-108269572D01*
X146416095Y-108364810D01*
X146130380Y-107174334D02*
X146130380Y-107079096D01*
X146178000Y-106983858D01*
X146225619Y-106936239D01*
X146320857Y-106888620D01*
X146511333Y-106841001D01*
X146749428Y-106841001D01*
X146939904Y-106888620D01*
X147035142Y-106936239D01*
X147082761Y-106983858D01*
X147130380Y-107079096D01*
X147130380Y-107174334D01*
X147082761Y-107269572D01*
X147035142Y-107317191D01*
X146939904Y-107364810D01*
X146749428Y-107412429D01*
X146511333Y-107412429D01*
X146320857Y-107364810D01*
X146225619Y-107317191D01*
X146178000Y-107269572D01*
X146130380Y-107174334D01*
X148135142Y-114518857D02*
X148182761Y-114566476D01*
X148230380Y-114709333D01*
X148230380Y-114804571D01*
X148182761Y-114947428D01*
X148087523Y-115042666D01*
X147992285Y-115090285D01*
X147801809Y-115137904D01*
X147658952Y-115137904D01*
X147468476Y-115090285D01*
X147373238Y-115042666D01*
X147278000Y-114947428D01*
X147230380Y-114804571D01*
X147230380Y-114709333D01*
X147278000Y-114566476D01*
X147325619Y-114518857D01*
X148230380Y-113566476D02*
X148230380Y-114137904D01*
X148230380Y-113852190D02*
X147230380Y-113852190D01*
X147373238Y-113947428D01*
X147468476Y-114042666D01*
X147516095Y-114137904D01*
X148230380Y-112614095D02*
X148230380Y-113185523D01*
X148230380Y-112899809D02*
X147230380Y-112899809D01*
X147373238Y-112995047D01*
X147468476Y-113090285D01*
X147516095Y-113185523D01*
X133085142Y-115295763D02*
X133132761Y-115343382D01*
X133180380Y-115486239D01*
X133180380Y-115581477D01*
X133132761Y-115724334D01*
X133037523Y-115819572D01*
X132942285Y-115867191D01*
X132751809Y-115914810D01*
X132608952Y-115914810D01*
X132418476Y-115867191D01*
X132323238Y-115819572D01*
X132228000Y-115724334D01*
X132180380Y-115581477D01*
X132180380Y-115486239D01*
X132228000Y-115343382D01*
X132275619Y-115295763D01*
X133180380Y-114343382D02*
X133180380Y-114914810D01*
X133180380Y-114629096D02*
X132180380Y-114629096D01*
X132323238Y-114724334D01*
X132418476Y-114819572D01*
X132466095Y-114914810D01*
X132275619Y-113962429D02*
X132228000Y-113914810D01*
X132180380Y-113819572D01*
X132180380Y-113581477D01*
X132228000Y-113486239D01*
X132275619Y-113438620D01*
X132370857Y-113391001D01*
X132466095Y-113391001D01*
X132608952Y-113438620D01*
X133180380Y-114010048D01*
X133180380Y-113391001D01*
X141055142Y-103418857D02*
X141102761Y-103466476D01*
X141150380Y-103609333D01*
X141150380Y-103704571D01*
X141102761Y-103847428D01*
X141007523Y-103942666D01*
X140912285Y-103990285D01*
X140721809Y-104037904D01*
X140578952Y-104037904D01*
X140388476Y-103990285D01*
X140293238Y-103942666D01*
X140198000Y-103847428D01*
X140150380Y-103704571D01*
X140150380Y-103609333D01*
X140198000Y-103466476D01*
X140245619Y-103418857D01*
X141150380Y-102466476D02*
X141150380Y-103037904D01*
X141150380Y-102752190D02*
X140150380Y-102752190D01*
X140293238Y-102847428D01*
X140388476Y-102942666D01*
X140436095Y-103037904D01*
X140150380Y-102133142D02*
X140150380Y-101514095D01*
X140531333Y-101847428D01*
X140531333Y-101704571D01*
X140578952Y-101609333D01*
X140626571Y-101561714D01*
X140721809Y-101514095D01*
X140959904Y-101514095D01*
X141055142Y-101561714D01*
X141102761Y-101609333D01*
X141150380Y-101704571D01*
X141150380Y-101990285D01*
X141102761Y-102085523D01*
X141055142Y-102133142D01*
X141105142Y-114768857D02*
X141152761Y-114816476D01*
X141200380Y-114959333D01*
X141200380Y-115054571D01*
X141152761Y-115197428D01*
X141057523Y-115292666D01*
X140962285Y-115340285D01*
X140771809Y-115387904D01*
X140628952Y-115387904D01*
X140438476Y-115340285D01*
X140343238Y-115292666D01*
X140248000Y-115197428D01*
X140200380Y-115054571D01*
X140200380Y-114959333D01*
X140248000Y-114816476D01*
X140295619Y-114768857D01*
X141200380Y-113816476D02*
X141200380Y-114387904D01*
X141200380Y-114102190D02*
X140200380Y-114102190D01*
X140343238Y-114197428D01*
X140438476Y-114292666D01*
X140486095Y-114387904D01*
X140533714Y-112959333D02*
X141200380Y-112959333D01*
X140152761Y-113197428D02*
X140867047Y-113435523D01*
X140867047Y-112816476D01*
X127935142Y-105645763D02*
X127982761Y-105693382D01*
X128030380Y-105836239D01*
X128030380Y-105931477D01*
X127982761Y-106074334D01*
X127887523Y-106169572D01*
X127792285Y-106217191D01*
X127601809Y-106264810D01*
X127458952Y-106264810D01*
X127268476Y-106217191D01*
X127173238Y-106169572D01*
X127078000Y-106074334D01*
X127030380Y-105931477D01*
X127030380Y-105836239D01*
X127078000Y-105693382D01*
X127125619Y-105645763D01*
X128030380Y-104693382D02*
X128030380Y-105264810D01*
X128030380Y-104979096D02*
X127030380Y-104979096D01*
X127173238Y-105074334D01*
X127268476Y-105169572D01*
X127316095Y-105264810D01*
X127030380Y-103788620D02*
X127030380Y-104264810D01*
X127506571Y-104312429D01*
X127458952Y-104264810D01*
X127411333Y-104169572D01*
X127411333Y-103931477D01*
X127458952Y-103836239D01*
X127506571Y-103788620D01*
X127601809Y-103741001D01*
X127839904Y-103741001D01*
X127935142Y-103788620D01*
X127982761Y-103836239D01*
X128030380Y-103931477D01*
X128030380Y-104169572D01*
X127982761Y-104264810D01*
X127935142Y-104312429D01*
X140160142Y-118885048D02*
X140112523Y-118932667D01*
X139969666Y-118980286D01*
X139874428Y-118980286D01*
X139731571Y-118932667D01*
X139636333Y-118837429D01*
X139588714Y-118742191D01*
X139541095Y-118551715D01*
X139541095Y-118408858D01*
X139588714Y-118218382D01*
X139636333Y-118123144D01*
X139731571Y-118027906D01*
X139874428Y-117980286D01*
X139969666Y-117980286D01*
X140112523Y-118027906D01*
X140160142Y-118075525D01*
X141112523Y-118980286D02*
X140541095Y-118980286D01*
X140826809Y-118980286D02*
X140826809Y-117980286D01*
X140731571Y-118123144D01*
X140636333Y-118218382D01*
X140541095Y-118266001D01*
X141683952Y-118408858D02*
X141588714Y-118361239D01*
X141541095Y-118313620D01*
X141493476Y-118218382D01*
X141493476Y-118170763D01*
X141541095Y-118075525D01*
X141588714Y-118027906D01*
X141683952Y-117980286D01*
X141874428Y-117980286D01*
X141969666Y-118027906D01*
X142017285Y-118075525D01*
X142064904Y-118170763D01*
X142064904Y-118218382D01*
X142017285Y-118313620D01*
X141969666Y-118361239D01*
X141874428Y-118408858D01*
X141683952Y-118408858D01*
X141588714Y-118456477D01*
X141541095Y-118504096D01*
X141493476Y-118599334D01*
X141493476Y-118789810D01*
X141541095Y-118885048D01*
X141588714Y-118932667D01*
X141683952Y-118980286D01*
X141874428Y-118980286D01*
X141969666Y-118932667D01*
X142017285Y-118885048D01*
X142064904Y-118789810D01*
X142064904Y-118599334D01*
X142017285Y-118504096D01*
X141969666Y-118456477D01*
X141874428Y-118408858D01*
X173385142Y-105395763D02*
X173432761Y-105443382D01*
X173480380Y-105586239D01*
X173480380Y-105681477D01*
X173432761Y-105824334D01*
X173337523Y-105919572D01*
X173242285Y-105967191D01*
X173051809Y-106014810D01*
X172908952Y-106014810D01*
X172718476Y-105967191D01*
X172623238Y-105919572D01*
X172528000Y-105824334D01*
X172480380Y-105681477D01*
X172480380Y-105586239D01*
X172528000Y-105443382D01*
X172575619Y-105395763D01*
X173480380Y-104443382D02*
X173480380Y-105014810D01*
X173480380Y-104729096D02*
X172480380Y-104729096D01*
X172623238Y-104824334D01*
X172718476Y-104919572D01*
X172766095Y-105014810D01*
X173480380Y-103967191D02*
X173480380Y-103776715D01*
X173432761Y-103681477D01*
X173385142Y-103633858D01*
X173242285Y-103538620D01*
X173051809Y-103491001D01*
X172670857Y-103491001D01*
X172575619Y-103538620D01*
X172528000Y-103586239D01*
X172480380Y-103681477D01*
X172480380Y-103871953D01*
X172528000Y-103967191D01*
X172575619Y-104014810D01*
X172670857Y-104062429D01*
X172908952Y-104062429D01*
X173004190Y-104014810D01*
X173051809Y-103967191D01*
X173099428Y-103871953D01*
X173099428Y-103681477D01*
X173051809Y-103586239D01*
X173004190Y-103538620D01*
X172908952Y-103491001D01*
X173185142Y-114518857D02*
X173232761Y-114566476D01*
X173280380Y-114709333D01*
X173280380Y-114804571D01*
X173232761Y-114947428D01*
X173137523Y-115042666D01*
X173042285Y-115090285D01*
X172851809Y-115137904D01*
X172708952Y-115137904D01*
X172518476Y-115090285D01*
X172423238Y-115042666D01*
X172328000Y-114947428D01*
X172280380Y-114804571D01*
X172280380Y-114709333D01*
X172328000Y-114566476D01*
X172375619Y-114518857D01*
X172375619Y-114137904D02*
X172328000Y-114090285D01*
X172280380Y-113995047D01*
X172280380Y-113756952D01*
X172328000Y-113661714D01*
X172375619Y-113614095D01*
X172470857Y-113566476D01*
X172566095Y-113566476D01*
X172708952Y-113614095D01*
X173280380Y-114185523D01*
X173280380Y-113566476D01*
X172280380Y-112947428D02*
X172280380Y-112852190D01*
X172328000Y-112756952D01*
X172375619Y-112709333D01*
X172470857Y-112661714D01*
X172661333Y-112614095D01*
X172899428Y-112614095D01*
X173089904Y-112661714D01*
X173185142Y-112709333D01*
X173232761Y-112756952D01*
X173280380Y-112852190D01*
X173280380Y-112947428D01*
X173232761Y-113042666D01*
X173185142Y-113090285D01*
X173089904Y-113137904D01*
X172899428Y-113185523D01*
X172661333Y-113185523D01*
X172470857Y-113137904D01*
X172375619Y-113090285D01*
X172328000Y-113042666D01*
X172280380Y-112947428D01*
X158085142Y-115295763D02*
X158132761Y-115343382D01*
X158180380Y-115486239D01*
X158180380Y-115581477D01*
X158132761Y-115724334D01*
X158037523Y-115819572D01*
X157942285Y-115867191D01*
X157751809Y-115914810D01*
X157608952Y-115914810D01*
X157418476Y-115867191D01*
X157323238Y-115819572D01*
X157228000Y-115724334D01*
X157180380Y-115581477D01*
X157180380Y-115486239D01*
X157228000Y-115343382D01*
X157275619Y-115295763D01*
X157275619Y-114914810D02*
X157228000Y-114867191D01*
X157180380Y-114771953D01*
X157180380Y-114533858D01*
X157228000Y-114438620D01*
X157275619Y-114391001D01*
X157370857Y-114343382D01*
X157466095Y-114343382D01*
X157608952Y-114391001D01*
X158180380Y-114962429D01*
X158180380Y-114343382D01*
X158180380Y-113391001D02*
X158180380Y-113962429D01*
X158180380Y-113676715D02*
X157180380Y-113676715D01*
X157323238Y-113771953D01*
X157418476Y-113867191D01*
X157466095Y-113962429D01*
X166055142Y-103418857D02*
X166102761Y-103466476D01*
X166150380Y-103609333D01*
X166150380Y-103704571D01*
X166102761Y-103847428D01*
X166007523Y-103942666D01*
X165912285Y-103990285D01*
X165721809Y-104037904D01*
X165578952Y-104037904D01*
X165388476Y-103990285D01*
X165293238Y-103942666D01*
X165198000Y-103847428D01*
X165150380Y-103704571D01*
X165150380Y-103609333D01*
X165198000Y-103466476D01*
X165245619Y-103418857D01*
X165245619Y-103037904D02*
X165198000Y-102990285D01*
X165150380Y-102895047D01*
X165150380Y-102656952D01*
X165198000Y-102561714D01*
X165245619Y-102514095D01*
X165340857Y-102466476D01*
X165436095Y-102466476D01*
X165578952Y-102514095D01*
X166150380Y-103085523D01*
X166150380Y-102466476D01*
X165245619Y-102085523D02*
X165198000Y-102037904D01*
X165150380Y-101942666D01*
X165150380Y-101704571D01*
X165198000Y-101609333D01*
X165245619Y-101561714D01*
X165340857Y-101514095D01*
X165436095Y-101514095D01*
X165578952Y-101561714D01*
X166150380Y-102133142D01*
X166150380Y-101514095D01*
X166105142Y-114768857D02*
X166152761Y-114816476D01*
X166200380Y-114959333D01*
X166200380Y-115054571D01*
X166152761Y-115197428D01*
X166057523Y-115292666D01*
X165962285Y-115340285D01*
X165771809Y-115387904D01*
X165628952Y-115387904D01*
X165438476Y-115340285D01*
X165343238Y-115292666D01*
X165248000Y-115197428D01*
X165200380Y-115054571D01*
X165200380Y-114959333D01*
X165248000Y-114816476D01*
X165295619Y-114768857D01*
X165295619Y-114387904D02*
X165248000Y-114340285D01*
X165200380Y-114245047D01*
X165200380Y-114006952D01*
X165248000Y-113911714D01*
X165295619Y-113864095D01*
X165390857Y-113816476D01*
X165486095Y-113816476D01*
X165628952Y-113864095D01*
X166200380Y-114435523D01*
X166200380Y-113816476D01*
X165200380Y-113483142D02*
X165200380Y-112864095D01*
X165581333Y-113197428D01*
X165581333Y-113054571D01*
X165628952Y-112959333D01*
X165676571Y-112911714D01*
X165771809Y-112864095D01*
X166009904Y-112864095D01*
X166105142Y-112911714D01*
X166152761Y-112959333D01*
X166200380Y-113054571D01*
X166200380Y-113340285D01*
X166152761Y-113435523D01*
X166105142Y-113483142D01*
X152935142Y-105645763D02*
X152982761Y-105693382D01*
X153030380Y-105836239D01*
X153030380Y-105931477D01*
X152982761Y-106074334D01*
X152887523Y-106169572D01*
X152792285Y-106217191D01*
X152601809Y-106264810D01*
X152458952Y-106264810D01*
X152268476Y-106217191D01*
X152173238Y-106169572D01*
X152078000Y-106074334D01*
X152030380Y-105931477D01*
X152030380Y-105836239D01*
X152078000Y-105693382D01*
X152125619Y-105645763D01*
X152125619Y-105264810D02*
X152078000Y-105217191D01*
X152030380Y-105121953D01*
X152030380Y-104883858D01*
X152078000Y-104788620D01*
X152125619Y-104741001D01*
X152220857Y-104693382D01*
X152316095Y-104693382D01*
X152458952Y-104741001D01*
X153030380Y-105312429D01*
X153030380Y-104693382D01*
X152363714Y-103836239D02*
X153030380Y-103836239D01*
X151982761Y-104074334D02*
X152697047Y-104312429D01*
X152697047Y-103693382D01*
X165185142Y-118860048D02*
X165137523Y-118907667D01*
X164994666Y-118955286D01*
X164899428Y-118955286D01*
X164756571Y-118907667D01*
X164661333Y-118812429D01*
X164613714Y-118717191D01*
X164566095Y-118526715D01*
X164566095Y-118383858D01*
X164613714Y-118193382D01*
X164661333Y-118098144D01*
X164756571Y-118002906D01*
X164899428Y-117955286D01*
X164994666Y-117955286D01*
X165137523Y-118002906D01*
X165185142Y-118050525D01*
X165566095Y-118050525D02*
X165613714Y-118002906D01*
X165708952Y-117955286D01*
X165947047Y-117955286D01*
X166042285Y-118002906D01*
X166089904Y-118050525D01*
X166137523Y-118145763D01*
X166137523Y-118241001D01*
X166089904Y-118383858D01*
X165518476Y-118955286D01*
X166137523Y-118955286D01*
X166470857Y-117955286D02*
X167137523Y-117955286D01*
X166708952Y-118955286D01*
X197085142Y-108895763D02*
X197132761Y-108943382D01*
X197180380Y-109086239D01*
X197180380Y-109181477D01*
X197132761Y-109324334D01*
X197037523Y-109419572D01*
X196942285Y-109467191D01*
X196751809Y-109514810D01*
X196608952Y-109514810D01*
X196418476Y-109467191D01*
X196323238Y-109419572D01*
X196228000Y-109324334D01*
X196180380Y-109181477D01*
X196180380Y-109086239D01*
X196228000Y-108943382D01*
X196275619Y-108895763D01*
X196275619Y-108514810D02*
X196228000Y-108467191D01*
X196180380Y-108371953D01*
X196180380Y-108133858D01*
X196228000Y-108038620D01*
X196275619Y-107991001D01*
X196370857Y-107943382D01*
X196466095Y-107943382D01*
X196608952Y-107991001D01*
X197180380Y-108562429D01*
X197180380Y-107943382D01*
X196608952Y-107371953D02*
X196561333Y-107467191D01*
X196513714Y-107514810D01*
X196418476Y-107562429D01*
X196370857Y-107562429D01*
X196275619Y-107514810D01*
X196228000Y-107467191D01*
X196180380Y-107371953D01*
X196180380Y-107181477D01*
X196228000Y-107086239D01*
X196275619Y-107038620D01*
X196370857Y-106991001D01*
X196418476Y-106991001D01*
X196513714Y-107038620D01*
X196561333Y-107086239D01*
X196608952Y-107181477D01*
X196608952Y-107371953D01*
X196656571Y-107467191D01*
X196704190Y-107514810D01*
X196799428Y-107562429D01*
X196989904Y-107562429D01*
X197085142Y-107514810D01*
X197132761Y-107467191D01*
X197180380Y-107371953D01*
X197180380Y-107181477D01*
X197132761Y-107086239D01*
X197085142Y-107038620D01*
X196989904Y-106991001D01*
X196799428Y-106991001D01*
X196704190Y-107038620D01*
X196656571Y-107086239D01*
X196608952Y-107181477D01*
X196935142Y-117945763D02*
X196982761Y-117993382D01*
X197030380Y-118136239D01*
X197030380Y-118231477D01*
X196982761Y-118374334D01*
X196887523Y-118469572D01*
X196792285Y-118517191D01*
X196601809Y-118564810D01*
X196458952Y-118564810D01*
X196268476Y-118517191D01*
X196173238Y-118469572D01*
X196078000Y-118374334D01*
X196030380Y-118231477D01*
X196030380Y-118136239D01*
X196078000Y-117993382D01*
X196125619Y-117945763D01*
X196125619Y-117564810D02*
X196078000Y-117517191D01*
X196030380Y-117421953D01*
X196030380Y-117183858D01*
X196078000Y-117088620D01*
X196125619Y-117041001D01*
X196220857Y-116993382D01*
X196316095Y-116993382D01*
X196458952Y-117041001D01*
X197030380Y-117612429D01*
X197030380Y-116993382D01*
X197030380Y-116517191D02*
X197030380Y-116326715D01*
X196982761Y-116231477D01*
X196935142Y-116183858D01*
X196792285Y-116088620D01*
X196601809Y-116041001D01*
X196220857Y-116041001D01*
X196125619Y-116088620D01*
X196078000Y-116136239D01*
X196030380Y-116231477D01*
X196030380Y-116421953D01*
X196078000Y-116517191D01*
X196125619Y-116564810D01*
X196220857Y-116612429D01*
X196458952Y-116612429D01*
X196554190Y-116564810D01*
X196601809Y-116517191D01*
X196649428Y-116421953D01*
X196649428Y-116231477D01*
X196601809Y-116136239D01*
X196554190Y-116088620D01*
X196458952Y-116041001D01*
X183085142Y-115295763D02*
X183132761Y-115343382D01*
X183180380Y-115486239D01*
X183180380Y-115581477D01*
X183132761Y-115724334D01*
X183037523Y-115819572D01*
X182942285Y-115867191D01*
X182751809Y-115914810D01*
X182608952Y-115914810D01*
X182418476Y-115867191D01*
X182323238Y-115819572D01*
X182228000Y-115724334D01*
X182180380Y-115581477D01*
X182180380Y-115486239D01*
X182228000Y-115343382D01*
X182275619Y-115295763D01*
X182180380Y-114962429D02*
X182180380Y-114343382D01*
X182561333Y-114676715D01*
X182561333Y-114533858D01*
X182608952Y-114438620D01*
X182656571Y-114391001D01*
X182751809Y-114343382D01*
X182989904Y-114343382D01*
X183085142Y-114391001D01*
X183132761Y-114438620D01*
X183180380Y-114533858D01*
X183180380Y-114819572D01*
X183132761Y-114914810D01*
X183085142Y-114962429D01*
X182180380Y-113724334D02*
X182180380Y-113629096D01*
X182228000Y-113533858D01*
X182275619Y-113486239D01*
X182370857Y-113438620D01*
X182561333Y-113391001D01*
X182799428Y-113391001D01*
X182989904Y-113438620D01*
X183085142Y-113486239D01*
X183132761Y-113533858D01*
X183180380Y-113629096D01*
X183180380Y-113724334D01*
X183132761Y-113819572D01*
X183085142Y-113867191D01*
X182989904Y-113914810D01*
X182799428Y-113962429D01*
X182561333Y-113962429D01*
X182370857Y-113914810D01*
X182275619Y-113867191D01*
X182228000Y-113819572D01*
X182180380Y-113724334D01*
X191055142Y-103418857D02*
X191102761Y-103466476D01*
X191150380Y-103609333D01*
X191150380Y-103704571D01*
X191102761Y-103847428D01*
X191007523Y-103942666D01*
X190912285Y-103990285D01*
X190721809Y-104037904D01*
X190578952Y-104037904D01*
X190388476Y-103990285D01*
X190293238Y-103942666D01*
X190198000Y-103847428D01*
X190150380Y-103704571D01*
X190150380Y-103609333D01*
X190198000Y-103466476D01*
X190245619Y-103418857D01*
X190150380Y-103085523D02*
X190150380Y-102466476D01*
X190531333Y-102799809D01*
X190531333Y-102656952D01*
X190578952Y-102561714D01*
X190626571Y-102514095D01*
X190721809Y-102466476D01*
X190959904Y-102466476D01*
X191055142Y-102514095D01*
X191102761Y-102561714D01*
X191150380Y-102656952D01*
X191150380Y-102942666D01*
X191102761Y-103037904D01*
X191055142Y-103085523D01*
X191150380Y-101514095D02*
X191150380Y-102085523D01*
X191150380Y-101799809D02*
X190150380Y-101799809D01*
X190293238Y-101895047D01*
X190388476Y-101990285D01*
X190436095Y-102085523D01*
X191105142Y-114768857D02*
X191152761Y-114816476D01*
X191200380Y-114959333D01*
X191200380Y-115054571D01*
X191152761Y-115197428D01*
X191057523Y-115292666D01*
X190962285Y-115340285D01*
X190771809Y-115387904D01*
X190628952Y-115387904D01*
X190438476Y-115340285D01*
X190343238Y-115292666D01*
X190248000Y-115197428D01*
X190200380Y-115054571D01*
X190200380Y-114959333D01*
X190248000Y-114816476D01*
X190295619Y-114768857D01*
X190200380Y-114435523D02*
X190200380Y-113816476D01*
X190581333Y-114149809D01*
X190581333Y-114006952D01*
X190628952Y-113911714D01*
X190676571Y-113864095D01*
X190771809Y-113816476D01*
X191009904Y-113816476D01*
X191105142Y-113864095D01*
X191152761Y-113911714D01*
X191200380Y-114006952D01*
X191200380Y-114292666D01*
X191152761Y-114387904D01*
X191105142Y-114435523D01*
X190295619Y-113435523D02*
X190248000Y-113387904D01*
X190200380Y-113292666D01*
X190200380Y-113054571D01*
X190248000Y-112959333D01*
X190295619Y-112911714D01*
X190390857Y-112864095D01*
X190486095Y-112864095D01*
X190628952Y-112911714D01*
X191200380Y-113483142D01*
X191200380Y-112864095D01*
X177935142Y-105645763D02*
X177982761Y-105693382D01*
X178030380Y-105836239D01*
X178030380Y-105931477D01*
X177982761Y-106074334D01*
X177887523Y-106169572D01*
X177792285Y-106217191D01*
X177601809Y-106264810D01*
X177458952Y-106264810D01*
X177268476Y-106217191D01*
X177173238Y-106169572D01*
X177078000Y-106074334D01*
X177030380Y-105931477D01*
X177030380Y-105836239D01*
X177078000Y-105693382D01*
X177125619Y-105645763D01*
X177030380Y-105312429D02*
X177030380Y-104693382D01*
X177411333Y-105026715D01*
X177411333Y-104883858D01*
X177458952Y-104788620D01*
X177506571Y-104741001D01*
X177601809Y-104693382D01*
X177839904Y-104693382D01*
X177935142Y-104741001D01*
X177982761Y-104788620D01*
X178030380Y-104883858D01*
X178030380Y-105169572D01*
X177982761Y-105264810D01*
X177935142Y-105312429D01*
X177030380Y-104360048D02*
X177030380Y-103741001D01*
X177411333Y-104074334D01*
X177411333Y-103931477D01*
X177458952Y-103836239D01*
X177506571Y-103788620D01*
X177601809Y-103741001D01*
X177839904Y-103741001D01*
X177935142Y-103788620D01*
X177982761Y-103836239D01*
X178030380Y-103931477D01*
X178030380Y-104217191D01*
X177982761Y-104312429D01*
X177935142Y-104360048D01*
X190235142Y-118860048D02*
X190187523Y-118907667D01*
X190044666Y-118955286D01*
X189949428Y-118955286D01*
X189806571Y-118907667D01*
X189711333Y-118812429D01*
X189663714Y-118717191D01*
X189616095Y-118526715D01*
X189616095Y-118383858D01*
X189663714Y-118193382D01*
X189711333Y-118098144D01*
X189806571Y-118002906D01*
X189949428Y-117955286D01*
X190044666Y-117955286D01*
X190187523Y-118002906D01*
X190235142Y-118050525D01*
X190568476Y-117955286D02*
X191187523Y-117955286D01*
X190854190Y-118336239D01*
X190997047Y-118336239D01*
X191092285Y-118383858D01*
X191139904Y-118431477D01*
X191187523Y-118526715D01*
X191187523Y-118764810D01*
X191139904Y-118860048D01*
X191092285Y-118907667D01*
X190997047Y-118955286D01*
X190711333Y-118955286D01*
X190616095Y-118907667D01*
X190568476Y-118860048D01*
X192044666Y-117955286D02*
X191854190Y-117955286D01*
X191758952Y-118002906D01*
X191711333Y-118050525D01*
X191616095Y-118193382D01*
X191568476Y-118383858D01*
X191568476Y-118764810D01*
X191616095Y-118860048D01*
X191663714Y-118907667D01*
X191758952Y-118955286D01*
X191949428Y-118955286D01*
X192044666Y-118907667D01*
X192092285Y-118860048D01*
X192139904Y-118764810D01*
X192139904Y-118526715D01*
X192092285Y-118431477D01*
X192044666Y-118383858D01*
X191949428Y-118336239D01*
X191758952Y-118336239D01*
X191663714Y-118383858D01*
X191616095Y-118431477D01*
X191568476Y-118526715D01*
X174285142Y-71345763D02*
X174332761Y-71393382D01*
X174380380Y-71536239D01*
X174380380Y-71631477D01*
X174332761Y-71774334D01*
X174237523Y-71869572D01*
X174142285Y-71917191D01*
X173951809Y-71964810D01*
X173808952Y-71964810D01*
X173618476Y-71917191D01*
X173523238Y-71869572D01*
X173428000Y-71774334D01*
X173380380Y-71631477D01*
X173380380Y-71536239D01*
X173428000Y-71393382D01*
X173475619Y-71345763D01*
X173380380Y-71012429D02*
X173380380Y-70393382D01*
X173761333Y-70726715D01*
X173761333Y-70583858D01*
X173808952Y-70488620D01*
X173856571Y-70441001D01*
X173951809Y-70393382D01*
X174189904Y-70393382D01*
X174285142Y-70441001D01*
X174332761Y-70488620D01*
X174380380Y-70583858D01*
X174380380Y-70869572D01*
X174332761Y-70964810D01*
X174285142Y-71012429D01*
X173380380Y-70060048D02*
X173380380Y-69393382D01*
X174380380Y-69821953D01*
X174485142Y-62245763D02*
X174532761Y-62293382D01*
X174580380Y-62436239D01*
X174580380Y-62531477D01*
X174532761Y-62674334D01*
X174437523Y-62769572D01*
X174342285Y-62817191D01*
X174151809Y-62864810D01*
X174008952Y-62864810D01*
X173818476Y-62817191D01*
X173723238Y-62769572D01*
X173628000Y-62674334D01*
X173580380Y-62531477D01*
X173580380Y-62436239D01*
X173628000Y-62293382D01*
X173675619Y-62245763D01*
X173580380Y-61912429D02*
X173580380Y-61293382D01*
X173961333Y-61626715D01*
X173961333Y-61483858D01*
X174008952Y-61388620D01*
X174056571Y-61341001D01*
X174151809Y-61293382D01*
X174389904Y-61293382D01*
X174485142Y-61341001D01*
X174532761Y-61388620D01*
X174580380Y-61483858D01*
X174580380Y-61769572D01*
X174532761Y-61864810D01*
X174485142Y-61912429D01*
X174008952Y-60721953D02*
X173961333Y-60817191D01*
X173913714Y-60864810D01*
X173818476Y-60912429D01*
X173770857Y-60912429D01*
X173675619Y-60864810D01*
X173628000Y-60817191D01*
X173580380Y-60721953D01*
X173580380Y-60531477D01*
X173628000Y-60436239D01*
X173675619Y-60388620D01*
X173770857Y-60341001D01*
X173818476Y-60341001D01*
X173913714Y-60388620D01*
X173961333Y-60436239D01*
X174008952Y-60531477D01*
X174008952Y-60721953D01*
X174056571Y-60817191D01*
X174104190Y-60864810D01*
X174199428Y-60912429D01*
X174389904Y-60912429D01*
X174485142Y-60864810D01*
X174532761Y-60817191D01*
X174580380Y-60721953D01*
X174580380Y-60531477D01*
X174532761Y-60436239D01*
X174485142Y-60388620D01*
X174389904Y-60341001D01*
X174199428Y-60341001D01*
X174104190Y-60388620D01*
X174056571Y-60436239D01*
X174008952Y-60531477D01*
X189387284Y-61495763D02*
X189434903Y-61543382D01*
X189482522Y-61686239D01*
X189482522Y-61781477D01*
X189434903Y-61924334D01*
X189339665Y-62019572D01*
X189244427Y-62067191D01*
X189053951Y-62114810D01*
X188911094Y-62114810D01*
X188720618Y-62067191D01*
X188625380Y-62019572D01*
X188530142Y-61924334D01*
X188482522Y-61781477D01*
X188482522Y-61686239D01*
X188530142Y-61543382D01*
X188577761Y-61495763D01*
X188482522Y-61162429D02*
X188482522Y-60543382D01*
X188863475Y-60876715D01*
X188863475Y-60733858D01*
X188911094Y-60638620D01*
X188958713Y-60591001D01*
X189053951Y-60543382D01*
X189292046Y-60543382D01*
X189387284Y-60591001D01*
X189434903Y-60638620D01*
X189482522Y-60733858D01*
X189482522Y-61019572D01*
X189434903Y-61114810D01*
X189387284Y-61162429D01*
X189482522Y-60067191D02*
X189482522Y-59876715D01*
X189434903Y-59781477D01*
X189387284Y-59733858D01*
X189244427Y-59638620D01*
X189053951Y-59591001D01*
X188672999Y-59591001D01*
X188577761Y-59638620D01*
X188530142Y-59686239D01*
X188482522Y-59781477D01*
X188482522Y-59971953D01*
X188530142Y-60067191D01*
X188577761Y-60114810D01*
X188672999Y-60162429D01*
X188911094Y-60162429D01*
X189006332Y-60114810D01*
X189053951Y-60067191D01*
X189101570Y-59971953D01*
X189101570Y-59781477D01*
X189053951Y-59686239D01*
X189006332Y-59638620D01*
X188911094Y-59591001D01*
X181417284Y-73372669D02*
X181464903Y-73420288D01*
X181512522Y-73563145D01*
X181512522Y-73658383D01*
X181464903Y-73801240D01*
X181369665Y-73896478D01*
X181274427Y-73944097D01*
X181083951Y-73991716D01*
X180941094Y-73991716D01*
X180750618Y-73944097D01*
X180655380Y-73896478D01*
X180560142Y-73801240D01*
X180512522Y-73658383D01*
X180512522Y-73563145D01*
X180560142Y-73420288D01*
X180607761Y-73372669D01*
X180845856Y-72515526D02*
X181512522Y-72515526D01*
X180464903Y-72753621D02*
X181179189Y-72991716D01*
X181179189Y-72372669D01*
X180512522Y-71801240D02*
X180512522Y-71706002D01*
X180560142Y-71610764D01*
X180607761Y-71563145D01*
X180702999Y-71515526D01*
X180893475Y-71467907D01*
X181131570Y-71467907D01*
X181322046Y-71515526D01*
X181417284Y-71563145D01*
X181464903Y-71610764D01*
X181512522Y-71706002D01*
X181512522Y-71801240D01*
X181464903Y-71896478D01*
X181417284Y-71944097D01*
X181322046Y-71991716D01*
X181131570Y-72039335D01*
X180893475Y-72039335D01*
X180702999Y-71991716D01*
X180607761Y-71944097D01*
X180560142Y-71896478D01*
X180512522Y-71801240D01*
X181367284Y-62022669D02*
X181414903Y-62070288D01*
X181462522Y-62213145D01*
X181462522Y-62308383D01*
X181414903Y-62451240D01*
X181319665Y-62546478D01*
X181224427Y-62594097D01*
X181033951Y-62641716D01*
X180891094Y-62641716D01*
X180700618Y-62594097D01*
X180605380Y-62546478D01*
X180510142Y-62451240D01*
X180462522Y-62308383D01*
X180462522Y-62213145D01*
X180510142Y-62070288D01*
X180557761Y-62022669D01*
X180795856Y-61165526D02*
X181462522Y-61165526D01*
X180414903Y-61403621D02*
X181129189Y-61641716D01*
X181129189Y-61022669D01*
X181462522Y-60117907D02*
X181462522Y-60689335D01*
X181462522Y-60403621D02*
X180462522Y-60403621D01*
X180605380Y-60498859D01*
X180700618Y-60594097D01*
X180748237Y-60689335D01*
X194537284Y-71145763D02*
X194584903Y-71193382D01*
X194632522Y-71336239D01*
X194632522Y-71431477D01*
X194584903Y-71574334D01*
X194489665Y-71669572D01*
X194394427Y-71717191D01*
X194203951Y-71764810D01*
X194061094Y-71764810D01*
X193870618Y-71717191D01*
X193775380Y-71669572D01*
X193680142Y-71574334D01*
X193632522Y-71431477D01*
X193632522Y-71336239D01*
X193680142Y-71193382D01*
X193727761Y-71145763D01*
X193965856Y-70288620D02*
X194632522Y-70288620D01*
X193584903Y-70526715D02*
X194299189Y-70764810D01*
X194299189Y-70145763D01*
X193727761Y-69812429D02*
X193680142Y-69764810D01*
X193632522Y-69669572D01*
X193632522Y-69431477D01*
X193680142Y-69336239D01*
X193727761Y-69288620D01*
X193822999Y-69241001D01*
X193918237Y-69241001D01*
X194061094Y-69288620D01*
X194632522Y-69860048D01*
X194632522Y-69241001D01*
X180235142Y-57610048D02*
X180187523Y-57657667D01*
X180044666Y-57705286D01*
X179949428Y-57705286D01*
X179806571Y-57657667D01*
X179711333Y-57562429D01*
X179663714Y-57467191D01*
X179616095Y-57276715D01*
X179616095Y-57133858D01*
X179663714Y-56943382D01*
X179711333Y-56848144D01*
X179806571Y-56752906D01*
X179949428Y-56705286D01*
X180044666Y-56705286D01*
X180187523Y-56752906D01*
X180235142Y-56800525D01*
X181092285Y-57038620D02*
X181092285Y-57705286D01*
X180854190Y-56657667D02*
X180616095Y-57371953D01*
X181235142Y-57371953D01*
X182092285Y-56705286D02*
X181616095Y-56705286D01*
X181568476Y-57181477D01*
X181616095Y-57133858D01*
X181711333Y-57086239D01*
X181949428Y-57086239D01*
X182044666Y-57133858D01*
X182092285Y-57181477D01*
X182139904Y-57276715D01*
X182139904Y-57514810D01*
X182092285Y-57610048D01*
X182044666Y-57657667D01*
X181949428Y-57705286D01*
X181711333Y-57705286D01*
X181616095Y-57657667D01*
X181568476Y-57610048D01*
X150460142Y-75045763D02*
X150507761Y-75093382D01*
X150555380Y-75236239D01*
X150555380Y-75331477D01*
X150507761Y-75474334D01*
X150412523Y-75569572D01*
X150317285Y-75617191D01*
X150126809Y-75664810D01*
X149983952Y-75664810D01*
X149793476Y-75617191D01*
X149698238Y-75569572D01*
X149603000Y-75474334D01*
X149555380Y-75331477D01*
X149555380Y-75236239D01*
X149603000Y-75093382D01*
X149650619Y-75045763D01*
X149888714Y-74188620D02*
X150555380Y-74188620D01*
X149507761Y-74426715D02*
X150222047Y-74664810D01*
X150222047Y-74045763D01*
X149555380Y-73236239D02*
X149555380Y-73426715D01*
X149603000Y-73521953D01*
X149650619Y-73569572D01*
X149793476Y-73664810D01*
X149983952Y-73712429D01*
X150364904Y-73712429D01*
X150460142Y-73664810D01*
X150507761Y-73617191D01*
X150555380Y-73521953D01*
X150555380Y-73331477D01*
X150507761Y-73236239D01*
X150460142Y-73188620D01*
X150364904Y-73141001D01*
X150126809Y-73141001D01*
X150031571Y-73188620D01*
X149983952Y-73236239D01*
X149936333Y-73331477D01*
X149936333Y-73521953D01*
X149983952Y-73617191D01*
X150031571Y-73664810D01*
X150126809Y-73712429D01*
X150660142Y-65970763D02*
X150707761Y-66018382D01*
X150755380Y-66161239D01*
X150755380Y-66256477D01*
X150707761Y-66399334D01*
X150612523Y-66494572D01*
X150517285Y-66542191D01*
X150326809Y-66589810D01*
X150183952Y-66589810D01*
X149993476Y-66542191D01*
X149898238Y-66494572D01*
X149803000Y-66399334D01*
X149755380Y-66256477D01*
X149755380Y-66161239D01*
X149803000Y-66018382D01*
X149850619Y-65970763D01*
X150088714Y-65113620D02*
X150755380Y-65113620D01*
X149707761Y-65351715D02*
X150422047Y-65589810D01*
X150422047Y-64970763D01*
X149755380Y-64685048D02*
X149755380Y-64018382D01*
X150755380Y-64446953D01*
X164387284Y-61495763D02*
X164434903Y-61543382D01*
X164482522Y-61686239D01*
X164482522Y-61781477D01*
X164434903Y-61924334D01*
X164339665Y-62019572D01*
X164244427Y-62067191D01*
X164053951Y-62114810D01*
X163911094Y-62114810D01*
X163720618Y-62067191D01*
X163625380Y-62019572D01*
X163530142Y-61924334D01*
X163482522Y-61781477D01*
X163482522Y-61686239D01*
X163530142Y-61543382D01*
X163577761Y-61495763D01*
X163815856Y-60638620D02*
X164482522Y-60638620D01*
X163434903Y-60876715D02*
X164149189Y-61114810D01*
X164149189Y-60495763D01*
X163911094Y-59971953D02*
X163863475Y-60067191D01*
X163815856Y-60114810D01*
X163720618Y-60162429D01*
X163672999Y-60162429D01*
X163577761Y-60114810D01*
X163530142Y-60067191D01*
X163482522Y-59971953D01*
X163482522Y-59781477D01*
X163530142Y-59686239D01*
X163577761Y-59638620D01*
X163672999Y-59591001D01*
X163720618Y-59591001D01*
X163815856Y-59638620D01*
X163863475Y-59686239D01*
X163911094Y-59781477D01*
X163911094Y-59971953D01*
X163958713Y-60067191D01*
X164006332Y-60114810D01*
X164101570Y-60162429D01*
X164292046Y-60162429D01*
X164387284Y-60114810D01*
X164434903Y-60067191D01*
X164482522Y-59971953D01*
X164482522Y-59781477D01*
X164434903Y-59686239D01*
X164387284Y-59638620D01*
X164292046Y-59591001D01*
X164101570Y-59591001D01*
X164006332Y-59638620D01*
X163958713Y-59686239D01*
X163911094Y-59781477D01*
X156417284Y-73372669D02*
X156464903Y-73420288D01*
X156512522Y-73563145D01*
X156512522Y-73658383D01*
X156464903Y-73801240D01*
X156369665Y-73896478D01*
X156274427Y-73944097D01*
X156083951Y-73991716D01*
X155941094Y-73991716D01*
X155750618Y-73944097D01*
X155655380Y-73896478D01*
X155560142Y-73801240D01*
X155512522Y-73658383D01*
X155512522Y-73563145D01*
X155560142Y-73420288D01*
X155607761Y-73372669D01*
X155845856Y-72515526D02*
X156512522Y-72515526D01*
X155464903Y-72753621D02*
X156179189Y-72991716D01*
X156179189Y-72372669D01*
X156512522Y-71944097D02*
X156512522Y-71753621D01*
X156464903Y-71658383D01*
X156417284Y-71610764D01*
X156274427Y-71515526D01*
X156083951Y-71467907D01*
X155702999Y-71467907D01*
X155607761Y-71515526D01*
X155560142Y-71563145D01*
X155512522Y-71658383D01*
X155512522Y-71848859D01*
X155560142Y-71944097D01*
X155607761Y-71991716D01*
X155702999Y-72039335D01*
X155941094Y-72039335D01*
X156036332Y-71991716D01*
X156083951Y-71944097D01*
X156131570Y-71848859D01*
X156131570Y-71658383D01*
X156083951Y-71563145D01*
X156036332Y-71515526D01*
X155941094Y-71467907D01*
X156367284Y-62022669D02*
X156414903Y-62070288D01*
X156462522Y-62213145D01*
X156462522Y-62308383D01*
X156414903Y-62451240D01*
X156319665Y-62546478D01*
X156224427Y-62594097D01*
X156033951Y-62641716D01*
X155891094Y-62641716D01*
X155700618Y-62594097D01*
X155605380Y-62546478D01*
X155510142Y-62451240D01*
X155462522Y-62308383D01*
X155462522Y-62213145D01*
X155510142Y-62070288D01*
X155557761Y-62022669D01*
X155462522Y-61117907D02*
X155462522Y-61594097D01*
X155938713Y-61641716D01*
X155891094Y-61594097D01*
X155843475Y-61498859D01*
X155843475Y-61260764D01*
X155891094Y-61165526D01*
X155938713Y-61117907D01*
X156033951Y-61070288D01*
X156272046Y-61070288D01*
X156367284Y-61117907D01*
X156414903Y-61165526D01*
X156462522Y-61260764D01*
X156462522Y-61498859D01*
X156414903Y-61594097D01*
X156367284Y-61641716D01*
X155462522Y-60451240D02*
X155462522Y-60356002D01*
X155510142Y-60260764D01*
X155557761Y-60213145D01*
X155652999Y-60165526D01*
X155843475Y-60117907D01*
X156081570Y-60117907D01*
X156272046Y-60165526D01*
X156367284Y-60213145D01*
X156414903Y-60260764D01*
X156462522Y-60356002D01*
X156462522Y-60451240D01*
X156414903Y-60546478D01*
X156367284Y-60594097D01*
X156272046Y-60641716D01*
X156081570Y-60689335D01*
X155843475Y-60689335D01*
X155652999Y-60641716D01*
X155557761Y-60594097D01*
X155510142Y-60546478D01*
X155462522Y-60451240D01*
X169537284Y-71145763D02*
X169584903Y-71193382D01*
X169632522Y-71336239D01*
X169632522Y-71431477D01*
X169584903Y-71574334D01*
X169489665Y-71669572D01*
X169394427Y-71717191D01*
X169203951Y-71764810D01*
X169061094Y-71764810D01*
X168870618Y-71717191D01*
X168775380Y-71669572D01*
X168680142Y-71574334D01*
X168632522Y-71431477D01*
X168632522Y-71336239D01*
X168680142Y-71193382D01*
X168727761Y-71145763D01*
X168632522Y-70241001D02*
X168632522Y-70717191D01*
X169108713Y-70764810D01*
X169061094Y-70717191D01*
X169013475Y-70621953D01*
X169013475Y-70383858D01*
X169061094Y-70288620D01*
X169108713Y-70241001D01*
X169203951Y-70193382D01*
X169442046Y-70193382D01*
X169537284Y-70241001D01*
X169584903Y-70288620D01*
X169632522Y-70383858D01*
X169632522Y-70621953D01*
X169584903Y-70717191D01*
X169537284Y-70764810D01*
X169632522Y-69241001D02*
X169632522Y-69812429D01*
X169632522Y-69526715D02*
X168632522Y-69526715D01*
X168775380Y-69621953D01*
X168870618Y-69717191D01*
X168918237Y-69812429D01*
X155235142Y-57485048D02*
X155187523Y-57532667D01*
X155044666Y-57580286D01*
X154949428Y-57580286D01*
X154806571Y-57532667D01*
X154711333Y-57437429D01*
X154663714Y-57342191D01*
X154616095Y-57151715D01*
X154616095Y-57008858D01*
X154663714Y-56818382D01*
X154711333Y-56723144D01*
X154806571Y-56627906D01*
X154949428Y-56580286D01*
X155044666Y-56580286D01*
X155187523Y-56627906D01*
X155235142Y-56675525D01*
X156139904Y-56580286D02*
X155663714Y-56580286D01*
X155616095Y-57056477D01*
X155663714Y-57008858D01*
X155758952Y-56961239D01*
X155997047Y-56961239D01*
X156092285Y-57008858D01*
X156139904Y-57056477D01*
X156187523Y-57151715D01*
X156187523Y-57389810D01*
X156139904Y-57485048D01*
X156092285Y-57532667D01*
X155997047Y-57580286D01*
X155758952Y-57580286D01*
X155663714Y-57532667D01*
X155616095Y-57485048D01*
X157044666Y-56913620D02*
X157044666Y-57580286D01*
X156806571Y-56532667D02*
X156568476Y-57246953D01*
X157187523Y-57246953D01*
X125485142Y-75120763D02*
X125532761Y-75168382D01*
X125580380Y-75311239D01*
X125580380Y-75406477D01*
X125532761Y-75549334D01*
X125437523Y-75644572D01*
X125342285Y-75692191D01*
X125151809Y-75739810D01*
X125008952Y-75739810D01*
X124818476Y-75692191D01*
X124723238Y-75644572D01*
X124628000Y-75549334D01*
X124580380Y-75406477D01*
X124580380Y-75311239D01*
X124628000Y-75168382D01*
X124675619Y-75120763D01*
X124580380Y-74216001D02*
X124580380Y-74692191D01*
X125056571Y-74739810D01*
X125008952Y-74692191D01*
X124961333Y-74596953D01*
X124961333Y-74358858D01*
X125008952Y-74263620D01*
X125056571Y-74216001D01*
X125151809Y-74168382D01*
X125389904Y-74168382D01*
X125485142Y-74216001D01*
X125532761Y-74263620D01*
X125580380Y-74358858D01*
X125580380Y-74596953D01*
X125532761Y-74692191D01*
X125485142Y-74739810D01*
X124580380Y-73263620D02*
X124580380Y-73739810D01*
X125056571Y-73787429D01*
X125008952Y-73739810D01*
X124961333Y-73644572D01*
X124961333Y-73406477D01*
X125008952Y-73311239D01*
X125056571Y-73263620D01*
X125151809Y-73216001D01*
X125389904Y-73216001D01*
X125485142Y-73263620D01*
X125532761Y-73311239D01*
X125580380Y-73406477D01*
X125580380Y-73644572D01*
X125532761Y-73739810D01*
X125485142Y-73787429D01*
X125660142Y-66020763D02*
X125707761Y-66068382D01*
X125755380Y-66211239D01*
X125755380Y-66306477D01*
X125707761Y-66449334D01*
X125612523Y-66544572D01*
X125517285Y-66592191D01*
X125326809Y-66639810D01*
X125183952Y-66639810D01*
X124993476Y-66592191D01*
X124898238Y-66544572D01*
X124803000Y-66449334D01*
X124755380Y-66306477D01*
X124755380Y-66211239D01*
X124803000Y-66068382D01*
X124850619Y-66020763D01*
X124755380Y-65116001D02*
X124755380Y-65592191D01*
X125231571Y-65639810D01*
X125183952Y-65592191D01*
X125136333Y-65496953D01*
X125136333Y-65258858D01*
X125183952Y-65163620D01*
X125231571Y-65116001D01*
X125326809Y-65068382D01*
X125564904Y-65068382D01*
X125660142Y-65116001D01*
X125707761Y-65163620D01*
X125755380Y-65258858D01*
X125755380Y-65496953D01*
X125707761Y-65592191D01*
X125660142Y-65639810D01*
X124755380Y-64211239D02*
X124755380Y-64401715D01*
X124803000Y-64496953D01*
X124850619Y-64544572D01*
X124993476Y-64639810D01*
X125183952Y-64687429D01*
X125564904Y-64687429D01*
X125660142Y-64639810D01*
X125707761Y-64592191D01*
X125755380Y-64496953D01*
X125755380Y-64306477D01*
X125707761Y-64211239D01*
X125660142Y-64163620D01*
X125564904Y-64116001D01*
X125326809Y-64116001D01*
X125231571Y-64163620D01*
X125183952Y-64211239D01*
X125136333Y-64306477D01*
X125136333Y-64496953D01*
X125183952Y-64592191D01*
X125231571Y-64639810D01*
X125326809Y-64687429D01*
X139387284Y-61495763D02*
X139434903Y-61543382D01*
X139482522Y-61686239D01*
X139482522Y-61781477D01*
X139434903Y-61924334D01*
X139339665Y-62019572D01*
X139244427Y-62067191D01*
X139053951Y-62114810D01*
X138911094Y-62114810D01*
X138720618Y-62067191D01*
X138625380Y-62019572D01*
X138530142Y-61924334D01*
X138482522Y-61781477D01*
X138482522Y-61686239D01*
X138530142Y-61543382D01*
X138577761Y-61495763D01*
X138482522Y-60591001D02*
X138482522Y-61067191D01*
X138958713Y-61114810D01*
X138911094Y-61067191D01*
X138863475Y-60971953D01*
X138863475Y-60733858D01*
X138911094Y-60638620D01*
X138958713Y-60591001D01*
X139053951Y-60543382D01*
X139292046Y-60543382D01*
X139387284Y-60591001D01*
X139434903Y-60638620D01*
X139482522Y-60733858D01*
X139482522Y-60971953D01*
X139434903Y-61067191D01*
X139387284Y-61114810D01*
X138482522Y-60210048D02*
X138482522Y-59543382D01*
X139482522Y-59971953D01*
X131417284Y-73372669D02*
X131464903Y-73420288D01*
X131512522Y-73563145D01*
X131512522Y-73658383D01*
X131464903Y-73801240D01*
X131369665Y-73896478D01*
X131274427Y-73944097D01*
X131083951Y-73991716D01*
X130941094Y-73991716D01*
X130750618Y-73944097D01*
X130655380Y-73896478D01*
X130560142Y-73801240D01*
X130512522Y-73658383D01*
X130512522Y-73563145D01*
X130560142Y-73420288D01*
X130607761Y-73372669D01*
X130512522Y-72467907D02*
X130512522Y-72944097D01*
X130988713Y-72991716D01*
X130941094Y-72944097D01*
X130893475Y-72848859D01*
X130893475Y-72610764D01*
X130941094Y-72515526D01*
X130988713Y-72467907D01*
X131083951Y-72420288D01*
X131322046Y-72420288D01*
X131417284Y-72467907D01*
X131464903Y-72515526D01*
X131512522Y-72610764D01*
X131512522Y-72848859D01*
X131464903Y-72944097D01*
X131417284Y-72991716D01*
X130941094Y-71848859D02*
X130893475Y-71944097D01*
X130845856Y-71991716D01*
X130750618Y-72039335D01*
X130702999Y-72039335D01*
X130607761Y-71991716D01*
X130560142Y-71944097D01*
X130512522Y-71848859D01*
X130512522Y-71658383D01*
X130560142Y-71563145D01*
X130607761Y-71515526D01*
X130702999Y-71467907D01*
X130750618Y-71467907D01*
X130845856Y-71515526D01*
X130893475Y-71563145D01*
X130941094Y-71658383D01*
X130941094Y-71848859D01*
X130988713Y-71944097D01*
X131036332Y-71991716D01*
X131131570Y-72039335D01*
X131322046Y-72039335D01*
X131417284Y-71991716D01*
X131464903Y-71944097D01*
X131512522Y-71848859D01*
X131512522Y-71658383D01*
X131464903Y-71563145D01*
X131417284Y-71515526D01*
X131322046Y-71467907D01*
X131131570Y-71467907D01*
X131036332Y-71515526D01*
X130988713Y-71563145D01*
X130941094Y-71658383D01*
X131367284Y-62022669D02*
X131414903Y-62070288D01*
X131462522Y-62213145D01*
X131462522Y-62308383D01*
X131414903Y-62451240D01*
X131319665Y-62546478D01*
X131224427Y-62594097D01*
X131033951Y-62641716D01*
X130891094Y-62641716D01*
X130700618Y-62594097D01*
X130605380Y-62546478D01*
X130510142Y-62451240D01*
X130462522Y-62308383D01*
X130462522Y-62213145D01*
X130510142Y-62070288D01*
X130557761Y-62022669D01*
X130462522Y-61117907D02*
X130462522Y-61594097D01*
X130938713Y-61641716D01*
X130891094Y-61594097D01*
X130843475Y-61498859D01*
X130843475Y-61260764D01*
X130891094Y-61165526D01*
X130938713Y-61117907D01*
X131033951Y-61070288D01*
X131272046Y-61070288D01*
X131367284Y-61117907D01*
X131414903Y-61165526D01*
X131462522Y-61260764D01*
X131462522Y-61498859D01*
X131414903Y-61594097D01*
X131367284Y-61641716D01*
X131462522Y-60594097D02*
X131462522Y-60403621D01*
X131414903Y-60308383D01*
X131367284Y-60260764D01*
X131224427Y-60165526D01*
X131033951Y-60117907D01*
X130652999Y-60117907D01*
X130557761Y-60165526D01*
X130510142Y-60213145D01*
X130462522Y-60308383D01*
X130462522Y-60498859D01*
X130510142Y-60594097D01*
X130557761Y-60641716D01*
X130652999Y-60689335D01*
X130891094Y-60689335D01*
X130986332Y-60641716D01*
X131033951Y-60594097D01*
X131081570Y-60498859D01*
X131081570Y-60308383D01*
X131033951Y-60213145D01*
X130986332Y-60165526D01*
X130891094Y-60117907D01*
X144537284Y-71145763D02*
X144584903Y-71193382D01*
X144632522Y-71336239D01*
X144632522Y-71431477D01*
X144584903Y-71574334D01*
X144489665Y-71669572D01*
X144394427Y-71717191D01*
X144203951Y-71764810D01*
X144061094Y-71764810D01*
X143870618Y-71717191D01*
X143775380Y-71669572D01*
X143680142Y-71574334D01*
X143632522Y-71431477D01*
X143632522Y-71336239D01*
X143680142Y-71193382D01*
X143727761Y-71145763D01*
X143632522Y-70288620D02*
X143632522Y-70479096D01*
X143680142Y-70574334D01*
X143727761Y-70621953D01*
X143870618Y-70717191D01*
X144061094Y-70764810D01*
X144442046Y-70764810D01*
X144537284Y-70717191D01*
X144584903Y-70669572D01*
X144632522Y-70574334D01*
X144632522Y-70383858D01*
X144584903Y-70288620D01*
X144537284Y-70241001D01*
X144442046Y-70193382D01*
X144203951Y-70193382D01*
X144108713Y-70241001D01*
X144061094Y-70288620D01*
X144013475Y-70383858D01*
X144013475Y-70574334D01*
X144061094Y-70669572D01*
X144108713Y-70717191D01*
X144203951Y-70764810D01*
X143632522Y-69574334D02*
X143632522Y-69479096D01*
X143680142Y-69383858D01*
X143727761Y-69336239D01*
X143822999Y-69288620D01*
X144013475Y-69241001D01*
X144251570Y-69241001D01*
X144442046Y-69288620D01*
X144537284Y-69336239D01*
X144584903Y-69383858D01*
X144632522Y-69479096D01*
X144632522Y-69574334D01*
X144584903Y-69669572D01*
X144537284Y-69717191D01*
X144442046Y-69764810D01*
X144251570Y-69812429D01*
X144013475Y-69812429D01*
X143822999Y-69764810D01*
X143727761Y-69717191D01*
X143680142Y-69669572D01*
X143632522Y-69574334D01*
X130385142Y-57310048D02*
X130337523Y-57357667D01*
X130194666Y-57405286D01*
X130099428Y-57405286D01*
X129956571Y-57357667D01*
X129861333Y-57262429D01*
X129813714Y-57167191D01*
X129766095Y-56976715D01*
X129766095Y-56833858D01*
X129813714Y-56643382D01*
X129861333Y-56548144D01*
X129956571Y-56452906D01*
X130099428Y-56405286D01*
X130194666Y-56405286D01*
X130337523Y-56452906D01*
X130385142Y-56500525D01*
X131242285Y-56405286D02*
X131051809Y-56405286D01*
X130956571Y-56452906D01*
X130908952Y-56500525D01*
X130813714Y-56643382D01*
X130766095Y-56833858D01*
X130766095Y-57214810D01*
X130813714Y-57310048D01*
X130861333Y-57357667D01*
X130956571Y-57405286D01*
X131147047Y-57405286D01*
X131242285Y-57357667D01*
X131289904Y-57310048D01*
X131337523Y-57214810D01*
X131337523Y-56976715D01*
X131289904Y-56881477D01*
X131242285Y-56833858D01*
X131147047Y-56786239D01*
X130956571Y-56786239D01*
X130861333Y-56833858D01*
X130813714Y-56881477D01*
X130766095Y-56976715D01*
X131670857Y-56405286D02*
X132289904Y-56405286D01*
X131956571Y-56786239D01*
X132099428Y-56786239D01*
X132194666Y-56833858D01*
X132242285Y-56881477D01*
X132289904Y-56976715D01*
X132289904Y-57214810D01*
X132242285Y-57310048D01*
X132194666Y-57357667D01*
X132099428Y-57405286D01*
X131813714Y-57405286D01*
X131718476Y-57357667D01*
X131670857Y-57310048D01*
X100460142Y-75245763D02*
X100507761Y-75293382D01*
X100555380Y-75436239D01*
X100555380Y-75531477D01*
X100507761Y-75674334D01*
X100412523Y-75769572D01*
X100317285Y-75817191D01*
X100126809Y-75864810D01*
X99983952Y-75864810D01*
X99793476Y-75817191D01*
X99698238Y-75769572D01*
X99603000Y-75674334D01*
X99555380Y-75531477D01*
X99555380Y-75436239D01*
X99603000Y-75293382D01*
X99650619Y-75245763D01*
X99555380Y-74388620D02*
X99555380Y-74579096D01*
X99603000Y-74674334D01*
X99650619Y-74721953D01*
X99793476Y-74817191D01*
X99983952Y-74864810D01*
X100364904Y-74864810D01*
X100460142Y-74817191D01*
X100507761Y-74769572D01*
X100555380Y-74674334D01*
X100555380Y-74483858D01*
X100507761Y-74388620D01*
X100460142Y-74341001D01*
X100364904Y-74293382D01*
X100126809Y-74293382D01*
X100031571Y-74341001D01*
X99983952Y-74388620D01*
X99936333Y-74483858D01*
X99936333Y-74674334D01*
X99983952Y-74769572D01*
X100031571Y-74817191D01*
X100126809Y-74864810D01*
X99888714Y-73436239D02*
X100555380Y-73436239D01*
X99507761Y-73674334D02*
X100222047Y-73912429D01*
X100222047Y-73293382D01*
X100685142Y-66395763D02*
X100732761Y-66443382D01*
X100780380Y-66586239D01*
X100780380Y-66681477D01*
X100732761Y-66824334D01*
X100637523Y-66919572D01*
X100542285Y-66967191D01*
X100351809Y-67014810D01*
X100208952Y-67014810D01*
X100018476Y-66967191D01*
X99923238Y-66919572D01*
X99828000Y-66824334D01*
X99780380Y-66681477D01*
X99780380Y-66586239D01*
X99828000Y-66443382D01*
X99875619Y-66395763D01*
X99780380Y-65538620D02*
X99780380Y-65729096D01*
X99828000Y-65824334D01*
X99875619Y-65871953D01*
X100018476Y-65967191D01*
X100208952Y-66014810D01*
X100589904Y-66014810D01*
X100685142Y-65967191D01*
X100732761Y-65919572D01*
X100780380Y-65824334D01*
X100780380Y-65633858D01*
X100732761Y-65538620D01*
X100685142Y-65491001D01*
X100589904Y-65443382D01*
X100351809Y-65443382D01*
X100256571Y-65491001D01*
X100208952Y-65538620D01*
X100161333Y-65633858D01*
X100161333Y-65824334D01*
X100208952Y-65919572D01*
X100256571Y-65967191D01*
X100351809Y-66014810D01*
X99780380Y-64538620D02*
X99780380Y-65014810D01*
X100256571Y-65062429D01*
X100208952Y-65014810D01*
X100161333Y-64919572D01*
X100161333Y-64681477D01*
X100208952Y-64586239D01*
X100256571Y-64538620D01*
X100351809Y-64491001D01*
X100589904Y-64491001D01*
X100685142Y-64538620D01*
X100732761Y-64586239D01*
X100780380Y-64681477D01*
X100780380Y-64919572D01*
X100732761Y-65014810D01*
X100685142Y-65062429D01*
X114387284Y-61495763D02*
X114434903Y-61543382D01*
X114482522Y-61686239D01*
X114482522Y-61781477D01*
X114434903Y-61924334D01*
X114339665Y-62019572D01*
X114244427Y-62067191D01*
X114053951Y-62114810D01*
X113911094Y-62114810D01*
X113720618Y-62067191D01*
X113625380Y-62019572D01*
X113530142Y-61924334D01*
X113482522Y-61781477D01*
X113482522Y-61686239D01*
X113530142Y-61543382D01*
X113577761Y-61495763D01*
X113482522Y-60638620D02*
X113482522Y-60829096D01*
X113530142Y-60924334D01*
X113577761Y-60971953D01*
X113720618Y-61067191D01*
X113911094Y-61114810D01*
X114292046Y-61114810D01*
X114387284Y-61067191D01*
X114434903Y-61019572D01*
X114482522Y-60924334D01*
X114482522Y-60733858D01*
X114434903Y-60638620D01*
X114387284Y-60591001D01*
X114292046Y-60543382D01*
X114053951Y-60543382D01*
X113958713Y-60591001D01*
X113911094Y-60638620D01*
X113863475Y-60733858D01*
X113863475Y-60924334D01*
X113911094Y-61019572D01*
X113958713Y-61067191D01*
X114053951Y-61114810D01*
X113482522Y-59686239D02*
X113482522Y-59876715D01*
X113530142Y-59971953D01*
X113577761Y-60019572D01*
X113720618Y-60114810D01*
X113911094Y-60162429D01*
X114292046Y-60162429D01*
X114387284Y-60114810D01*
X114434903Y-60067191D01*
X114482522Y-59971953D01*
X114482522Y-59781477D01*
X114434903Y-59686239D01*
X114387284Y-59638620D01*
X114292046Y-59591001D01*
X114053951Y-59591001D01*
X113958713Y-59638620D01*
X113911094Y-59686239D01*
X113863475Y-59781477D01*
X113863475Y-59971953D01*
X113911094Y-60067191D01*
X113958713Y-60114810D01*
X114053951Y-60162429D01*
X106417284Y-73372669D02*
X106464903Y-73420288D01*
X106512522Y-73563145D01*
X106512522Y-73658383D01*
X106464903Y-73801240D01*
X106369665Y-73896478D01*
X106274427Y-73944097D01*
X106083951Y-73991716D01*
X105941094Y-73991716D01*
X105750618Y-73944097D01*
X105655380Y-73896478D01*
X105560142Y-73801240D01*
X105512522Y-73658383D01*
X105512522Y-73563145D01*
X105560142Y-73420288D01*
X105607761Y-73372669D01*
X105512522Y-72515526D02*
X105512522Y-72706002D01*
X105560142Y-72801240D01*
X105607761Y-72848859D01*
X105750618Y-72944097D01*
X105941094Y-72991716D01*
X106322046Y-72991716D01*
X106417284Y-72944097D01*
X106464903Y-72896478D01*
X106512522Y-72801240D01*
X106512522Y-72610764D01*
X106464903Y-72515526D01*
X106417284Y-72467907D01*
X106322046Y-72420288D01*
X106083951Y-72420288D01*
X105988713Y-72467907D01*
X105941094Y-72515526D01*
X105893475Y-72610764D01*
X105893475Y-72801240D01*
X105941094Y-72896478D01*
X105988713Y-72944097D01*
X106083951Y-72991716D01*
X105512522Y-72086954D02*
X105512522Y-71420288D01*
X106512522Y-71848859D01*
X106367284Y-62022669D02*
X106414903Y-62070288D01*
X106462522Y-62213145D01*
X106462522Y-62308383D01*
X106414903Y-62451240D01*
X106319665Y-62546478D01*
X106224427Y-62594097D01*
X106033951Y-62641716D01*
X105891094Y-62641716D01*
X105700618Y-62594097D01*
X105605380Y-62546478D01*
X105510142Y-62451240D01*
X105462522Y-62308383D01*
X105462522Y-62213145D01*
X105510142Y-62070288D01*
X105557761Y-62022669D01*
X105462522Y-61165526D02*
X105462522Y-61356002D01*
X105510142Y-61451240D01*
X105557761Y-61498859D01*
X105700618Y-61594097D01*
X105891094Y-61641716D01*
X106272046Y-61641716D01*
X106367284Y-61594097D01*
X106414903Y-61546478D01*
X106462522Y-61451240D01*
X106462522Y-61260764D01*
X106414903Y-61165526D01*
X106367284Y-61117907D01*
X106272046Y-61070288D01*
X106033951Y-61070288D01*
X105938713Y-61117907D01*
X105891094Y-61165526D01*
X105843475Y-61260764D01*
X105843475Y-61451240D01*
X105891094Y-61546478D01*
X105938713Y-61594097D01*
X106033951Y-61641716D01*
X105891094Y-60498859D02*
X105843475Y-60594097D01*
X105795856Y-60641716D01*
X105700618Y-60689335D01*
X105652999Y-60689335D01*
X105557761Y-60641716D01*
X105510142Y-60594097D01*
X105462522Y-60498859D01*
X105462522Y-60308383D01*
X105510142Y-60213145D01*
X105557761Y-60165526D01*
X105652999Y-60117907D01*
X105700618Y-60117907D01*
X105795856Y-60165526D01*
X105843475Y-60213145D01*
X105891094Y-60308383D01*
X105891094Y-60498859D01*
X105938713Y-60594097D01*
X105986332Y-60641716D01*
X106081570Y-60689335D01*
X106272046Y-60689335D01*
X106367284Y-60641716D01*
X106414903Y-60594097D01*
X106462522Y-60498859D01*
X106462522Y-60308383D01*
X106414903Y-60213145D01*
X106367284Y-60165526D01*
X106272046Y-60117907D01*
X106081570Y-60117907D01*
X105986332Y-60165526D01*
X105938713Y-60213145D01*
X105891094Y-60308383D01*
X119537284Y-71145763D02*
X119584903Y-71193382D01*
X119632522Y-71336239D01*
X119632522Y-71431477D01*
X119584903Y-71574334D01*
X119489665Y-71669572D01*
X119394427Y-71717191D01*
X119203951Y-71764810D01*
X119061094Y-71764810D01*
X118870618Y-71717191D01*
X118775380Y-71669572D01*
X118680142Y-71574334D01*
X118632522Y-71431477D01*
X118632522Y-71336239D01*
X118680142Y-71193382D01*
X118727761Y-71145763D01*
X118632522Y-70288620D02*
X118632522Y-70479096D01*
X118680142Y-70574334D01*
X118727761Y-70621953D01*
X118870618Y-70717191D01*
X119061094Y-70764810D01*
X119442046Y-70764810D01*
X119537284Y-70717191D01*
X119584903Y-70669572D01*
X119632522Y-70574334D01*
X119632522Y-70383858D01*
X119584903Y-70288620D01*
X119537284Y-70241001D01*
X119442046Y-70193382D01*
X119203951Y-70193382D01*
X119108713Y-70241001D01*
X119061094Y-70288620D01*
X119013475Y-70383858D01*
X119013475Y-70574334D01*
X119061094Y-70669572D01*
X119108713Y-70717191D01*
X119203951Y-70764810D01*
X119632522Y-69717191D02*
X119632522Y-69526715D01*
X119584903Y-69431477D01*
X119537284Y-69383858D01*
X119394427Y-69288620D01*
X119203951Y-69241001D01*
X118822999Y-69241001D01*
X118727761Y-69288620D01*
X118680142Y-69336239D01*
X118632522Y-69431477D01*
X118632522Y-69621953D01*
X118680142Y-69717191D01*
X118727761Y-69764810D01*
X118822999Y-69812429D01*
X119061094Y-69812429D01*
X119156332Y-69764810D01*
X119203951Y-69717191D01*
X119251570Y-69621953D01*
X119251570Y-69431477D01*
X119203951Y-69336239D01*
X119156332Y-69288620D01*
X119061094Y-69241001D01*
X105285142Y-57110048D02*
X105237523Y-57157667D01*
X105094666Y-57205286D01*
X104999428Y-57205286D01*
X104856571Y-57157667D01*
X104761333Y-57062429D01*
X104713714Y-56967191D01*
X104666095Y-56776715D01*
X104666095Y-56633858D01*
X104713714Y-56443382D01*
X104761333Y-56348144D01*
X104856571Y-56252906D01*
X104999428Y-56205286D01*
X105094666Y-56205286D01*
X105237523Y-56252906D01*
X105285142Y-56300525D01*
X105618476Y-56205286D02*
X106285142Y-56205286D01*
X105856571Y-57205286D01*
X106618476Y-56300525D02*
X106666095Y-56252906D01*
X106761333Y-56205286D01*
X106999428Y-56205286D01*
X107094666Y-56252906D01*
X107142285Y-56300525D01*
X107189904Y-56395763D01*
X107189904Y-56491001D01*
X107142285Y-56633858D01*
X106570857Y-57205286D01*
X107189904Y-57205286D01*
X117311333Y-99405286D02*
X117311333Y-98405286D01*
X117549428Y-98405286D01*
X117692285Y-98452906D01*
X117787523Y-98548144D01*
X117835142Y-98643382D01*
X117882761Y-98833858D01*
X117882761Y-98976715D01*
X117835142Y-99167191D01*
X117787523Y-99262429D01*
X117692285Y-99357667D01*
X117549428Y-99405286D01*
X117311333Y-99405286D01*
X118263714Y-99119572D02*
X118739904Y-99119572D01*
X118168476Y-99405286D02*
X118501809Y-98405286D01*
X118835142Y-99405286D01*
X119739904Y-99310048D02*
X119692285Y-99357667D01*
X119549428Y-99405286D01*
X119454190Y-99405286D01*
X119311333Y-99357667D01*
X119216095Y-99262429D01*
X119168476Y-99167191D01*
X119120857Y-98976715D01*
X119120857Y-98833858D01*
X119168476Y-98643382D01*
X119216095Y-98548144D01*
X119311333Y-98452906D01*
X119454190Y-98405286D01*
X119549428Y-98405286D01*
X119692285Y-98452906D01*
X119739904Y-98500525D01*
X120692285Y-99405286D02*
X120120857Y-99405286D01*
X120406571Y-99405286D02*
X120406571Y-98405286D01*
X120311333Y-98548144D01*
X120216095Y-98643382D01*
X120120857Y-98691001D01*
X166761333Y-99505286D02*
X166761333Y-98505286D01*
X166999428Y-98505286D01*
X167142285Y-98552906D01*
X167237523Y-98648144D01*
X167285142Y-98743382D01*
X167332761Y-98933858D01*
X167332761Y-99076715D01*
X167285142Y-99267191D01*
X167237523Y-99362429D01*
X167142285Y-99457667D01*
X166999428Y-99505286D01*
X166761333Y-99505286D01*
X167713714Y-99219572D02*
X168189904Y-99219572D01*
X167618476Y-99505286D02*
X167951809Y-98505286D01*
X168285142Y-99505286D01*
X169189904Y-99410048D02*
X169142285Y-99457667D01*
X168999428Y-99505286D01*
X168904190Y-99505286D01*
X168761333Y-99457667D01*
X168666095Y-99362429D01*
X168618476Y-99267191D01*
X168570857Y-99076715D01*
X168570857Y-98933858D01*
X168618476Y-98743382D01*
X168666095Y-98648144D01*
X168761333Y-98552906D01*
X168904190Y-98505286D01*
X168999428Y-98505286D01*
X169142285Y-98552906D01*
X169189904Y-98600525D01*
X169523238Y-98505286D02*
X170142285Y-98505286D01*
X169808952Y-98886239D01*
X169951809Y-98886239D01*
X170047047Y-98933858D01*
X170094666Y-98981477D01*
X170142285Y-99076715D01*
X170142285Y-99314810D01*
X170094666Y-99410048D01*
X170047047Y-99457667D01*
X169951809Y-99505286D01*
X169666095Y-99505286D01*
X169570857Y-99457667D01*
X169523238Y-99410048D01*
X192911333Y-100105286D02*
X192911333Y-99105286D01*
X193149428Y-99105286D01*
X193292285Y-99152906D01*
X193387523Y-99248144D01*
X193435142Y-99343382D01*
X193482761Y-99533858D01*
X193482761Y-99676715D01*
X193435142Y-99867191D01*
X193387523Y-99962429D01*
X193292285Y-100057667D01*
X193149428Y-100105286D01*
X192911333Y-100105286D01*
X193863714Y-99819572D02*
X194339904Y-99819572D01*
X193768476Y-100105286D02*
X194101809Y-99105286D01*
X194435142Y-100105286D01*
X195339904Y-100010048D02*
X195292285Y-100057667D01*
X195149428Y-100105286D01*
X195054190Y-100105286D01*
X194911333Y-100057667D01*
X194816095Y-99962429D01*
X194768476Y-99867191D01*
X194720857Y-99676715D01*
X194720857Y-99533858D01*
X194768476Y-99343382D01*
X194816095Y-99248144D01*
X194911333Y-99152906D01*
X195054190Y-99105286D01*
X195149428Y-99105286D01*
X195292285Y-99152906D01*
X195339904Y-99200525D01*
X196197047Y-99438620D02*
X196197047Y-100105286D01*
X195958952Y-99057667D02*
X195720857Y-99771953D01*
X196339904Y-99771953D01*
X176711333Y-76855286D02*
X176711333Y-75855286D01*
X176949428Y-75855286D01*
X177092285Y-75902906D01*
X177187523Y-75998144D01*
X177235142Y-76093382D01*
X177282761Y-76283858D01*
X177282761Y-76426715D01*
X177235142Y-76617191D01*
X177187523Y-76712429D01*
X177092285Y-76807667D01*
X176949428Y-76855286D01*
X176711333Y-76855286D01*
X177663714Y-76569572D02*
X178139904Y-76569572D01*
X177568476Y-76855286D02*
X177901809Y-75855286D01*
X178235142Y-76855286D01*
X179139904Y-76760048D02*
X179092285Y-76807667D01*
X178949428Y-76855286D01*
X178854190Y-76855286D01*
X178711333Y-76807667D01*
X178616095Y-76712429D01*
X178568476Y-76617191D01*
X178520857Y-76426715D01*
X178520857Y-76283858D01*
X178568476Y-76093382D01*
X178616095Y-75998144D01*
X178711333Y-75902906D01*
X178854190Y-75855286D01*
X178949428Y-75855286D01*
X179092285Y-75902906D01*
X179139904Y-75950525D01*
X180044666Y-75855286D02*
X179568476Y-75855286D01*
X179520857Y-76331477D01*
X179568476Y-76283858D01*
X179663714Y-76236239D01*
X179901809Y-76236239D01*
X179997047Y-76283858D01*
X180044666Y-76331477D01*
X180092285Y-76426715D01*
X180092285Y-76664810D01*
X180044666Y-76760048D01*
X179997047Y-76807667D01*
X179901809Y-76855286D01*
X179663714Y-76855286D01*
X179568476Y-76807667D01*
X179520857Y-76760048D01*
X151661333Y-76705286D02*
X151661333Y-75705286D01*
X151899428Y-75705286D01*
X152042285Y-75752906D01*
X152137523Y-75848144D01*
X152185142Y-75943382D01*
X152232761Y-76133858D01*
X152232761Y-76276715D01*
X152185142Y-76467191D01*
X152137523Y-76562429D01*
X152042285Y-76657667D01*
X151899428Y-76705286D01*
X151661333Y-76705286D01*
X152613714Y-76419572D02*
X153089904Y-76419572D01*
X152518476Y-76705286D02*
X152851809Y-75705286D01*
X153185142Y-76705286D01*
X154089904Y-76610048D02*
X154042285Y-76657667D01*
X153899428Y-76705286D01*
X153804190Y-76705286D01*
X153661333Y-76657667D01*
X153566095Y-76562429D01*
X153518476Y-76467191D01*
X153470857Y-76276715D01*
X153470857Y-76133858D01*
X153518476Y-75943382D01*
X153566095Y-75848144D01*
X153661333Y-75752906D01*
X153804190Y-75705286D01*
X153899428Y-75705286D01*
X154042285Y-75752906D01*
X154089904Y-75800525D01*
X154947047Y-75705286D02*
X154756571Y-75705286D01*
X154661333Y-75752906D01*
X154613714Y-75800525D01*
X154518476Y-75943382D01*
X154470857Y-76133858D01*
X154470857Y-76514810D01*
X154518476Y-76610048D01*
X154566095Y-76657667D01*
X154661333Y-76705286D01*
X154851809Y-76705286D01*
X154947047Y-76657667D01*
X154994666Y-76610048D01*
X155042285Y-76514810D01*
X155042285Y-76276715D01*
X154994666Y-76181477D01*
X154947047Y-76133858D01*
X154851809Y-76086239D01*
X154661333Y-76086239D01*
X154566095Y-76133858D01*
X154518476Y-76181477D01*
X154470857Y-76276715D01*
X126686333Y-76605286D02*
X126686333Y-75605286D01*
X126924428Y-75605286D01*
X127067285Y-75652906D01*
X127162523Y-75748144D01*
X127210142Y-75843382D01*
X127257761Y-76033858D01*
X127257761Y-76176715D01*
X127210142Y-76367191D01*
X127162523Y-76462429D01*
X127067285Y-76557667D01*
X126924428Y-76605286D01*
X126686333Y-76605286D01*
X127638714Y-76319572D02*
X128114904Y-76319572D01*
X127543476Y-76605286D02*
X127876809Y-75605286D01*
X128210142Y-76605286D01*
X129114904Y-76510048D02*
X129067285Y-76557667D01*
X128924428Y-76605286D01*
X128829190Y-76605286D01*
X128686333Y-76557667D01*
X128591095Y-76462429D01*
X128543476Y-76367191D01*
X128495857Y-76176715D01*
X128495857Y-76033858D01*
X128543476Y-75843382D01*
X128591095Y-75748144D01*
X128686333Y-75652906D01*
X128829190Y-75605286D01*
X128924428Y-75605286D01*
X129067285Y-75652906D01*
X129114904Y-75700525D01*
X129448238Y-75605286D02*
X130114904Y-75605286D01*
X129686333Y-76605286D01*
X101661333Y-76905286D02*
X101661333Y-75905286D01*
X101899428Y-75905286D01*
X102042285Y-75952906D01*
X102137523Y-76048144D01*
X102185142Y-76143382D01*
X102232761Y-76333858D01*
X102232761Y-76476715D01*
X102185142Y-76667191D01*
X102137523Y-76762429D01*
X102042285Y-76857667D01*
X101899428Y-76905286D01*
X101661333Y-76905286D01*
X102613714Y-76619572D02*
X103089904Y-76619572D01*
X102518476Y-76905286D02*
X102851809Y-75905286D01*
X103185142Y-76905286D01*
X104089904Y-76810048D02*
X104042285Y-76857667D01*
X103899428Y-76905286D01*
X103804190Y-76905286D01*
X103661333Y-76857667D01*
X103566095Y-76762429D01*
X103518476Y-76667191D01*
X103470857Y-76476715D01*
X103470857Y-76333858D01*
X103518476Y-76143382D01*
X103566095Y-76048144D01*
X103661333Y-75952906D01*
X103804190Y-75905286D01*
X103899428Y-75905286D01*
X104042285Y-75952906D01*
X104089904Y-76000525D01*
X104661333Y-76333858D02*
X104566095Y-76286239D01*
X104518476Y-76238620D01*
X104470857Y-76143382D01*
X104470857Y-76095763D01*
X104518476Y-76000525D01*
X104566095Y-75952906D01*
X104661333Y-75905286D01*
X104851809Y-75905286D01*
X104947047Y-75952906D01*
X104994666Y-76000525D01*
X105042285Y-76095763D01*
X105042285Y-76143382D01*
X104994666Y-76238620D01*
X104947047Y-76286239D01*
X104851809Y-76333858D01*
X104661333Y-76333858D01*
X104566095Y-76381477D01*
X104518476Y-76429096D01*
X104470857Y-76524334D01*
X104470857Y-76714810D01*
X104518476Y-76810048D01*
X104566095Y-76857667D01*
X104661333Y-76905286D01*
X104851809Y-76905286D01*
X104947047Y-76857667D01*
X104994666Y-76810048D01*
X105042285Y-76714810D01*
X105042285Y-76524334D01*
X104994666Y-76429096D01*
X104947047Y-76381477D01*
X104851809Y-76333858D01*
X130219428Y-104328380D02*
X130219428Y-103328380D01*
X130695619Y-104328380D02*
X130695619Y-103328380D01*
X131267047Y-104328380D01*
X131267047Y-103328380D01*
X131695619Y-104042666D02*
X132171809Y-104042666D01*
X131600380Y-104328380D02*
X131933714Y-103328380D01*
X132267047Y-104328380D01*
X132505142Y-103328380D02*
X133124190Y-103328380D01*
X132790857Y-103709333D01*
X132933714Y-103709333D01*
X133028952Y-103756952D01*
X133076571Y-103804571D01*
X133124190Y-103899809D01*
X133124190Y-104137904D01*
X133076571Y-104233142D01*
X133028952Y-104280761D01*
X132933714Y-104328380D01*
X132648000Y-104328380D01*
X132552761Y-104280761D01*
X132505142Y-104233142D01*
X135449428Y-113905286D02*
X135449428Y-112905286D01*
X135925619Y-113905286D02*
X135925619Y-112905286D01*
X136497047Y-113905286D01*
X136497047Y-112905286D01*
X136925619Y-113619572D02*
X137401809Y-113619572D01*
X136830380Y-113905286D02*
X137163714Y-112905286D01*
X137497047Y-113905286D01*
X138258952Y-113238620D02*
X138258952Y-113905286D01*
X138020857Y-112857667D02*
X137782761Y-113571953D01*
X138401809Y-113571953D01*
X155219428Y-104328380D02*
X155219428Y-103328380D01*
X155695619Y-104328380D02*
X155695619Y-103328380D01*
X156267047Y-104328380D01*
X156267047Y-103328380D01*
X156695619Y-104042666D02*
X157171809Y-104042666D01*
X156600380Y-104328380D02*
X156933714Y-103328380D01*
X157267047Y-104328380D01*
X158076571Y-103328380D02*
X157600380Y-103328380D01*
X157552761Y-103804571D01*
X157600380Y-103756952D01*
X157695619Y-103709333D01*
X157933714Y-103709333D01*
X158028952Y-103756952D01*
X158076571Y-103804571D01*
X158124190Y-103899809D01*
X158124190Y-104137904D01*
X158076571Y-104233142D01*
X158028952Y-104280761D01*
X157933714Y-104328380D01*
X157695619Y-104328380D01*
X157600380Y-104280761D01*
X157552761Y-104233142D01*
X160449428Y-113905286D02*
X160449428Y-112905286D01*
X160925619Y-113905286D02*
X160925619Y-112905286D01*
X161497047Y-113905286D01*
X161497047Y-112905286D01*
X161925619Y-113619572D02*
X162401809Y-113619572D01*
X161830380Y-113905286D02*
X162163714Y-112905286D01*
X162497047Y-113905286D01*
X163258952Y-112905286D02*
X163068476Y-112905286D01*
X162973238Y-112952906D01*
X162925619Y-113000525D01*
X162830380Y-113143382D01*
X162782761Y-113333858D01*
X162782761Y-113714810D01*
X162830380Y-113810048D01*
X162878000Y-113857667D01*
X162973238Y-113905286D01*
X163163714Y-113905286D01*
X163258952Y-113857667D01*
X163306571Y-113810048D01*
X163354190Y-113714810D01*
X163354190Y-113476715D01*
X163306571Y-113381477D01*
X163258952Y-113333858D01*
X163163714Y-113286239D01*
X162973238Y-113286239D01*
X162878000Y-113333858D01*
X162830380Y-113381477D01*
X162782761Y-113476715D01*
X180219428Y-104328380D02*
X180219428Y-103328380D01*
X180695619Y-104328380D02*
X180695619Y-103328380D01*
X181267047Y-104328380D01*
X181267047Y-103328380D01*
X181695619Y-104042666D02*
X182171809Y-104042666D01*
X181600380Y-104328380D02*
X181933714Y-103328380D01*
X182267047Y-104328380D01*
X182505142Y-103328380D02*
X183171809Y-103328380D01*
X182743238Y-104328380D01*
X185449428Y-113905286D02*
X185449428Y-112905286D01*
X185925619Y-113905286D02*
X185925619Y-112905286D01*
X186497047Y-113905286D01*
X186497047Y-112905286D01*
X186925619Y-113619572D02*
X187401809Y-113619572D01*
X186830380Y-113905286D02*
X187163714Y-112905286D01*
X187497047Y-113905286D01*
X187973238Y-113333858D02*
X187878000Y-113286239D01*
X187830380Y-113238620D01*
X187782761Y-113143382D01*
X187782761Y-113095763D01*
X187830380Y-113000525D01*
X187878000Y-112952906D01*
X187973238Y-112905286D01*
X188163714Y-112905286D01*
X188258952Y-112952906D01*
X188306571Y-113000525D01*
X188354190Y-113095763D01*
X188354190Y-113143382D01*
X188306571Y-113238620D01*
X188258952Y-113286239D01*
X188163714Y-113333858D01*
X187973238Y-113333858D01*
X187878000Y-113381477D01*
X187830380Y-113429096D01*
X187782761Y-113524334D01*
X187782761Y-113714810D01*
X187830380Y-113810048D01*
X187878000Y-113857667D01*
X187973238Y-113905286D01*
X188163714Y-113905286D01*
X188258952Y-113857667D01*
X188306571Y-113810048D01*
X188354190Y-113714810D01*
X188354190Y-113524334D01*
X188306571Y-113429096D01*
X188258952Y-113381477D01*
X188163714Y-113333858D01*
X188681570Y-72082192D02*
X188681570Y-71082192D01*
X189157761Y-72082192D02*
X189157761Y-71082192D01*
X189729189Y-72082192D01*
X189729189Y-71082192D01*
X190157761Y-71796478D02*
X190633951Y-71796478D01*
X190062522Y-72082192D02*
X190395856Y-71082192D01*
X190729189Y-72082192D01*
X191110142Y-72082192D02*
X191300618Y-72082192D01*
X191395856Y-72034573D01*
X191443475Y-71986954D01*
X191538713Y-71844097D01*
X191586332Y-71653621D01*
X191586332Y-71272669D01*
X191538713Y-71177431D01*
X191491094Y-71129812D01*
X191395856Y-71082192D01*
X191205380Y-71082192D01*
X191110142Y-71129812D01*
X191062522Y-71177431D01*
X191014903Y-71272669D01*
X191014903Y-71510764D01*
X191062522Y-71606002D01*
X191110142Y-71653621D01*
X191205380Y-71701240D01*
X191395856Y-71701240D01*
X191491094Y-71653621D01*
X191538713Y-71606002D01*
X191586332Y-71510764D01*
X182975380Y-62505286D02*
X182975380Y-61505286D01*
X183451570Y-62505286D02*
X183451570Y-61505286D01*
X184022999Y-62505286D01*
X184022999Y-61505286D01*
X184451570Y-62219572D02*
X184927761Y-62219572D01*
X184356332Y-62505286D02*
X184689665Y-61505286D01*
X185022999Y-62505286D01*
X185880142Y-62505286D02*
X185308713Y-62505286D01*
X185594427Y-62505286D02*
X185594427Y-61505286D01*
X185499189Y-61648144D01*
X185403951Y-61743382D01*
X185308713Y-61791001D01*
X186499189Y-61505286D02*
X186594427Y-61505286D01*
X186689665Y-61552906D01*
X186737284Y-61600525D01*
X186784903Y-61695763D01*
X186832522Y-61886239D01*
X186832522Y-62124334D01*
X186784903Y-62314810D01*
X186737284Y-62410048D01*
X186689665Y-62457667D01*
X186594427Y-62505286D01*
X186499189Y-62505286D01*
X186403951Y-62457667D01*
X186356332Y-62410048D01*
X186308713Y-62314810D01*
X186261094Y-62124334D01*
X186261094Y-61886239D01*
X186308713Y-61695763D01*
X186356332Y-61600525D01*
X186403951Y-61552906D01*
X186499189Y-61505286D01*
X163205380Y-72082192D02*
X163205380Y-71082192D01*
X163681570Y-72082192D02*
X163681570Y-71082192D01*
X164252999Y-72082192D01*
X164252999Y-71082192D01*
X164681570Y-71796478D02*
X165157761Y-71796478D01*
X164586332Y-72082192D02*
X164919665Y-71082192D01*
X165252999Y-72082192D01*
X166110142Y-72082192D02*
X165538713Y-72082192D01*
X165824427Y-72082192D02*
X165824427Y-71082192D01*
X165729189Y-71225050D01*
X165633951Y-71320288D01*
X165538713Y-71367907D01*
X167062522Y-72082192D02*
X166491094Y-72082192D01*
X166776808Y-72082192D02*
X166776808Y-71082192D01*
X166681570Y-71225050D01*
X166586332Y-71320288D01*
X166491094Y-71367907D01*
X157975380Y-62505286D02*
X157975380Y-61505286D01*
X158451570Y-62505286D02*
X158451570Y-61505286D01*
X159022999Y-62505286D01*
X159022999Y-61505286D01*
X159451570Y-62219572D02*
X159927761Y-62219572D01*
X159356332Y-62505286D02*
X159689665Y-61505286D01*
X160022999Y-62505286D01*
X160880142Y-62505286D02*
X160308713Y-62505286D01*
X160594427Y-62505286D02*
X160594427Y-61505286D01*
X160499189Y-61648144D01*
X160403951Y-61743382D01*
X160308713Y-61791001D01*
X161261094Y-61600525D02*
X161308713Y-61552906D01*
X161403951Y-61505286D01*
X161642046Y-61505286D01*
X161737284Y-61552906D01*
X161784903Y-61600525D01*
X161832522Y-61695763D01*
X161832522Y-61791001D01*
X161784903Y-61933858D01*
X161213475Y-62505286D01*
X161832522Y-62505286D01*
X138205380Y-72082192D02*
X138205380Y-71082192D01*
X138681570Y-72082192D02*
X138681570Y-71082192D01*
X139252999Y-72082192D01*
X139252999Y-71082192D01*
X139681570Y-71796478D02*
X140157761Y-71796478D01*
X139586332Y-72082192D02*
X139919665Y-71082192D01*
X140252999Y-72082192D01*
X141110142Y-72082192D02*
X140538713Y-72082192D01*
X140824427Y-72082192D02*
X140824427Y-71082192D01*
X140729189Y-71225050D01*
X140633951Y-71320288D01*
X140538713Y-71367907D01*
X141443475Y-71082192D02*
X142062522Y-71082192D01*
X141729189Y-71463145D01*
X141872046Y-71463145D01*
X141967284Y-71510764D01*
X142014903Y-71558383D01*
X142062522Y-71653621D01*
X142062522Y-71891716D01*
X142014903Y-71986954D01*
X141967284Y-72034573D01*
X141872046Y-72082192D01*
X141586332Y-72082192D01*
X141491094Y-72034573D01*
X141443475Y-71986954D01*
X132975380Y-62505286D02*
X132975380Y-61505286D01*
X133451570Y-62505286D02*
X133451570Y-61505286D01*
X134022999Y-62505286D01*
X134022999Y-61505286D01*
X134451570Y-62219572D02*
X134927761Y-62219572D01*
X134356332Y-62505286D02*
X134689665Y-61505286D01*
X135022999Y-62505286D01*
X135880142Y-62505286D02*
X135308713Y-62505286D01*
X135594427Y-62505286D02*
X135594427Y-61505286D01*
X135499189Y-61648144D01*
X135403951Y-61743382D01*
X135308713Y-61791001D01*
X136737284Y-61838620D02*
X136737284Y-62505286D01*
X136499189Y-61457667D02*
X136261094Y-62171953D01*
X136880142Y-62171953D01*
X113205380Y-72082192D02*
X113205380Y-71082192D01*
X113681570Y-72082192D02*
X113681570Y-71082192D01*
X114252999Y-72082192D01*
X114252999Y-71082192D01*
X114681570Y-71796478D02*
X115157761Y-71796478D01*
X114586332Y-72082192D02*
X114919665Y-71082192D01*
X115252999Y-72082192D01*
X116110142Y-72082192D02*
X115538713Y-72082192D01*
X115824427Y-72082192D02*
X115824427Y-71082192D01*
X115729189Y-71225050D01*
X115633951Y-71320288D01*
X115538713Y-71367907D01*
X117014903Y-71082192D02*
X116538713Y-71082192D01*
X116491094Y-71558383D01*
X116538713Y-71510764D01*
X116633951Y-71463145D01*
X116872046Y-71463145D01*
X116967284Y-71510764D01*
X117014903Y-71558383D01*
X117062522Y-71653621D01*
X117062522Y-71891716D01*
X117014903Y-71986954D01*
X116967284Y-72034573D01*
X116872046Y-72082192D01*
X116633951Y-72082192D01*
X116538713Y-72034573D01*
X116491094Y-71986954D01*
X107975380Y-62505286D02*
X107975380Y-61505286D01*
X108451570Y-62505286D02*
X108451570Y-61505286D01*
X109022999Y-62505286D01*
X109022999Y-61505286D01*
X109451570Y-62219572D02*
X109927761Y-62219572D01*
X109356332Y-62505286D02*
X109689665Y-61505286D01*
X110022999Y-62505286D01*
X110880142Y-62505286D02*
X110308713Y-62505286D01*
X110594427Y-62505286D02*
X110594427Y-61505286D01*
X110499189Y-61648144D01*
X110403951Y-61743382D01*
X110308713Y-61791001D01*
X111737284Y-61505286D02*
X111546808Y-61505286D01*
X111451570Y-61552906D01*
X111403951Y-61600525D01*
X111308713Y-61743382D01*
X111261094Y-61933858D01*
X111261094Y-62314810D01*
X111308713Y-62410048D01*
X111356332Y-62457667D01*
X111451570Y-62505286D01*
X111642046Y-62505286D01*
X111737284Y-62457667D01*
X111784903Y-62410048D01*
X111832522Y-62314810D01*
X111832522Y-62076715D01*
X111784903Y-61981477D01*
X111737284Y-61933858D01*
X111642046Y-61886239D01*
X111451570Y-61886239D01*
X111356332Y-61933858D01*
X111308713Y-61981477D01*
X111261094Y-62076715D01*
X149480380Y-105986239D02*
X150194666Y-105986239D01*
X150337523Y-106033858D01*
X150432761Y-106129096D01*
X150480380Y-106271953D01*
X150480380Y-106367191D01*
X149480380Y-105605286D02*
X149480380Y-104986239D01*
X149861333Y-105319572D01*
X149861333Y-105176715D01*
X149908952Y-105081477D01*
X149956571Y-105033858D01*
X150051809Y-104986239D01*
X150289904Y-104986239D01*
X150385142Y-105033858D01*
X150432761Y-105081477D01*
X150480380Y-105176715D01*
X150480380Y-105462429D01*
X150432761Y-105557667D01*
X150385142Y-105605286D01*
X174480380Y-106286239D02*
X175194666Y-106286239D01*
X175337523Y-106333858D01*
X175432761Y-106429096D01*
X175480380Y-106571953D01*
X175480380Y-106667191D01*
X174813714Y-105381477D02*
X175480380Y-105381477D01*
X174432761Y-105619572D02*
X175147047Y-105857667D01*
X175147047Y-105238620D01*
X196030380Y-69886239D02*
X196744666Y-69886239D01*
X196887523Y-69933858D01*
X196982761Y-70029096D01*
X197030380Y-70171953D01*
X197030380Y-70267191D01*
X196030380Y-68933858D02*
X196030380Y-69410048D01*
X196506571Y-69457667D01*
X196458952Y-69410048D01*
X196411333Y-69314810D01*
X196411333Y-69076715D01*
X196458952Y-68981477D01*
X196506571Y-68933858D01*
X196601809Y-68886239D01*
X196839904Y-68886239D01*
X196935142Y-68933858D01*
X196982761Y-68981477D01*
X197030380Y-69076715D01*
X197030380Y-69314810D01*
X196982761Y-69410048D01*
X196935142Y-69457667D01*
X171730380Y-70236239D02*
X172444666Y-70236239D01*
X172587523Y-70283858D01*
X172682761Y-70379096D01*
X172730380Y-70521953D01*
X172730380Y-70617191D01*
X171730380Y-69331477D02*
X171730380Y-69521953D01*
X171778000Y-69617191D01*
X171825619Y-69664810D01*
X171968476Y-69760048D01*
X172158952Y-69807667D01*
X172539904Y-69807667D01*
X172635142Y-69760048D01*
X172682761Y-69712429D01*
X172730380Y-69617191D01*
X172730380Y-69426715D01*
X172682761Y-69331477D01*
X172635142Y-69283858D01*
X172539904Y-69236239D01*
X172301809Y-69236239D01*
X172206571Y-69283858D01*
X172158952Y-69331477D01*
X172111333Y-69426715D01*
X172111333Y-69617191D01*
X172158952Y-69712429D01*
X172206571Y-69760048D01*
X172301809Y-69807667D01*
X146755380Y-70061239D02*
X147469666Y-70061239D01*
X147612523Y-70108858D01*
X147707761Y-70204096D01*
X147755380Y-70346953D01*
X147755380Y-70442191D01*
X146755380Y-69680286D02*
X146755380Y-69013620D01*
X147755380Y-69442191D01*
X121605380Y-70113145D02*
X122319666Y-70113145D01*
X122462523Y-70160764D01*
X122557761Y-70256002D01*
X122605380Y-70398859D01*
X122605380Y-70494097D01*
X122033952Y-69494097D02*
X121986333Y-69589335D01*
X121938714Y-69636954D01*
X121843476Y-69684573D01*
X121795857Y-69684573D01*
X121700619Y-69636954D01*
X121653000Y-69589335D01*
X121605380Y-69494097D01*
X121605380Y-69303621D01*
X121653000Y-69208383D01*
X121700619Y-69160764D01*
X121795857Y-69113145D01*
X121843476Y-69113145D01*
X121938714Y-69160764D01*
X121986333Y-69208383D01*
X122033952Y-69303621D01*
X122033952Y-69494097D01*
X122081571Y-69589335D01*
X122129190Y-69636954D01*
X122224428Y-69684573D01*
X122414904Y-69684573D01*
X122510142Y-69636954D01*
X122557761Y-69589335D01*
X122605380Y-69494097D01*
X122605380Y-69303621D01*
X122557761Y-69208383D01*
X122510142Y-69160764D01*
X122414904Y-69113145D01*
X122224428Y-69113145D01*
X122129190Y-69160764D01*
X122081571Y-69208383D01*
X122033952Y-69303621D01*
X147650619Y-125098144D02*
X147603000Y-125193382D01*
X147507761Y-125288620D01*
X147364904Y-125431477D01*
X147317285Y-125526715D01*
X147317285Y-125621953D01*
X147555380Y-125574334D02*
X147507761Y-125669572D01*
X147412523Y-125764810D01*
X147222047Y-125812429D01*
X146888714Y-125812429D01*
X146698238Y-125764810D01*
X146603000Y-125669572D01*
X146555380Y-125574334D01*
X146555380Y-125383858D01*
X146603000Y-125288620D01*
X146698238Y-125193382D01*
X146888714Y-125145763D01*
X147222047Y-125145763D01*
X147412523Y-125193382D01*
X147507761Y-125288620D01*
X147555380Y-125383858D01*
X147555380Y-125574334D01*
X146650619Y-124764810D02*
X146603000Y-124717191D01*
X146555380Y-124621953D01*
X146555380Y-124383858D01*
X146603000Y-124288620D01*
X146650619Y-124241001D01*
X146745857Y-124193382D01*
X146841095Y-124193382D01*
X146983952Y-124241001D01*
X147555380Y-124812429D01*
X147555380Y-124193382D01*
X173025619Y-124948144D02*
X172978000Y-125043382D01*
X172882761Y-125138620D01*
X172739904Y-125281477D01*
X172692285Y-125376715D01*
X172692285Y-125471953D01*
X172930380Y-125424334D02*
X172882761Y-125519572D01*
X172787523Y-125614810D01*
X172597047Y-125662429D01*
X172263714Y-125662429D01*
X172073238Y-125614810D01*
X171978000Y-125519572D01*
X171930380Y-125424334D01*
X171930380Y-125233858D01*
X171978000Y-125138620D01*
X172073238Y-125043382D01*
X172263714Y-124995763D01*
X172597047Y-124995763D01*
X172787523Y-125043382D01*
X172882761Y-125138620D01*
X172930380Y-125233858D01*
X172930380Y-125424334D01*
X171930380Y-124662429D02*
X171930380Y-124043382D01*
X172311333Y-124376715D01*
X172311333Y-124233858D01*
X172358952Y-124138620D01*
X172406571Y-124091001D01*
X172501809Y-124043382D01*
X172739904Y-124043382D01*
X172835142Y-124091001D01*
X172882761Y-124138620D01*
X172930380Y-124233858D01*
X172930380Y-124519572D01*
X172882761Y-124614810D01*
X172835142Y-124662429D01*
X197625619Y-125048144D02*
X197578000Y-125143382D01*
X197482761Y-125238620D01*
X197339904Y-125381477D01*
X197292285Y-125476715D01*
X197292285Y-125571953D01*
X197530380Y-125524334D02*
X197482761Y-125619572D01*
X197387523Y-125714810D01*
X197197047Y-125762429D01*
X196863714Y-125762429D01*
X196673238Y-125714810D01*
X196578000Y-125619572D01*
X196530380Y-125524334D01*
X196530380Y-125333858D01*
X196578000Y-125238620D01*
X196673238Y-125143382D01*
X196863714Y-125095763D01*
X197197047Y-125095763D01*
X197387523Y-125143382D01*
X197482761Y-125238620D01*
X197530380Y-125333858D01*
X197530380Y-125524334D01*
X196863714Y-124238620D02*
X197530380Y-124238620D01*
X196482761Y-124476715D02*
X197197047Y-124714810D01*
X197197047Y-124095763D01*
X175025619Y-50448144D02*
X174978000Y-50543382D01*
X174882761Y-50638620D01*
X174739904Y-50781477D01*
X174692285Y-50876715D01*
X174692285Y-50971953D01*
X174930380Y-50924334D02*
X174882761Y-51019572D01*
X174787523Y-51114810D01*
X174597047Y-51162429D01*
X174263714Y-51162429D01*
X174073238Y-51114810D01*
X173978000Y-51019572D01*
X173930380Y-50924334D01*
X173930380Y-50733858D01*
X173978000Y-50638620D01*
X174073238Y-50543382D01*
X174263714Y-50495763D01*
X174597047Y-50495763D01*
X174787523Y-50543382D01*
X174882761Y-50638620D01*
X174930380Y-50733858D01*
X174930380Y-50924334D01*
X173930380Y-49591001D02*
X173930380Y-50067191D01*
X174406571Y-50114810D01*
X174358952Y-50067191D01*
X174311333Y-49971953D01*
X174311333Y-49733858D01*
X174358952Y-49638620D01*
X174406571Y-49591001D01*
X174501809Y-49543382D01*
X174739904Y-49543382D01*
X174835142Y-49591001D01*
X174882761Y-49638620D01*
X174930380Y-49733858D01*
X174930380Y-49971953D01*
X174882761Y-50067191D01*
X174835142Y-50114810D01*
X149925619Y-50473144D02*
X149878000Y-50568382D01*
X149782761Y-50663620D01*
X149639904Y-50806477D01*
X149592285Y-50901715D01*
X149592285Y-50996953D01*
X149830380Y-50949334D02*
X149782761Y-51044572D01*
X149687523Y-51139810D01*
X149497047Y-51187429D01*
X149163714Y-51187429D01*
X148973238Y-51139810D01*
X148878000Y-51044572D01*
X148830380Y-50949334D01*
X148830380Y-50758858D01*
X148878000Y-50663620D01*
X148973238Y-50568382D01*
X149163714Y-50520763D01*
X149497047Y-50520763D01*
X149687523Y-50568382D01*
X149782761Y-50663620D01*
X149830380Y-50758858D01*
X149830380Y-50949334D01*
X148830380Y-49663620D02*
X148830380Y-49854096D01*
X148878000Y-49949334D01*
X148925619Y-49996953D01*
X149068476Y-50092191D01*
X149258952Y-50139810D01*
X149639904Y-50139810D01*
X149735142Y-50092191D01*
X149782761Y-50044572D01*
X149830380Y-49949334D01*
X149830380Y-49758858D01*
X149782761Y-49663620D01*
X149735142Y-49616001D01*
X149639904Y-49568382D01*
X149401809Y-49568382D01*
X149306571Y-49616001D01*
X149258952Y-49663620D01*
X149211333Y-49758858D01*
X149211333Y-49949334D01*
X149258952Y-50044572D01*
X149306571Y-50092191D01*
X149401809Y-50139810D01*
X124925619Y-50648144D02*
X124878000Y-50743382D01*
X124782761Y-50838620D01*
X124639904Y-50981477D01*
X124592285Y-51076715D01*
X124592285Y-51171953D01*
X124830380Y-51124334D02*
X124782761Y-51219572D01*
X124687523Y-51314810D01*
X124497047Y-51362429D01*
X124163714Y-51362429D01*
X123973238Y-51314810D01*
X123878000Y-51219572D01*
X123830380Y-51124334D01*
X123830380Y-50933858D01*
X123878000Y-50838620D01*
X123973238Y-50743382D01*
X124163714Y-50695763D01*
X124497047Y-50695763D01*
X124687523Y-50743382D01*
X124782761Y-50838620D01*
X124830380Y-50933858D01*
X124830380Y-51124334D01*
X123830380Y-50362429D02*
X123830380Y-49695763D01*
X124830380Y-50124334D01*
X100125619Y-50598144D02*
X100078000Y-50693382D01*
X99982761Y-50788620D01*
X99839904Y-50931477D01*
X99792285Y-51026715D01*
X99792285Y-51121953D01*
X100030380Y-51074334D02*
X99982761Y-51169572D01*
X99887523Y-51264810D01*
X99697047Y-51312429D01*
X99363714Y-51312429D01*
X99173238Y-51264810D01*
X99078000Y-51169572D01*
X99030380Y-51074334D01*
X99030380Y-50883858D01*
X99078000Y-50788620D01*
X99173238Y-50693382D01*
X99363714Y-50645763D01*
X99697047Y-50645763D01*
X99887523Y-50693382D01*
X99982761Y-50788620D01*
X100030380Y-50883858D01*
X100030380Y-51074334D01*
X99458952Y-50074334D02*
X99411333Y-50169572D01*
X99363714Y-50217191D01*
X99268476Y-50264810D01*
X99220857Y-50264810D01*
X99125619Y-50217191D01*
X99078000Y-50169572D01*
X99030380Y-50074334D01*
X99030380Y-49883858D01*
X99078000Y-49788620D01*
X99125619Y-49741001D01*
X99220857Y-49693382D01*
X99268476Y-49693382D01*
X99363714Y-49741001D01*
X99411333Y-49788620D01*
X99458952Y-49883858D01*
X99458952Y-50074334D01*
X99506571Y-50169572D01*
X99554190Y-50217191D01*
X99649428Y-50264810D01*
X99839904Y-50264810D01*
X99935142Y-50217191D01*
X99982761Y-50169572D01*
X100030380Y-50074334D01*
X100030380Y-49883858D01*
X99982761Y-49788620D01*
X99935142Y-49741001D01*
X99839904Y-49693382D01*
X99649428Y-49693382D01*
X99554190Y-49741001D01*
X99506571Y-49788620D01*
X99458952Y-49883858D01*
X143830380Y-110495763D02*
X143354190Y-110829096D01*
X143830380Y-111067191D02*
X142830380Y-111067191D01*
X142830380Y-110686239D01*
X142878000Y-110591001D01*
X142925619Y-110543382D01*
X143020857Y-110495763D01*
X143163714Y-110495763D01*
X143258952Y-110543382D01*
X143306571Y-110591001D01*
X143354190Y-110686239D01*
X143354190Y-111067191D01*
X143830380Y-109543382D02*
X143830380Y-110114810D01*
X143830380Y-109829096D02*
X142830380Y-109829096D01*
X142973238Y-109924334D01*
X143068476Y-110019572D01*
X143116095Y-110114810D01*
X142830380Y-109210048D02*
X142830380Y-108591001D01*
X143211333Y-108924334D01*
X143211333Y-108781477D01*
X143258952Y-108686239D01*
X143306571Y-108638620D01*
X143401809Y-108591001D01*
X143639904Y-108591001D01*
X143735142Y-108638620D01*
X143782761Y-108686239D01*
X143830380Y-108781477D01*
X143830380Y-109067191D01*
X143782761Y-109162429D01*
X143735142Y-109210048D01*
X143850380Y-118868857D02*
X143374190Y-119202190D01*
X143850380Y-119440285D02*
X142850380Y-119440285D01*
X142850380Y-119059333D01*
X142898000Y-118964095D01*
X142945619Y-118916476D01*
X143040857Y-118868857D01*
X143183714Y-118868857D01*
X143278952Y-118916476D01*
X143326571Y-118964095D01*
X143374190Y-119059333D01*
X143374190Y-119440285D01*
X143850380Y-117916476D02*
X143850380Y-118487904D01*
X143850380Y-118202190D02*
X142850380Y-118202190D01*
X142993238Y-118297428D01*
X143088476Y-118392666D01*
X143136095Y-118487904D01*
X143183714Y-117059333D02*
X143850380Y-117059333D01*
X142802761Y-117297428D02*
X143517047Y-117535523D01*
X143517047Y-116916476D01*
X132835142Y-124055286D02*
X132501809Y-123579096D01*
X132263714Y-124055286D02*
X132263714Y-123055286D01*
X132644666Y-123055286D01*
X132739904Y-123102906D01*
X132787523Y-123150525D01*
X132835142Y-123245763D01*
X132835142Y-123388620D01*
X132787523Y-123483858D01*
X132739904Y-123531477D01*
X132644666Y-123579096D01*
X132263714Y-123579096D01*
X133787523Y-124055286D02*
X133216095Y-124055286D01*
X133501809Y-124055286D02*
X133501809Y-123055286D01*
X133406571Y-123198144D01*
X133311333Y-123293382D01*
X133216095Y-123341001D01*
X134358952Y-123483858D02*
X134263714Y-123436239D01*
X134216095Y-123388620D01*
X134168476Y-123293382D01*
X134168476Y-123245763D01*
X134216095Y-123150525D01*
X134263714Y-123102906D01*
X134358952Y-123055286D01*
X134549428Y-123055286D01*
X134644666Y-123102906D01*
X134692285Y-123150525D01*
X134739904Y-123245763D01*
X134739904Y-123293382D01*
X134692285Y-123388620D01*
X134644666Y-123436239D01*
X134549428Y-123483858D01*
X134358952Y-123483858D01*
X134263714Y-123531477D01*
X134216095Y-123579096D01*
X134168476Y-123674334D01*
X134168476Y-123864810D01*
X134216095Y-123960048D01*
X134263714Y-124007667D01*
X134358952Y-124055286D01*
X134549428Y-124055286D01*
X134644666Y-124007667D01*
X134692285Y-123960048D01*
X134739904Y-123864810D01*
X134739904Y-123674334D01*
X134692285Y-123579096D01*
X134644666Y-123531477D01*
X134549428Y-123483858D01*
X168805380Y-110520763D02*
X168329190Y-110854096D01*
X168805380Y-111092191D02*
X167805380Y-111092191D01*
X167805380Y-110711239D01*
X167853000Y-110616001D01*
X167900619Y-110568382D01*
X167995857Y-110520763D01*
X168138714Y-110520763D01*
X168233952Y-110568382D01*
X168281571Y-110616001D01*
X168329190Y-110711239D01*
X168329190Y-111092191D01*
X167900619Y-110139810D02*
X167853000Y-110092191D01*
X167805380Y-109996953D01*
X167805380Y-109758858D01*
X167853000Y-109663620D01*
X167900619Y-109616001D01*
X167995857Y-109568382D01*
X168091095Y-109568382D01*
X168233952Y-109616001D01*
X168805380Y-110187429D01*
X168805380Y-109568382D01*
X167900619Y-109187429D02*
X167853000Y-109139810D01*
X167805380Y-109044572D01*
X167805380Y-108806477D01*
X167853000Y-108711239D01*
X167900619Y-108663620D01*
X167995857Y-108616001D01*
X168091095Y-108616001D01*
X168233952Y-108663620D01*
X168805380Y-109235048D01*
X168805380Y-108616001D01*
X168850380Y-118868857D02*
X168374190Y-119202190D01*
X168850380Y-119440285D02*
X167850380Y-119440285D01*
X167850380Y-119059333D01*
X167898000Y-118964095D01*
X167945619Y-118916476D01*
X168040857Y-118868857D01*
X168183714Y-118868857D01*
X168278952Y-118916476D01*
X168326571Y-118964095D01*
X168374190Y-119059333D01*
X168374190Y-119440285D01*
X167945619Y-118487904D02*
X167898000Y-118440285D01*
X167850380Y-118345047D01*
X167850380Y-118106952D01*
X167898000Y-118011714D01*
X167945619Y-117964095D01*
X168040857Y-117916476D01*
X168136095Y-117916476D01*
X168278952Y-117964095D01*
X168850380Y-118535523D01*
X168850380Y-117916476D01*
X167850380Y-117583142D02*
X167850380Y-116964095D01*
X168231333Y-117297428D01*
X168231333Y-117154571D01*
X168278952Y-117059333D01*
X168326571Y-117011714D01*
X168421809Y-116964095D01*
X168659904Y-116964095D01*
X168755142Y-117011714D01*
X168802761Y-117059333D01*
X168850380Y-117154571D01*
X168850380Y-117440285D01*
X168802761Y-117535523D01*
X168755142Y-117583142D01*
X157835142Y-124055286D02*
X157501809Y-123579096D01*
X157263714Y-124055286D02*
X157263714Y-123055286D01*
X157644666Y-123055286D01*
X157739904Y-123102906D01*
X157787523Y-123150525D01*
X157835142Y-123245763D01*
X157835142Y-123388620D01*
X157787523Y-123483858D01*
X157739904Y-123531477D01*
X157644666Y-123579096D01*
X157263714Y-123579096D01*
X158216095Y-123150525D02*
X158263714Y-123102906D01*
X158358952Y-123055286D01*
X158597047Y-123055286D01*
X158692285Y-123102906D01*
X158739904Y-123150525D01*
X158787523Y-123245763D01*
X158787523Y-123341001D01*
X158739904Y-123483858D01*
X158168476Y-124055286D01*
X158787523Y-124055286D01*
X159120857Y-123055286D02*
X159787523Y-123055286D01*
X159358952Y-124055286D01*
X193905380Y-110520763D02*
X193429190Y-110854096D01*
X193905380Y-111092191D02*
X192905380Y-111092191D01*
X192905380Y-110711239D01*
X192953000Y-110616001D01*
X193000619Y-110568382D01*
X193095857Y-110520763D01*
X193238714Y-110520763D01*
X193333952Y-110568382D01*
X193381571Y-110616001D01*
X193429190Y-110711239D01*
X193429190Y-111092191D01*
X192905380Y-110187429D02*
X192905380Y-109568382D01*
X193286333Y-109901715D01*
X193286333Y-109758858D01*
X193333952Y-109663620D01*
X193381571Y-109616001D01*
X193476809Y-109568382D01*
X193714904Y-109568382D01*
X193810142Y-109616001D01*
X193857761Y-109663620D01*
X193905380Y-109758858D01*
X193905380Y-110044572D01*
X193857761Y-110139810D01*
X193810142Y-110187429D01*
X193905380Y-108616001D02*
X193905380Y-109187429D01*
X193905380Y-108901715D02*
X192905380Y-108901715D01*
X193048238Y-108996953D01*
X193143476Y-109092191D01*
X193191095Y-109187429D01*
X193850380Y-118868857D02*
X193374190Y-119202190D01*
X193850380Y-119440285D02*
X192850380Y-119440285D01*
X192850380Y-119059333D01*
X192898000Y-118964095D01*
X192945619Y-118916476D01*
X193040857Y-118868857D01*
X193183714Y-118868857D01*
X193278952Y-118916476D01*
X193326571Y-118964095D01*
X193374190Y-119059333D01*
X193374190Y-119440285D01*
X192850380Y-118535523D02*
X192850380Y-117916476D01*
X193231333Y-118249809D01*
X193231333Y-118106952D01*
X193278952Y-118011714D01*
X193326571Y-117964095D01*
X193421809Y-117916476D01*
X193659904Y-117916476D01*
X193755142Y-117964095D01*
X193802761Y-118011714D01*
X193850380Y-118106952D01*
X193850380Y-118392666D01*
X193802761Y-118487904D01*
X193755142Y-118535523D01*
X192945619Y-117535523D02*
X192898000Y-117487904D01*
X192850380Y-117392666D01*
X192850380Y-117154571D01*
X192898000Y-117059333D01*
X192945619Y-117011714D01*
X193040857Y-116964095D01*
X193136095Y-116964095D01*
X193278952Y-117011714D01*
X193850380Y-117583142D01*
X193850380Y-116964095D01*
X182835142Y-124055286D02*
X182501809Y-123579096D01*
X182263714Y-124055286D02*
X182263714Y-123055286D01*
X182644666Y-123055286D01*
X182739904Y-123102906D01*
X182787523Y-123150525D01*
X182835142Y-123245763D01*
X182835142Y-123388620D01*
X182787523Y-123483858D01*
X182739904Y-123531477D01*
X182644666Y-123579096D01*
X182263714Y-123579096D01*
X183168476Y-123055286D02*
X183787523Y-123055286D01*
X183454190Y-123436239D01*
X183597047Y-123436239D01*
X183692285Y-123483858D01*
X183739904Y-123531477D01*
X183787523Y-123626715D01*
X183787523Y-123864810D01*
X183739904Y-123960048D01*
X183692285Y-124007667D01*
X183597047Y-124055286D01*
X183311333Y-124055286D01*
X183216095Y-124007667D01*
X183168476Y-123960048D01*
X184644666Y-123055286D02*
X184454190Y-123055286D01*
X184358952Y-123102906D01*
X184311333Y-123150525D01*
X184216095Y-123293382D01*
X184168476Y-123483858D01*
X184168476Y-123864810D01*
X184216095Y-123960048D01*
X184263714Y-124007667D01*
X184358952Y-124055286D01*
X184549428Y-124055286D01*
X184644666Y-124007667D01*
X184692285Y-123960048D01*
X184739904Y-123864810D01*
X184739904Y-123626715D01*
X184692285Y-123531477D01*
X184644666Y-123483858D01*
X184549428Y-123436239D01*
X184358952Y-123436239D01*
X184263714Y-123483858D01*
X184216095Y-123531477D01*
X184168476Y-123626715D01*
X178812522Y-65895763D02*
X178336332Y-66229096D01*
X178812522Y-66467191D02*
X177812522Y-66467191D01*
X177812522Y-66086239D01*
X177860142Y-65991001D01*
X177907761Y-65943382D01*
X178002999Y-65895763D01*
X178145856Y-65895763D01*
X178241094Y-65943382D01*
X178288713Y-65991001D01*
X178336332Y-66086239D01*
X178336332Y-66467191D01*
X178145856Y-65038620D02*
X178812522Y-65038620D01*
X177764903Y-65276715D02*
X178479189Y-65514810D01*
X178479189Y-64895763D01*
X177812522Y-64324334D02*
X177812522Y-64229096D01*
X177860142Y-64133858D01*
X177907761Y-64086239D01*
X178002999Y-64038620D01*
X178193475Y-63991001D01*
X178431570Y-63991001D01*
X178622046Y-64038620D01*
X178717284Y-64086239D01*
X178764903Y-64133858D01*
X178812522Y-64229096D01*
X178812522Y-64324334D01*
X178764903Y-64419572D01*
X178717284Y-64467191D01*
X178622046Y-64514810D01*
X178431570Y-64562429D01*
X178193475Y-64562429D01*
X178002999Y-64514810D01*
X177907761Y-64467191D01*
X177860142Y-64419572D01*
X177812522Y-64324334D01*
X178812522Y-57922669D02*
X178336332Y-58256002D01*
X178812522Y-58494097D02*
X177812522Y-58494097D01*
X177812522Y-58113145D01*
X177860142Y-58017907D01*
X177907761Y-57970288D01*
X178002999Y-57922669D01*
X178145856Y-57922669D01*
X178241094Y-57970288D01*
X178288713Y-58017907D01*
X178336332Y-58113145D01*
X178336332Y-58494097D01*
X178145856Y-57065526D02*
X178812522Y-57065526D01*
X177764903Y-57303621D02*
X178479189Y-57541716D01*
X178479189Y-56922669D01*
X178812522Y-56017907D02*
X178812522Y-56589335D01*
X178812522Y-56303621D02*
X177812522Y-56303621D01*
X177955380Y-56398859D01*
X178050618Y-56494097D01*
X178098237Y-56589335D01*
X187637284Y-52355286D02*
X187303951Y-51879096D01*
X187065856Y-52355286D02*
X187065856Y-51355286D01*
X187446808Y-51355286D01*
X187542046Y-51402906D01*
X187589665Y-51450525D01*
X187637284Y-51545763D01*
X187637284Y-51688620D01*
X187589665Y-51783858D01*
X187542046Y-51831477D01*
X187446808Y-51879096D01*
X187065856Y-51879096D01*
X188494427Y-51688620D02*
X188494427Y-52355286D01*
X188256332Y-51307667D02*
X188018237Y-52021953D01*
X188637284Y-52021953D01*
X189494427Y-51355286D02*
X189018237Y-51355286D01*
X188970618Y-51831477D01*
X189018237Y-51783858D01*
X189113475Y-51736239D01*
X189351570Y-51736239D01*
X189446808Y-51783858D01*
X189494427Y-51831477D01*
X189542046Y-51926715D01*
X189542046Y-52164810D01*
X189494427Y-52260048D01*
X189446808Y-52307667D01*
X189351570Y-52355286D01*
X189113475Y-52355286D01*
X189018237Y-52307667D01*
X188970618Y-52260048D01*
X153812522Y-65895763D02*
X153336332Y-66229096D01*
X153812522Y-66467191D02*
X152812522Y-66467191D01*
X152812522Y-66086239D01*
X152860142Y-65991001D01*
X152907761Y-65943382D01*
X153002999Y-65895763D01*
X153145856Y-65895763D01*
X153241094Y-65943382D01*
X153288713Y-65991001D01*
X153336332Y-66086239D01*
X153336332Y-66467191D01*
X153145856Y-65038620D02*
X153812522Y-65038620D01*
X152764903Y-65276715D02*
X153479189Y-65514810D01*
X153479189Y-64895763D01*
X153812522Y-64467191D02*
X153812522Y-64276715D01*
X153764903Y-64181477D01*
X153717284Y-64133858D01*
X153574427Y-64038620D01*
X153383951Y-63991001D01*
X153002999Y-63991001D01*
X152907761Y-64038620D01*
X152860142Y-64086239D01*
X152812522Y-64181477D01*
X152812522Y-64371953D01*
X152860142Y-64467191D01*
X152907761Y-64514810D01*
X153002999Y-64562429D01*
X153241094Y-64562429D01*
X153336332Y-64514810D01*
X153383951Y-64467191D01*
X153431570Y-64371953D01*
X153431570Y-64181477D01*
X153383951Y-64086239D01*
X153336332Y-64038620D01*
X153241094Y-63991001D01*
X151055380Y-57895763D02*
X150579190Y-58229096D01*
X151055380Y-58467191D02*
X150055380Y-58467191D01*
X150055380Y-58086239D01*
X150103000Y-57991001D01*
X150150619Y-57943382D01*
X150245857Y-57895763D01*
X150388714Y-57895763D01*
X150483952Y-57943382D01*
X150531571Y-57991001D01*
X150579190Y-58086239D01*
X150579190Y-58467191D01*
X150055380Y-56991001D02*
X150055380Y-57467191D01*
X150531571Y-57514810D01*
X150483952Y-57467191D01*
X150436333Y-57371953D01*
X150436333Y-57133858D01*
X150483952Y-57038620D01*
X150531571Y-56991001D01*
X150626809Y-56943382D01*
X150864904Y-56943382D01*
X150960142Y-56991001D01*
X151007761Y-57038620D01*
X151055380Y-57133858D01*
X151055380Y-57371953D01*
X151007761Y-57467191D01*
X150960142Y-57514810D01*
X150055380Y-56324334D02*
X150055380Y-56229096D01*
X150103000Y-56133858D01*
X150150619Y-56086239D01*
X150245857Y-56038620D01*
X150436333Y-55991001D01*
X150674428Y-55991001D01*
X150864904Y-56038620D01*
X150960142Y-56086239D01*
X151007761Y-56133858D01*
X151055380Y-56229096D01*
X151055380Y-56324334D01*
X151007761Y-56419572D01*
X150960142Y-56467191D01*
X150864904Y-56514810D01*
X150674428Y-56562429D01*
X150436333Y-56562429D01*
X150245857Y-56514810D01*
X150150619Y-56467191D01*
X150103000Y-56419572D01*
X150055380Y-56324334D01*
X162637284Y-52355286D02*
X162303951Y-51879096D01*
X162065856Y-52355286D02*
X162065856Y-51355286D01*
X162446808Y-51355286D01*
X162542046Y-51402906D01*
X162589665Y-51450525D01*
X162637284Y-51545763D01*
X162637284Y-51688620D01*
X162589665Y-51783858D01*
X162542046Y-51831477D01*
X162446808Y-51879096D01*
X162065856Y-51879096D01*
X163542046Y-51355286D02*
X163065856Y-51355286D01*
X163018237Y-51831477D01*
X163065856Y-51783858D01*
X163161094Y-51736239D01*
X163399189Y-51736239D01*
X163494427Y-51783858D01*
X163542046Y-51831477D01*
X163589665Y-51926715D01*
X163589665Y-52164810D01*
X163542046Y-52260048D01*
X163494427Y-52307667D01*
X163399189Y-52355286D01*
X163161094Y-52355286D01*
X163065856Y-52307667D01*
X163018237Y-52260048D01*
X164446808Y-51688620D02*
X164446808Y-52355286D01*
X164208713Y-51307667D02*
X163970618Y-52021953D01*
X164589665Y-52021953D01*
X128830380Y-66445763D02*
X128354190Y-66779096D01*
X128830380Y-67017191D02*
X127830380Y-67017191D01*
X127830380Y-66636239D01*
X127878000Y-66541001D01*
X127925619Y-66493382D01*
X128020857Y-66445763D01*
X128163714Y-66445763D01*
X128258952Y-66493382D01*
X128306571Y-66541001D01*
X128354190Y-66636239D01*
X128354190Y-67017191D01*
X127830380Y-65541001D02*
X127830380Y-66017191D01*
X128306571Y-66064810D01*
X128258952Y-66017191D01*
X128211333Y-65921953D01*
X128211333Y-65683858D01*
X128258952Y-65588620D01*
X128306571Y-65541001D01*
X128401809Y-65493382D01*
X128639904Y-65493382D01*
X128735142Y-65541001D01*
X128782761Y-65588620D01*
X128830380Y-65683858D01*
X128830380Y-65921953D01*
X128782761Y-66017191D01*
X128735142Y-66064810D01*
X128258952Y-64921953D02*
X128211333Y-65017191D01*
X128163714Y-65064810D01*
X128068476Y-65112429D01*
X128020857Y-65112429D01*
X127925619Y-65064810D01*
X127878000Y-65017191D01*
X127830380Y-64921953D01*
X127830380Y-64731477D01*
X127878000Y-64636239D01*
X127925619Y-64588620D01*
X128020857Y-64541001D01*
X128068476Y-64541001D01*
X128163714Y-64588620D01*
X128211333Y-64636239D01*
X128258952Y-64731477D01*
X128258952Y-64921953D01*
X128306571Y-65017191D01*
X128354190Y-65064810D01*
X128449428Y-65112429D01*
X128639904Y-65112429D01*
X128735142Y-65064810D01*
X128782761Y-65017191D01*
X128830380Y-64921953D01*
X128830380Y-64731477D01*
X128782761Y-64636239D01*
X128735142Y-64588620D01*
X128639904Y-64541001D01*
X128449428Y-64541001D01*
X128354190Y-64588620D01*
X128306571Y-64636239D01*
X128258952Y-64731477D01*
X126005380Y-57895763D02*
X125529190Y-58229096D01*
X126005380Y-58467191D02*
X125005380Y-58467191D01*
X125005380Y-58086239D01*
X125053000Y-57991001D01*
X125100619Y-57943382D01*
X125195857Y-57895763D01*
X125338714Y-57895763D01*
X125433952Y-57943382D01*
X125481571Y-57991001D01*
X125529190Y-58086239D01*
X125529190Y-58467191D01*
X125005380Y-56991001D02*
X125005380Y-57467191D01*
X125481571Y-57514810D01*
X125433952Y-57467191D01*
X125386333Y-57371953D01*
X125386333Y-57133858D01*
X125433952Y-57038620D01*
X125481571Y-56991001D01*
X125576809Y-56943382D01*
X125814904Y-56943382D01*
X125910142Y-56991001D01*
X125957761Y-57038620D01*
X126005380Y-57133858D01*
X126005380Y-57371953D01*
X125957761Y-57467191D01*
X125910142Y-57514810D01*
X126005380Y-56467191D02*
X126005380Y-56276715D01*
X125957761Y-56181477D01*
X125910142Y-56133858D01*
X125767285Y-56038620D01*
X125576809Y-55991001D01*
X125195857Y-55991001D01*
X125100619Y-56038620D01*
X125053000Y-56086239D01*
X125005380Y-56181477D01*
X125005380Y-56371953D01*
X125053000Y-56467191D01*
X125100619Y-56514810D01*
X125195857Y-56562429D01*
X125433952Y-56562429D01*
X125529190Y-56514810D01*
X125576809Y-56467191D01*
X125624428Y-56371953D01*
X125624428Y-56181477D01*
X125576809Y-56086239D01*
X125529190Y-56038620D01*
X125433952Y-55991001D01*
X137637284Y-52355286D02*
X137303951Y-51879096D01*
X137065856Y-52355286D02*
X137065856Y-51355286D01*
X137446808Y-51355286D01*
X137542046Y-51402906D01*
X137589665Y-51450525D01*
X137637284Y-51545763D01*
X137637284Y-51688620D01*
X137589665Y-51783858D01*
X137542046Y-51831477D01*
X137446808Y-51879096D01*
X137065856Y-51879096D01*
X138494427Y-51355286D02*
X138303951Y-51355286D01*
X138208713Y-51402906D01*
X138161094Y-51450525D01*
X138065856Y-51593382D01*
X138018237Y-51783858D01*
X138018237Y-52164810D01*
X138065856Y-52260048D01*
X138113475Y-52307667D01*
X138208713Y-52355286D01*
X138399189Y-52355286D01*
X138494427Y-52307667D01*
X138542046Y-52260048D01*
X138589665Y-52164810D01*
X138589665Y-51926715D01*
X138542046Y-51831477D01*
X138494427Y-51783858D01*
X138399189Y-51736239D01*
X138208713Y-51736239D01*
X138113475Y-51783858D01*
X138065856Y-51831477D01*
X138018237Y-51926715D01*
X138922999Y-51355286D02*
X139542046Y-51355286D01*
X139208713Y-51736239D01*
X139351570Y-51736239D01*
X139446808Y-51783858D01*
X139494427Y-51831477D01*
X139542046Y-51926715D01*
X139542046Y-52164810D01*
X139494427Y-52260048D01*
X139446808Y-52307667D01*
X139351570Y-52355286D01*
X139065856Y-52355286D01*
X138970618Y-52307667D01*
X138922999Y-52260048D01*
X103855380Y-66495763D02*
X103379190Y-66829096D01*
X103855380Y-67067191D02*
X102855380Y-67067191D01*
X102855380Y-66686239D01*
X102903000Y-66591001D01*
X102950619Y-66543382D01*
X103045857Y-66495763D01*
X103188714Y-66495763D01*
X103283952Y-66543382D01*
X103331571Y-66591001D01*
X103379190Y-66686239D01*
X103379190Y-67067191D01*
X102855380Y-65638620D02*
X102855380Y-65829096D01*
X102903000Y-65924334D01*
X102950619Y-65971953D01*
X103093476Y-66067191D01*
X103283952Y-66114810D01*
X103664904Y-66114810D01*
X103760142Y-66067191D01*
X103807761Y-66019572D01*
X103855380Y-65924334D01*
X103855380Y-65733858D01*
X103807761Y-65638620D01*
X103760142Y-65591001D01*
X103664904Y-65543382D01*
X103426809Y-65543382D01*
X103331571Y-65591001D01*
X103283952Y-65638620D01*
X103236333Y-65733858D01*
X103236333Y-65924334D01*
X103283952Y-66019572D01*
X103331571Y-66067191D01*
X103426809Y-66114810D01*
X102855380Y-65210048D02*
X102855380Y-64543382D01*
X103855380Y-64971953D01*
X100880380Y-57945763D02*
X100404190Y-58279096D01*
X100880380Y-58517191D02*
X99880380Y-58517191D01*
X99880380Y-58136239D01*
X99928000Y-58041001D01*
X99975619Y-57993382D01*
X100070857Y-57945763D01*
X100213714Y-57945763D01*
X100308952Y-57993382D01*
X100356571Y-58041001D01*
X100404190Y-58136239D01*
X100404190Y-58517191D01*
X99880380Y-57088620D02*
X99880380Y-57279096D01*
X99928000Y-57374334D01*
X99975619Y-57421953D01*
X100118476Y-57517191D01*
X100308952Y-57564810D01*
X100689904Y-57564810D01*
X100785142Y-57517191D01*
X100832761Y-57469572D01*
X100880380Y-57374334D01*
X100880380Y-57183858D01*
X100832761Y-57088620D01*
X100785142Y-57041001D01*
X100689904Y-56993382D01*
X100451809Y-56993382D01*
X100356571Y-57041001D01*
X100308952Y-57088620D01*
X100261333Y-57183858D01*
X100261333Y-57374334D01*
X100308952Y-57469572D01*
X100356571Y-57517191D01*
X100451809Y-57564810D01*
X100308952Y-56421953D02*
X100261333Y-56517191D01*
X100213714Y-56564810D01*
X100118476Y-56612429D01*
X100070857Y-56612429D01*
X99975619Y-56564810D01*
X99928000Y-56517191D01*
X99880380Y-56421953D01*
X99880380Y-56231477D01*
X99928000Y-56136239D01*
X99975619Y-56088620D01*
X100070857Y-56041001D01*
X100118476Y-56041001D01*
X100213714Y-56088620D01*
X100261333Y-56136239D01*
X100308952Y-56231477D01*
X100308952Y-56421953D01*
X100356571Y-56517191D01*
X100404190Y-56564810D01*
X100499428Y-56612429D01*
X100689904Y-56612429D01*
X100785142Y-56564810D01*
X100832761Y-56517191D01*
X100880380Y-56421953D01*
X100880380Y-56231477D01*
X100832761Y-56136239D01*
X100785142Y-56088620D01*
X100689904Y-56041001D01*
X100499428Y-56041001D01*
X100404190Y-56088620D01*
X100356571Y-56136239D01*
X100308952Y-56231477D01*
X112637284Y-52355286D02*
X112303951Y-51879096D01*
X112065856Y-52355286D02*
X112065856Y-51355286D01*
X112446808Y-51355286D01*
X112542046Y-51402906D01*
X112589665Y-51450525D01*
X112637284Y-51545763D01*
X112637284Y-51688620D01*
X112589665Y-51783858D01*
X112542046Y-51831477D01*
X112446808Y-51879096D01*
X112065856Y-51879096D01*
X112970618Y-51355286D02*
X113637284Y-51355286D01*
X113208713Y-52355286D01*
X113970618Y-51450525D02*
X114018237Y-51402906D01*
X114113475Y-51355286D01*
X114351570Y-51355286D01*
X114446808Y-51402906D01*
X114494427Y-51450525D01*
X114542046Y-51545763D01*
X114542046Y-51641001D01*
X114494427Y-51783858D01*
X113922999Y-52355286D01*
X114542046Y-52355286D01*
X144205380Y-111039810D02*
X145014904Y-111039810D01*
X145110142Y-110992191D01*
X145157761Y-110944572D01*
X145205380Y-110849334D01*
X145205380Y-110658858D01*
X145157761Y-110563620D01*
X145110142Y-110516001D01*
X145014904Y-110468382D01*
X144205380Y-110468382D01*
X144538714Y-109563620D02*
X145205380Y-109563620D01*
X144157761Y-109801715D02*
X144872047Y-110039810D01*
X144872047Y-109420763D01*
X169230380Y-110964810D02*
X170039904Y-110964810D01*
X170135142Y-110917191D01*
X170182761Y-110869572D01*
X170230380Y-110774334D01*
X170230380Y-110583858D01*
X170182761Y-110488620D01*
X170135142Y-110441001D01*
X170039904Y-110393382D01*
X169230380Y-110393382D01*
X169230380Y-109488620D02*
X169230380Y-109679096D01*
X169278000Y-109774334D01*
X169325619Y-109821953D01*
X169468476Y-109917191D01*
X169658952Y-109964810D01*
X170039904Y-109964810D01*
X170135142Y-109917191D01*
X170182761Y-109869572D01*
X170230380Y-109774334D01*
X170230380Y-109583858D01*
X170182761Y-109488620D01*
X170135142Y-109441001D01*
X170039904Y-109393382D01*
X169801809Y-109393382D01*
X169706571Y-109441001D01*
X169658952Y-109488620D01*
X169611333Y-109583858D01*
X169611333Y-109774334D01*
X169658952Y-109869572D01*
X169706571Y-109917191D01*
X169801809Y-109964810D01*
X194380380Y-110989810D02*
X195189904Y-110989810D01*
X195285142Y-110942191D01*
X195332761Y-110894572D01*
X195380380Y-110799334D01*
X195380380Y-110608858D01*
X195332761Y-110513620D01*
X195285142Y-110466001D01*
X195189904Y-110418382D01*
X194380380Y-110418382D01*
X194808952Y-109799334D02*
X194761333Y-109894572D01*
X194713714Y-109942191D01*
X194618476Y-109989810D01*
X194570857Y-109989810D01*
X194475619Y-109942191D01*
X194428000Y-109894572D01*
X194380380Y-109799334D01*
X194380380Y-109608858D01*
X194428000Y-109513620D01*
X194475619Y-109466001D01*
X194570857Y-109418382D01*
X194618476Y-109418382D01*
X194713714Y-109466001D01*
X194761333Y-109513620D01*
X194808952Y-109608858D01*
X194808952Y-109799334D01*
X194856571Y-109894572D01*
X194904190Y-109942191D01*
X194999428Y-109989810D01*
X195189904Y-109989810D01*
X195285142Y-109942191D01*
X195332761Y-109894572D01*
X195380380Y-109799334D01*
X195380380Y-109608858D01*
X195332761Y-109513620D01*
X195285142Y-109466001D01*
X195189904Y-109418382D01*
X194999428Y-109418382D01*
X194904190Y-109466001D01*
X194856571Y-109513620D01*
X194808952Y-109608858D01*
X175630380Y-66791001D02*
X176439904Y-66791001D01*
X176535142Y-66743382D01*
X176582761Y-66695763D01*
X176630380Y-66600525D01*
X176630380Y-66410048D01*
X176582761Y-66314810D01*
X176535142Y-66267191D01*
X176439904Y-66219572D01*
X175630380Y-66219572D01*
X176630380Y-65219572D02*
X176630380Y-65791001D01*
X176630380Y-65505286D02*
X175630380Y-65505286D01*
X175773238Y-65600525D01*
X175868476Y-65695763D01*
X175916095Y-65791001D01*
X175630380Y-64600525D02*
X175630380Y-64505286D01*
X175678000Y-64410048D01*
X175725619Y-64362429D01*
X175820857Y-64314810D01*
X176011333Y-64267191D01*
X176249428Y-64267191D01*
X176439904Y-64314810D01*
X176535142Y-64362429D01*
X176582761Y-64410048D01*
X176630380Y-64505286D01*
X176630380Y-64600525D01*
X176582761Y-64695763D01*
X176535142Y-64743382D01*
X176439904Y-64791001D01*
X176249428Y-64838620D01*
X176011333Y-64838620D01*
X175820857Y-64791001D01*
X175725619Y-64743382D01*
X175678000Y-64695763D01*
X175630380Y-64600525D01*
X151405380Y-66566001D02*
X152214904Y-66566001D01*
X152310142Y-66518382D01*
X152357761Y-66470763D01*
X152405380Y-66375525D01*
X152405380Y-66185048D01*
X152357761Y-66089810D01*
X152310142Y-66042191D01*
X152214904Y-65994572D01*
X151405380Y-65994572D01*
X152405380Y-64994572D02*
X152405380Y-65566001D01*
X152405380Y-65280286D02*
X151405380Y-65280286D01*
X151548238Y-65375525D01*
X151643476Y-65470763D01*
X151691095Y-65566001D01*
X151500619Y-64613620D02*
X151453000Y-64566001D01*
X151405380Y-64470763D01*
X151405380Y-64232667D01*
X151453000Y-64137429D01*
X151500619Y-64089810D01*
X151595857Y-64042191D01*
X151691095Y-64042191D01*
X151833952Y-64089810D01*
X152405380Y-64661239D01*
X152405380Y-64042191D01*
X126455380Y-67066001D02*
X127264904Y-67066001D01*
X127360142Y-67018382D01*
X127407761Y-66970763D01*
X127455380Y-66875525D01*
X127455380Y-66685048D01*
X127407761Y-66589810D01*
X127360142Y-66542191D01*
X127264904Y-66494572D01*
X126455380Y-66494572D01*
X127455380Y-65494572D02*
X127455380Y-66066001D01*
X127455380Y-65780286D02*
X126455380Y-65780286D01*
X126598238Y-65875525D01*
X126693476Y-65970763D01*
X126741095Y-66066001D01*
X126788714Y-64637429D02*
X127455380Y-64637429D01*
X126407761Y-64875525D02*
X127122047Y-65113620D01*
X127122047Y-64494572D01*
X101505380Y-67016001D02*
X102314904Y-67016001D01*
X102410142Y-66968382D01*
X102457761Y-66920763D01*
X102505380Y-66825525D01*
X102505380Y-66635048D01*
X102457761Y-66539810D01*
X102410142Y-66492191D01*
X102314904Y-66444572D01*
X101505380Y-66444572D01*
X102505380Y-65444572D02*
X102505380Y-66016001D01*
X102505380Y-65730286D02*
X101505380Y-65730286D01*
X101648238Y-65825525D01*
X101743476Y-65920763D01*
X101791095Y-66016001D01*
X101505380Y-64587429D02*
X101505380Y-64777906D01*
X101553000Y-64873144D01*
X101600619Y-64920763D01*
X101743476Y-65016001D01*
X101933952Y-65063620D01*
X102314904Y-65063620D01*
X102410142Y-65016001D01*
X102457761Y-64968382D01*
X102505380Y-64873144D01*
X102505380Y-64682667D01*
X102457761Y-64587429D01*
X102410142Y-64539810D01*
X102314904Y-64492191D01*
X102076809Y-64492191D01*
X101981571Y-64539810D01*
X101933952Y-64587429D01*
X101886333Y-64682667D01*
X101886333Y-64873144D01*
X101933952Y-64968382D01*
X101981571Y-65016001D01*
X102076809Y-65063620D01*
X118850380Y-110419572D02*
X118374190Y-110752906D01*
X118850380Y-110991001D02*
X117850380Y-110991001D01*
X117850380Y-110610048D01*
X117898000Y-110514810D01*
X117945619Y-110467191D01*
X118040857Y-110419572D01*
X118183714Y-110419572D01*
X118278952Y-110467191D01*
X118326571Y-110514810D01*
X118374190Y-110610048D01*
X118374190Y-110991001D01*
X118183714Y-109562429D02*
X118850380Y-109562429D01*
X117802761Y-109800525D02*
X118517047Y-110038620D01*
X118517047Y-109419572D01*
X108311333Y-124055286D02*
X107978000Y-123579096D01*
X107739904Y-124055286D02*
X107739904Y-123055286D01*
X108120857Y-123055286D01*
X108216095Y-123102906D01*
X108263714Y-123150525D01*
X108311333Y-123245763D01*
X108311333Y-123388620D01*
X108263714Y-123483858D01*
X108216095Y-123531477D01*
X108120857Y-123579096D01*
X107739904Y-123579096D01*
X108787523Y-124055286D02*
X108978000Y-124055286D01*
X109073238Y-124007667D01*
X109120857Y-123960048D01*
X109216095Y-123817191D01*
X109263714Y-123626715D01*
X109263714Y-123245763D01*
X109216095Y-123150525D01*
X109168476Y-123102906D01*
X109073238Y-123055286D01*
X108882761Y-123055286D01*
X108787523Y-123102906D01*
X108739904Y-123150525D01*
X108692285Y-123245763D01*
X108692285Y-123483858D01*
X108739904Y-123579096D01*
X108787523Y-123626715D01*
X108882761Y-123674334D01*
X109073238Y-123674334D01*
X109168476Y-123626715D01*
X109216095Y-123579096D01*
X109263714Y-123483858D01*
X119280380Y-111014810D02*
X120089904Y-111014810D01*
X120185142Y-110967191D01*
X120232761Y-110919572D01*
X120280380Y-110824334D01*
X120280380Y-110633858D01*
X120232761Y-110538620D01*
X120185142Y-110491001D01*
X120089904Y-110443382D01*
X119280380Y-110443382D01*
X119375619Y-110014810D02*
X119328000Y-109967191D01*
X119280380Y-109871953D01*
X119280380Y-109633858D01*
X119328000Y-109538620D01*
X119375619Y-109491001D01*
X119470857Y-109443382D01*
X119566095Y-109443382D01*
X119708952Y-109491001D01*
X120280380Y-110062429D01*
X120280380Y-109443382D01*
X114530380Y-110392666D02*
X114054190Y-110726000D01*
X114530380Y-110964095D02*
X113530380Y-110964095D01*
X113530380Y-110583142D01*
X113578000Y-110487904D01*
X113625619Y-110440285D01*
X113720857Y-110392666D01*
X113863714Y-110392666D01*
X113958952Y-110440285D01*
X114006571Y-110487904D01*
X114054190Y-110583142D01*
X114054190Y-110964095D01*
X113530380Y-110059333D02*
X113530380Y-109440285D01*
X113911333Y-109773619D01*
X113911333Y-109630761D01*
X113958952Y-109535523D01*
X114006571Y-109487904D01*
X114101809Y-109440285D01*
X114339904Y-109440285D01*
X114435142Y-109487904D01*
X114482761Y-109535523D01*
X114530380Y-109630761D01*
X114530380Y-109916476D01*
X114482761Y-110011714D01*
X114435142Y-110059333D01*
X139630380Y-110870763D02*
X139154190Y-111204096D01*
X139630380Y-111442191D02*
X138630380Y-111442191D01*
X138630380Y-111061239D01*
X138678000Y-110966001D01*
X138725619Y-110918382D01*
X138820857Y-110870763D01*
X138963714Y-110870763D01*
X139058952Y-110918382D01*
X139106571Y-110966001D01*
X139154190Y-111061239D01*
X139154190Y-111442191D01*
X139630380Y-109918382D02*
X139630380Y-110489810D01*
X139630380Y-110204096D02*
X138630380Y-110204096D01*
X138773238Y-110299334D01*
X138868476Y-110394572D01*
X138916095Y-110489810D01*
X138725619Y-109537429D02*
X138678000Y-109489810D01*
X138630380Y-109394572D01*
X138630380Y-109156477D01*
X138678000Y-109061239D01*
X138725619Y-109013620D01*
X138820857Y-108966001D01*
X138916095Y-108966001D01*
X139058952Y-109013620D01*
X139630380Y-109585048D01*
X139630380Y-108966001D01*
X164730380Y-110868857D02*
X164254190Y-111202190D01*
X164730380Y-111440285D02*
X163730380Y-111440285D01*
X163730380Y-111059333D01*
X163778000Y-110964095D01*
X163825619Y-110916476D01*
X163920857Y-110868857D01*
X164063714Y-110868857D01*
X164158952Y-110916476D01*
X164206571Y-110964095D01*
X164254190Y-111059333D01*
X164254190Y-111440285D01*
X163825619Y-110487904D02*
X163778000Y-110440285D01*
X163730380Y-110345047D01*
X163730380Y-110106952D01*
X163778000Y-110011714D01*
X163825619Y-109964095D01*
X163920857Y-109916476D01*
X164016095Y-109916476D01*
X164158952Y-109964095D01*
X164730380Y-110535523D01*
X164730380Y-109916476D01*
X164730380Y-108964095D02*
X164730380Y-109535523D01*
X164730380Y-109249809D02*
X163730380Y-109249809D01*
X163873238Y-109345047D01*
X163968476Y-109440285D01*
X164016095Y-109535523D01*
X189630380Y-110868857D02*
X189154190Y-111202190D01*
X189630380Y-111440285D02*
X188630380Y-111440285D01*
X188630380Y-111059333D01*
X188678000Y-110964095D01*
X188725619Y-110916476D01*
X188820857Y-110868857D01*
X188963714Y-110868857D01*
X189058952Y-110916476D01*
X189106571Y-110964095D01*
X189154190Y-111059333D01*
X189154190Y-111440285D01*
X188630380Y-110535523D02*
X188630380Y-109916476D01*
X189011333Y-110249809D01*
X189011333Y-110106952D01*
X189058952Y-110011714D01*
X189106571Y-109964095D01*
X189201809Y-109916476D01*
X189439904Y-109916476D01*
X189535142Y-109964095D01*
X189582761Y-110011714D01*
X189630380Y-110106952D01*
X189630380Y-110392666D01*
X189582761Y-110487904D01*
X189535142Y-110535523D01*
X188630380Y-109297428D02*
X188630380Y-109202190D01*
X188678000Y-109106952D01*
X188725619Y-109059333D01*
X188820857Y-109011714D01*
X189011333Y-108964095D01*
X189249428Y-108964095D01*
X189439904Y-109011714D01*
X189535142Y-109059333D01*
X189582761Y-109106952D01*
X189630380Y-109202190D01*
X189630380Y-109297428D01*
X189582761Y-109392666D01*
X189535142Y-109440285D01*
X189439904Y-109487904D01*
X189249428Y-109535523D01*
X189011333Y-109535523D01*
X188820857Y-109487904D01*
X188725619Y-109440285D01*
X188678000Y-109392666D01*
X188630380Y-109297428D01*
X183180380Y-65895763D02*
X182704190Y-66229096D01*
X183180380Y-66467191D02*
X182180380Y-66467191D01*
X182180380Y-66086239D01*
X182228000Y-65991001D01*
X182275619Y-65943382D01*
X182370857Y-65895763D01*
X182513714Y-65895763D01*
X182608952Y-65943382D01*
X182656571Y-65991001D01*
X182704190Y-66086239D01*
X182704190Y-66467191D01*
X182180380Y-65562429D02*
X182180380Y-64943382D01*
X182561333Y-65276715D01*
X182561333Y-65133858D01*
X182608952Y-65038620D01*
X182656571Y-64991001D01*
X182751809Y-64943382D01*
X182989904Y-64943382D01*
X183085142Y-64991001D01*
X183132761Y-65038620D01*
X183180380Y-65133858D01*
X183180380Y-65419572D01*
X183132761Y-65514810D01*
X183085142Y-65562429D01*
X183180380Y-64467191D02*
X183180380Y-64276715D01*
X183132761Y-64181477D01*
X183085142Y-64133858D01*
X182942285Y-64038620D01*
X182751809Y-63991001D01*
X182370857Y-63991001D01*
X182275619Y-64038620D01*
X182228000Y-64086239D01*
X182180380Y-64181477D01*
X182180380Y-64371953D01*
X182228000Y-64467191D01*
X182275619Y-64514810D01*
X182370857Y-64562429D01*
X182608952Y-64562429D01*
X182704190Y-64514810D01*
X182751809Y-64467191D01*
X182799428Y-64371953D01*
X182799428Y-64181477D01*
X182751809Y-64086239D01*
X182704190Y-64038620D01*
X182608952Y-63991001D01*
X158280380Y-65895763D02*
X157804190Y-66229096D01*
X158280380Y-66467191D02*
X157280380Y-66467191D01*
X157280380Y-66086239D01*
X157328000Y-65991001D01*
X157375619Y-65943382D01*
X157470857Y-65895763D01*
X157613714Y-65895763D01*
X157708952Y-65943382D01*
X157756571Y-65991001D01*
X157804190Y-66086239D01*
X157804190Y-66467191D01*
X157613714Y-65038620D02*
X158280380Y-65038620D01*
X157232761Y-65276715D02*
X157947047Y-65514810D01*
X157947047Y-64895763D01*
X157708952Y-64371953D02*
X157661333Y-64467191D01*
X157613714Y-64514810D01*
X157518476Y-64562429D01*
X157470857Y-64562429D01*
X157375619Y-64514810D01*
X157328000Y-64467191D01*
X157280380Y-64371953D01*
X157280380Y-64181477D01*
X157328000Y-64086239D01*
X157375619Y-64038620D01*
X157470857Y-63991001D01*
X157518476Y-63991001D01*
X157613714Y-64038620D01*
X157661333Y-64086239D01*
X157708952Y-64181477D01*
X157708952Y-64371953D01*
X157756571Y-64467191D01*
X157804190Y-64514810D01*
X157899428Y-64562429D01*
X158089904Y-64562429D01*
X158185142Y-64514810D01*
X158232761Y-64467191D01*
X158280380Y-64371953D01*
X158280380Y-64181477D01*
X158232761Y-64086239D01*
X158185142Y-64038620D01*
X158089904Y-63991001D01*
X157899428Y-63991001D01*
X157804190Y-64038620D01*
X157756571Y-64086239D01*
X157708952Y-64181477D01*
X133130380Y-65895763D02*
X132654190Y-66229096D01*
X133130380Y-66467191D02*
X132130380Y-66467191D01*
X132130380Y-66086239D01*
X132178000Y-65991001D01*
X132225619Y-65943382D01*
X132320857Y-65895763D01*
X132463714Y-65895763D01*
X132558952Y-65943382D01*
X132606571Y-65991001D01*
X132654190Y-66086239D01*
X132654190Y-66467191D01*
X132130380Y-64991001D02*
X132130380Y-65467191D01*
X132606571Y-65514810D01*
X132558952Y-65467191D01*
X132511333Y-65371953D01*
X132511333Y-65133858D01*
X132558952Y-65038620D01*
X132606571Y-64991001D01*
X132701809Y-64943382D01*
X132939904Y-64943382D01*
X133035142Y-64991001D01*
X133082761Y-65038620D01*
X133130380Y-65133858D01*
X133130380Y-65371953D01*
X133082761Y-65467191D01*
X133035142Y-65514810D01*
X132130380Y-64610048D02*
X132130380Y-63943382D01*
X133130380Y-64371953D01*
X108130380Y-65922669D02*
X107654190Y-66256002D01*
X108130380Y-66494097D02*
X107130380Y-66494097D01*
X107130380Y-66113145D01*
X107178000Y-66017907D01*
X107225619Y-65970288D01*
X107320857Y-65922669D01*
X107463714Y-65922669D01*
X107558952Y-65970288D01*
X107606571Y-66017907D01*
X107654190Y-66113145D01*
X107654190Y-66494097D01*
X107130380Y-65065526D02*
X107130380Y-65256002D01*
X107178000Y-65351240D01*
X107225619Y-65398859D01*
X107368476Y-65494097D01*
X107558952Y-65541716D01*
X107939904Y-65541716D01*
X108035142Y-65494097D01*
X108082761Y-65446478D01*
X108130380Y-65351240D01*
X108130380Y-65160764D01*
X108082761Y-65065526D01*
X108035142Y-65017907D01*
X107939904Y-64970288D01*
X107701809Y-64970288D01*
X107606571Y-65017907D01*
X107558952Y-65065526D01*
X107511333Y-65160764D01*
X107511333Y-65351240D01*
X107558952Y-65446478D01*
X107606571Y-65494097D01*
X107701809Y-65541716D01*
X107130380Y-64113145D02*
X107130380Y-64303621D01*
X107178000Y-64398859D01*
X107225619Y-64446478D01*
X107368476Y-64541716D01*
X107558952Y-64589335D01*
X107939904Y-64589335D01*
X108035142Y-64541716D01*
X108082761Y-64494097D01*
X108130380Y-64398859D01*
X108130380Y-64208383D01*
X108082761Y-64113145D01*
X108035142Y-64065526D01*
X107939904Y-64017907D01*
X107701809Y-64017907D01*
X107606571Y-64065526D01*
X107558952Y-64113145D01*
X107511333Y-64208383D01*
X107511333Y-64398859D01*
X107558952Y-64494097D01*
X107606571Y-64541716D01*
X107701809Y-64589335D01*
M02*
